<?xml version="1.0" encoding="utf-8"?>
<!-- Generator: Adobe Illustrator 23.0.1, SVG Export Plug-In . SVG Version: 6.00 Build 0)  -->
<svg version="1.1" id="Layer_1" xmlns="http://www.w3.org/2000/svg" xmlns:xlink="http://www.w3.org/1999/xlink" x="0px" y="0px"
	 width="248.9px" height="44px" viewBox="0 0 248.9 44" style="enable-background:new 0 0 248.9 44;" xml:space="preserve">
<style type="text/css">
	.st0{fill:#004A8E;}
	.st1{fill:url(#SVGID_1_);}
	.st2{fill:url(#SVGID_2_);}
	.st3{opacity:0.55;fill:url(#SVGID_3_);}
	.st4{fill:url(#SVGID_4_);}
	.st5{fill:url(#SVGID_5_);}
	.st6{fill:url(#SVGID_6_);}
	.st7{fill:url(#SVGID_7_);}
	.st8{fill:url(#SVGID_8_);}
	.st9{fill:url(#SVGID_9_);}
	.st10{opacity:0.71;fill:url(#SVGID_10_);}
	.st11{opacity:0.83;fill:url(#SVGID_11_);}
	.st12{fill:url(#SVGID_12_);}
	.st13{fill:url(#SVGID_13_);}
	.st14{opacity:0.8;fill:url(#SVGID_14_);}
	.st15{fill:url(#SVGID_15_);}
	.st16{fill:url(#SVGID_16_);}
	.st17{fill:url(#SVGID_17_);}
	.st18{opacity:0.55;fill:url(#SVGID_18_);}
	.st19{fill:url(#SVGID_19_);}
	.st20{fill:url(#SVGID_20_);}
	.st21{fill:url(#SVGID_21_);}
	.st22{fill:url(#SVGID_22_);}
	.st23{fill:url(#SVGID_23_);}
	.st24{fill:url(#SVGID_24_);}
	.st25{opacity:0.71;fill:url(#SVGID_25_);}
	.st26{opacity:0.83;fill:url(#SVGID_26_);}
	.st27{fill:url(#SVGID_27_);}
	.st28{fill:url(#SVGID_28_);}
	.st29{opacity:0.8;fill:url(#SVGID_29_);}
	.st30{fill:url(#SVGID_30_);}
</style>
<g>
	<g>
		<g id="Logo_1_">
			<path class="st0" d="M97.4,28.7c-0.4,0-0.9,0-1.3-0.1v2.3h-3.2V15.8h2.6l0.3,1.3c1-0.9,2.2-1.6,3.5-1.6c3,0,4.5,2.7,4.5,6
				C103.7,26.5,101,28.7,97.4,28.7 M98.3,18c-0.6,0-1.4,0.4-2.2,1.1v7c0.4,0.2,1,0.3,1.5,0.3c1.6,0,2.8-1.3,2.8-4.3
				C100.4,19.4,99.6,18,98.3,18"/>
			<path class="st0" d="M54.8,29c-3.4,0-5.1-2.2-5.1-6.5c0-4.1,2.1-6.9,5.5-6.9c1.5,0,2.8,0.6,3.7,1.6l-1.2,1.7
				c-0.6-0.5-1.3-0.8-2.1-0.8c-1.5,0-2.5,1.4-2.5,4.1c0,3.1,0.8,4.4,2.3,4.4c1,0,1.9-0.3,2.7-1.1l1,1.7C58.2,28.1,56.8,29,54.8,29"
				/>
			<path class="st0" d="M65.3,29c-3.5,0-5.7-1.7-5.7-6.5c0-4.8,2.4-7,6.2-7c3.5,0,5.7,1.7,5.7,6.4C71.5,26.8,69.1,29,65.3,29
				 M65.5,18C64,18,63,19.1,63,22c0,3.6,0.9,4.6,2.6,4.6c1.5,0,2.5-1.1,2.5-4C68.1,19,67.2,18,65.5,18"/>
			<path class="st0" d="M90.8,28.7h-3.3c0-2.6,0.1-5.2,0.1-6.7c0-3.1-0.6-3.8-1.7-3.8c-0.7,0-1.6,0.5-2.4,1.2c0.1,0.4,0.1,1,0.1,1.9
				v7.4h-3.3V22c0-3-0.6-3.8-1.6-3.8c-0.6,0-1.5,0.4-2.3,1.1v9.5H73V15.8h2.7l0.2,1.4c1-1,2.3-1.6,3.8-1.6c1.6,0,2.6,0.8,3.1,1.8
				c1.2-1.1,2.6-1.8,4.1-1.8c2.5,0,3.9,1.6,3.9,5.8C90.9,23,90.8,25.9,90.8,28.7"/>
			<path class="st0" d="M113,28.7l-0.2-1.3c-1.1,1-2.3,1.6-3.9,1.6c-2.6,0-4-1.3-4-3.7c0-2.7,2.1-4.4,6.6-4.4h0.8v-1
				c0-1.3-0.7-2-2.4-2c-1.3,0-2.7,0.4-3.9,0.8l-0.4-2c1.5-0.7,3.3-1.2,5.2-1.2c3.3,0,4.8,1.6,4.8,4v9.1H113z M112.3,22.9h-1
				c-2.5,0-3.2,0.8-3.2,2c0,1.1,0.6,1.7,1.7,1.7c0.8,0,1.7-0.4,2.5-1.1L112.3,22.9z"/>
			<path class="st0" d="M124.8,18.8c-0.4-0.1-0.7-0.2-1.1-0.2c-0.7,0-1.3,0.5-2.5,2v8.2h-3.3V15.8h2.7l0.3,2
				c1.3-1.7,2.2-2.3,3.1-2.3c0.4,0,0.9,0.1,1.3,0.3L124.8,18.8z"/>
			<path class="st0" d="M128.5,22.9v0.2c0,2.4,1.1,3.4,2.9,3.4c1.2,0,2.7-0.2,4.2-0.7l0.5,1.9c-1.6,0.8-3.4,1.4-5.3,1.4
				c-3.4,0-5.6-1.7-5.6-6.4c0-4.6,2.2-7.1,5.8-7.1c3.3,0,5.5,1.8,5.1,7.4L128.5,22.9z M132.9,20.8c0-2.1-0.7-3.1-2.1-3.1
				c-1.4,0-2.2,1.3-2.3,3.1L132.9,20.8L132.9,20.8z"/>
			<path class="st0" d="M187.9,28.7h-3.3c0-2.6,0.1-5.2,0.1-6.7c0-3.1-0.6-3.8-1.7-3.8c-0.7,0-1.6,0.5-2.4,1.2
				c0.1,0.4,0.1,1,0.1,1.9v7.4h-3.3V22c0-3-0.6-3.8-1.6-3.8c-0.6,0-1.5,0.4-2.3,1.1v9.5h-3.3V15.8h2.7l0.2,1.4c1-1,2.3-1.6,3.8-1.6
				c1.6,0,2.6,0.8,3.1,1.8c1.2-1.1,2.6-1.8,4.1-1.8c2.5,0,3.9,1.6,3.9,5.8C188,23,187.9,25.9,187.9,28.7"/>
			<path class="st0" d="M197.7,28.7l-0.2-1.3c-1.1,1-2.3,1.6-3.9,1.6c-2.6,0-4-1.3-4-3.7c0-2.7,2.1-4.4,6.6-4.4h0.8v-1
				c0-1.3-0.7-2-2.4-2c-1.3,0-2.7,0.4-3.9,0.8l-0.4-2c1.5-0.7,3.3-1.2,5.2-1.2c3.3,0,4.8,1.6,4.8,4v9.1H197.7z M196.9,22.9h-1
				c-2.5,0-3.2,0.8-3.2,2c0,1.1,0.6,1.7,1.7,1.7c0.8,0,1.7-0.4,2.5-1.1V22.9z"/>
			<path class="st0" d="M209.7,18.8c-0.4-0.1-0.7-0.2-1.1-0.2c-0.7,0-1.3,0.5-2.5,2v8.2h-3.3V15.8h2.7l0.3,2
				c1.3-1.7,2.2-2.3,3.1-2.3c0.4,0,0.9,0.1,1.3,0.3L209.7,18.8z"/>
			<polygon class="st0" points="218.1,28.7 214.7,22.3 214.7,28.7 211.4,28.7 211.4,13.7 214.7,13.7 214.7,20.8 217.6,15.8
				221.5,15.8 217.7,21.2 222,28.7 			"/>
			<path class="st0" d="M225.4,22.9v0.2c0,2.4,1.1,3.4,2.9,3.4c1.2,0,2.7-0.2,4.2-0.7l0.5,1.9c-1.6,0.8-3.4,1.4-5.3,1.4
				c-3.4,0-5.6-1.7-5.6-6.4c0-4.6,2.2-7.1,5.8-7.1c3.3,0,5.5,1.8,5.1,7.4L225.4,22.9z M229.8,20.8c0-2.1-0.7-3.1-2.1-3.1
				c-1.4,0-2.2,1.3-2.3,3.1L229.8,20.8L229.8,20.8z"/>
			<path class="st0" d="M238.5,29c-2.4,0-3.3-0.9-3.3-3.4v-7.5h-1.6v-2.3h1.7c0.3-0.7,0.6-1.4,0.8-2.1h2.4v2.1h2.9v2.3h-2.9v6.6
				c0,1.3,0.3,1.7,1.2,1.7c0.4,0,0.9-0.1,1.7-0.3l0.3,1.9C240.5,28.7,239.5,29,238.5,29"/>
			<path class="st0" d="M142.1,28.9c-2.1,0-2.9-0.9-2.9-3.4v-8h-2v-1.5h2.1c0.2-1.1,0.4-1,0.5-2.3h1.5v2.3h3.4v1.5h-3.4V25
				c0,1.7,0.3,2.3,1.5,2.3c0.4,0,1-0.1,2-0.4l0.3,1.2C143.9,28.6,142.9,28.9,142.1,28.9"/>
			<path class="st0" d="M156.3,28.7h-2c0-2.4,0.1-5.2,0.1-6.7c0-3.3-0.9-4.5-2.4-4.5c-0.8,0-2,0.5-3.1,1.5v9.7h-2v-15h2v3.7
				c1-0.9,2.3-1.6,3.8-1.6c2.3,0,3.7,1.5,3.7,5.6C156.3,23,156.3,26.1,156.3,28.7"/>
			<path class="st0" d="M160.2,22.6v0.3c0,3.2,1.2,4.4,3.5,4.4c1.3,0,2.5-0.3,3.7-0.8l0.4,1.2c-1.4,0.7-3,1.1-4.6,1.1
				c-3.1,0-5.1-1.7-5.1-6.1c0-4.4,1.9-6.9,5.2-6.9c3,0,4.8,1.9,4.5,6.8H160.2z M165.8,21.2c0-2.4-0.9-3.9-2.7-3.9
				c-1.9,0-2.8,1.8-3,4h5.6V21.2z"/>
			<polygon class="st0" points="244,16.2 244,19.3 243.6,19.3 243.6,16.2 242.7,16.2 242.7,15.9 244.9,15.9 244.9,16.2 			"/>
			<path class="st0" d="M248.5,19.3c0-1.1-0.1-2.2-0.2-2.9h0l-1,2.9H247l-1-2.9h0c-0.1,0.8-0.1,1.9-0.1,2.9h-0.4
				c0-1.2,0.1-2.3,0.3-3.5h0.5l0.9,2.7l0,0l0.9-2.7h0.5c0.1,1.1,0.2,2.4,0.3,3.5H248.5z"/>
		</g>
	</g>
	<linearGradient id="SVGID_1_" gradientUnits="userSpaceOnUse" x1="10.0165" y1="3.5471" x2="33.9835" y2="40.4529">
		<stop  offset="7.411859e-04" style="stop-color:#D6D6D6"/>
		<stop  offset="3.344615e-02" style="stop-color:#E0E0E0"/>
		<stop  offset="8.879401e-02" style="stop-color:#ECEBEB"/>
		<stop  offset="0.1474" style="stop-color:#EFEFEF"/>
		<stop  offset="0.6439" style="stop-color:#EFEFEF"/>
		<stop  offset="0.7257" style="stop-color:#EFEFEF"/>
		<stop  offset="0.7949" style="stop-color:#EAEAEA"/>
		<stop  offset="0.8822" style="stop-color:#DADADA"/>
		<stop  offset="0.979" style="stop-color:#C1C1C1"/>
		<stop  offset="1" style="stop-color:#BABABA"/>
	</linearGradient>
	<circle class="st1" cx="22" cy="22" r="22"/>
	<linearGradient id="SVGID_2_" gradientUnits="userSpaceOnUse" x1="10.4713" y1="37.6468" x2="41.6043" y2="42.2441">
		<stop  offset="0.1005" style="stop-color:#641724"/>
		<stop  offset="0.2125" style="stop-color:#711825"/>
		<stop  offset="0.4195" style="stop-color:#931B26"/>
		<stop  offset="0.5839" style="stop-color:#B31E28"/>
		<stop  offset="1" style="stop-color:#D2202F"/>
	</linearGradient>
	<path class="st2" d="M12.5,33.1c-0.1,2.7-0.6,5.3-1.6,7.9c3.3,1.9,7.1,3,11.1,3c3.1,0,6-0.6,8.7-1.8C26.4,37.7,20,34,12.5,33.1z"/>

		<linearGradient id="SVGID_3_" gradientUnits="userSpaceOnUse" x1="281.0799" y1="-121.3549" x2="308.4899" y2="-121.3549" gradientTransform="matrix(0.9892 0.1464 -0.1464 0.9892 -283.9116 116.0078)">
		<stop  offset="7.921875e-02" style="stop-color:#321724"/>
		<stop  offset="0.1919" style="stop-color:#381724;stop-opacity:0.8776"/>
		<stop  offset="0.3492" style="stop-color:#4B1826;stop-opacity:0.7068"/>
		<stop  offset="0.5326" style="stop-color:#681A28;stop-opacity:0.5076"/>
		<stop  offset="0.7359" style="stop-color:#921D2B;stop-opacity:0.2868"/>
		<stop  offset="0.953" style="stop-color:#C6202E;stop-opacity:5.105895e-02"/>
		<stop  offset="1" style="stop-color:#D2202F;stop-opacity:0"/>
	</linearGradient>
	<path class="st3" d="M12.5,33.1c0,1.4-0.2,2.7-0.5,4.1c0,0,0,0,0,0c5.8,0.4,10.9,2.7,14.9,6.3c1.3-0.3,2.6-0.7,3.8-1.2
		C26.4,37.7,20,34,12.5,33.1z"/>

		<linearGradient id="SVGID_4_" gradientUnits="userSpaceOnUse" x1="287.0209" y1="-103.0611" x2="287.0209" y2="-119.2742" gradientTransform="matrix(0.9892 0.1464 -0.1464 0.9892 -283.9116 116.0078)">
		<stop  offset="0" style="stop-color:#95191D;stop-opacity:0"/>
		<stop  offset="1" style="stop-color:#4A191D"/>
	</linearGradient>
	<path class="st4" d="M12.4,41.8c2.8,1.3,5.9,2.1,9.2,2.2C19.6,40.1,16,38.5,12.4,41.8z"/>
	<linearGradient id="SVGID_5_" gradientUnits="userSpaceOnUse" x1="21.3275" y1="36.4772" x2="36.1436" y2="36.4772">
		<stop  offset="0" style="stop-color:#B59F2C"/>
		<stop  offset="0.8681" style="stop-color:#F0EEC5"/>
	</linearGradient>
	<path class="st5" d="M26.9,30.9c-2.1-0.4-4.2,0.1-5.6,0.8c0,0,0,0,0,0c2.9,1.3,2,2.8,3,5.4c2.4,1.5,4.6,3.2,6.4,5.1
		c1.3-0.6,2.5-1.2,3.7-2c0,0,0,0,0,0C32.3,33.7,29.6,31.4,26.9,30.9z"/>
	<linearGradient id="SVGID_6_" gradientUnits="userSpaceOnUse" x1="14.0924" y1="35.456" x2="23.7624" y2="30.9535">
		<stop  offset="0" style="stop-color:#B59F2C"/>
		<stop  offset="0.8681" style="stop-color:#F0EEC5"/>
	</linearGradient>
	<path class="st6" d="M21.3,31.7C21.3,31.7,21.3,31.7,21.3,31.7c-4.1-1.7-9.1-1.9-9.1-1.9c0.2,1.2,0.2,2,0.2,3.2h0c0,0,0,0,0,0
		c3.9,0.5,7.6,1.7,10.7,3.5c0.4,0.2,0.7,0.4,1.1,0.6C23.4,34.5,24.3,33.1,21.3,31.7z"/>
	<linearGradient id="SVGID_7_" gradientUnits="userSpaceOnUse" x1="10.3108" y1="27.669" x2="35.183" y2="8.9265">
		<stop  offset="0" style="stop-color:#25130E"/>
		<stop  offset="1.692470e-02" style="stop-color:#2A1711"/>
		<stop  offset="0.464" style="stop-color:#AC8864"/>
		<stop  offset="0.66" style="stop-color:#E0B585"/>
		<stop  offset="0.8032" style="stop-color:#E9C08F"/>
		<stop  offset="0.999" style="stop-color:#FBD6A4"/>
	</linearGradient>
	<path class="st7" d="M32.9,10.1c0,0-1.8,0.2-2.6,0.2c-1.4,0-2.5,0.1-2.8,0c0,0,0,0,0,0C25.5,10,23.9,8,23.4,7c0,0,0,0,0,0
		c-0.1-0.1-0.2-0.2-0.3-0.1c-0.2,0.1-0.5,0.2-1,0.5c0,0,0,0,0,0c0,0,0,0,0,0c-0.3,0.1-0.8,0.3-1.3,0.4c-2.1,0.6-4.2,0.7-7.1,2.1
		c-2.9,1.4-5,3.6-6,6.1c-1.9,4.9,0.3,8.4,2.9,10.7c0.9,0.8,1.6,1.9,1.8,3.2l0,0c0-0.1,5,0.1,9,1.9c1.4-0.8,3.4-1.2,5.5-0.8
		c0,0,0,0,0,0c-1.1-2.1-0.1-3.5,0.2-4c0.4-0.6,0.5-0.8,1-1.3c-0.1,0-0.4-0.1-0.5-0.3c0,0,1.3-1.1,2.1-2.5c0,0,0,0,0,0
		C30.4,21.2,31,20,31,20c2-1.9,3.4-3.4,3.8-4.8C36.9,14.6,37.3,9.5,32.9,10.1z"/>
	<linearGradient id="SVGID_8_" gradientUnits="userSpaceOnUse" x1="26.8258" y1="18.7775" x2="4.7809" y2="29.7097">
		<stop  offset="1.362180e-03" style="stop-color:#E0B585;stop-opacity:0"/>
		<stop  offset="0.1042" style="stop-color:#B38F68;stop-opacity:0.1258"/>
		<stop  offset="0.2196" style="stop-color:#89694D;stop-opacity:0.2671"/>
		<stop  offset="0.337" style="stop-color:#654B36;stop-opacity:0.4109"/>
		<stop  offset="0.4548" style="stop-color:#493325;stop-opacity:0.5551"/>
		<stop  offset="0.5733" style="stop-color:#362218;stop-opacity:0.7001"/>
		<stop  offset="0.6928" style="stop-color:#2A1710;stop-opacity:0.8464"/>
		<stop  offset="0.815" style="stop-color:#26140E;stop-opacity:0.996"/>
		<stop  offset="1" style="stop-color:#25130E"/>
	</linearGradient>
	<path class="st8" d="M29.7,22.7C29.7,22.7,29.7,22.7,29.7,22.7c-0.7,1.3-2,2.5-2.1,2.6c0,0,0,0,0,0c0,0,0,0,0,0c0,0,0,0,0,0
		c0.1,0.2,0.3,0.2,0.5,0.3c-0.5,0.5-0.6,0.7-1,1.3c-0.3,0.5-1.3,1.9-0.2,4l0,0c0,0,0,0,0,0c0,0,0,0,0,0c0,0,0,0,0,0c0,0,0,0,0,0
		c0,0,0,0-0.1,0c0,0,0,0-0.1,0l0,0c0,0-0.1,0-0.1,0c0,0,0,0,0,0c0,0-0.1,0-0.1,0c-0.1,0-0.1,0-0.2,0c0,0,0,0,0,0c0,0-0.1,0-0.1,0
		c-0.1,0-0.2,0-0.3,0c-0.7,0-1.4,0-2,0.1c0,0,0,0,0,0c-0.1,0-0.2,0-0.3,0.1c-0.3,0.1-0.7,0.2-1,0.3c0,0,0,0,0,0
		c-0.2,0.1-0.3,0.1-0.5,0.2c-0.1,0-0.2,0.1-0.2,0.1l0,0l0,0c-0.1,0-0.2,0.1-0.2,0.1c0,0,0,0,0,0c-0.1,0-0.1,0.1-0.2,0.1
		c-0.1,0-0.2-0.1-0.3-0.1c0,0,0,0,0,0c0,0,0,0,0,0c-0.1,0-0.2-0.1-0.3-0.1c0,0,0,0,0,0c0,0,0,0-0.1,0l0,0c-0.1,0-0.2-0.1-0.2-0.1
		c0,0-0.1,0-0.1,0c0,0,0,0,0,0c-0.1,0-0.2-0.1-0.3-0.1c0,0,0,0,0,0c0,0,0,0,0,0c-0.1,0-0.2-0.1-0.3-0.1c0,0,0,0,0,0c0,0,0,0-0.1,0
		l0,0C19.4,31,19.2,31,19,30.9l0,0c0,0,0,0-0.1,0c0,0,0,0,0,0c-0.1,0-0.2-0.1-0.3-0.1c0,0,0,0,0,0c0,0,0,0,0,0c0,0,0,0,0,0
		c0,0,0,0,0,0c0,0,0,0,0,0c-0.1,0-0.2,0-0.3-0.1l0,0c0,0,0,0,0,0c-0.1,0-0.2-0.1-0.3-0.1c0,0,0,0,0,0c0,0,0,0-0.1,0
		c-0.1,0-0.2,0-0.3-0.1c0,0,0,0,0,0c0,0,0,0,0,0c-0.1,0-0.2,0-0.3-0.1c0,0,0,0,0,0c0,0,0,0,0,0c-0.3-0.1-0.6-0.1-0.9-0.2l0,0
		c0,0,0,0,0,0c0,0,0,0,0,0c-0.1,0-0.2,0-0.3,0c0,0,0,0,0,0c0,0,0,0,0,0c0,0,0,0,0,0c-0.1,0-0.2,0-0.3,0c0,0,0,0,0,0c0,0,0,0,0,0
		c-0.1,0-0.1,0-0.2,0l0,0c0,0,0,0,0,0c-0.1,0-0.1,0-0.2,0c0,0,0,0,0,0c0,0,0,0-0.1,0c0,0,0,0,0,0c0,0-0.1,0-0.1,0c0,0,0,0,0,0
		c0,0,0,0-0.1,0c0,0,0,0,0,0c-0.1,0-0.1,0-0.2,0c0,0,0,0,0,0c0,0,0,0,0,0c-0.1,0-0.1,0-0.2,0c0,0,0,0,0,0c0,0,0,0,0,0
		c-0.1,0-0.1,0-0.2,0h0c0,0,0,0,0,0c-0.1,0-0.2,0-0.4,0c0,0,0,0,0,0c0,0,0,0,0,0c0,0,0,0,0,0c-0.1,0-0.1,0-0.2,0c0,0,0,0,0,0
		c0,0,0,0,0,0c0,0-0.1,0-0.1,0c0,0,0,0,0,0c0,0,0,0,0,0c0,0,0,0,0,0c0,0-0.1,0-0.1,0c0,0,0,0,0,0c0,0,0,0,0,0c0,0-0.1,0-0.1,0
		c0,0,0,0,0,0c0,0,0,0,0,0c0,0,0,0,0,0c-0.1,0-0.1,0-0.2,0c0,0,0,0,0,0c0,0,0,0,0,0c-0.1,0-0.1,0-0.2,0c0,0,0,0,0,0c0,0,0,0,0,0
		c0,0-0.1,0-0.1,0c0,0,0,0,0,0c0,0,0,0,0,0c0,0,0,0-0.1,0c0,0-0.1,0-0.1,0c0,0,0,0,0,0c0,0,0,0,0,0c0,0,0,0,0,0c0,0,0,0-0.1,0
		c0,0,0,0,0,0c0,0,0,0,0,0c0,0,0,0-0.1,0c0,0,0,0,0,0c0,0,0,0,0,0c0,0,0,0,0,0c0,0,0,0,0,0c0,0,0,0,0,0c0,0,0,0,0,0c0,0,0,0,0,0
		c0,0,0,0,0,0c0,0,0,0,0,0c0,0,0,0,0,0c0,0,0,0-0.1,0c0,0,0,0,0,0c0,0,0,0,0,0c0,0,0,0,0,0c0,0,0,0,0,0h0c0,0,0,0,0,0c0,0,0,0,0,0
		c0,0,0,0,0,0c0,0,0,0,0,0c0,0,0,0,0,0c0,0,0,0,0,0c0,0,0,0,0,0c0,0,0,0,0,0l0,0c0,0,0,0,0,0l0,0c0-0.1,0-0.1,0-0.2
		c0-0.1,0-0.2-0.1-0.2c0,0,0,0,0,0c0-0.2-0.1-0.3-0.2-0.5l0,0c0,0,0,0,0,0l0,0c-0.1-0.2-0.2-0.4-0.3-0.7l0-0.1l0-0.1
		c0-0.1,0-0.1-0.1-0.1v0l0,0c-0.1-0.1-0.1-0.2-0.2-0.3c0,0,0,0,0,0c0,0,0,0,0,0l0,0c0-0.1-0.1-0.1-0.1-0.2l0,0
		c-0.1-0.2-0.2-0.3-0.4-0.4l0,0c0,0,0,0,0,0c-0.1-0.1-0.1-0.1-0.2-0.2c0,0,0,0,0,0c-0.1-0.1-0.2-0.2-0.3-0.3c0,0,0,0,0,0
		c0,0,0,0,0,0c-0.1-0.1-0.2-0.2-0.3-0.3c0,0,0,0,0,0c0,0,0,0,0,0c-0.1-0.1-0.2-0.2-0.3-0.3c0,0,0,0,0,0c0,0,0,0,0,0c0,0,0,0,0,0
		c-0.1-0.1-0.2-0.2-0.3-0.3c0,0,0,0,0,0c-0.1-0.1-0.2-0.2-0.3-0.3c0,0,0,0,0,0c0,0,0,0,0,0c0,0,0,0,0,0c-0.1-0.1-0.1-0.2-0.2-0.2
		c0,0,0,0,0,0c-1.1-1.3-1.9-2.8-2.1-4.7c-0.1-1.2,0-2.5,0.5-3.9c0,0,0,0,0,0c0,0,0,0,0,0c0-0.1,0.1-0.2,0.1-0.3c0,0,0,0,0,0
		c-0.7,7.3,3.8,8.6,8.5,8.1c-0.3,0.3-0.6,0.6-1,0.8c0,0,0,0.1,0,0.1c1.3,0.2,2.5-0.3,3.7-0.8c-0.2,0.3-0.5,0.6-0.8,0.9
		c0,0,0,0.1,0,0.1c1.7,0,3.1-1.1,4.4-2.1c-0.1,0.2-0.1,0.4-0.2,0.6c0,0,0,0.1,0.1,0.1c1.2-0.4,2.2-1.2,2.9-2.1l0,0
		c0.7-1.1,2.2-1.2,3.2-0.4L29.7,22.7z"/>
	<linearGradient id="SVGID_9_" gradientUnits="userSpaceOnUse" x1="9.4061" y1="16.4195" x2="16.6601" y2="17.5467">
		<stop  offset="6.959134e-02" style="stop-color:#25130E"/>
		<stop  offset="0.3321" style="stop-color:#351C13;stop-opacity:0.7824"/>
		<stop  offset="0.7937" style="stop-color:#5A321E;stop-opacity:0.4"/>
	</linearGradient>
	<path class="st9" d="M13.1,18.5c-0.4-0.5-0.7-1.2-0.6-1.9c-0.2,0.1-0.4,0.2-0.6,0.4c0,0-0.1,0-0.1,0c0-0.7,0.4-1.2,0.6-1.8
		c-0.3,0-0.6,0.1-0.9,0.2c0,0-0.1,0-0.1-0.1c0.7-1,1.9-1.7,3-2.1c0,0,0,0,0-0.1c0.1-0.2,0.1-0.3,0.1-0.4l0,0c-0.3-1.3-3-0.2-4.3,1.3
		c-1.2,1.4-1.5,3.3-1.1,4.9c0.4,1.6,1.5,2.9,3,3.1c0.3,0,0.7,0,1-0.1l0,0c0.2-0.1,0.5-0.1,0.7-0.3c0.7-0.4,1.2-1.3,0.9-2.1
		C14.2,19.2,13.5,19.1,13.1,18.5z"/>
	<linearGradient id="SVGID_10_" gradientUnits="userSpaceOnUse" x1="28.1844" y1="15.1847" x2="36.1515" y2="11.8325">
		<stop  offset="0.2093" style="stop-color:#E0B585;stop-opacity:0.2"/>
		<stop  offset="0.2255" style="stop-color:#DDB283;stop-opacity:0.2164"/>
		<stop  offset="0.4658" style="stop-color:#AC8461;stop-opacity:0.4589"/>
		<stop  offset="0.6768" style="stop-color:#886249;stop-opacity:0.672"/>
		<stop  offset="0.8486" style="stop-color:#724E3A;stop-opacity:0.8454"/>
		<stop  offset="0.9596" style="stop-color:#6A4634;stop-opacity:0.9575"/>
	</linearGradient>
	<path class="st10" d="M36.3,12.6c0-0.1,0-0.2,0-0.2c0-0.1,0-0.1,0-0.2c0,0,0-0.1,0-0.1c0-0.2-0.1-0.4-0.2-0.6
		c-0.1-0.1-0.1-0.2-0.2-0.3c0-0.1-0.1-0.1-0.1-0.2c0,0-0.1-0.1-0.1-0.1c-0.1-0.1-0.2-0.2-0.3-0.2c-0.1-0.1-0.1-0.1-0.2-0.1
		c-0.5-0.3-1.3-0.4-2.2-0.3c0,0-1.8,0.2-2.6,0.2c0,0,0,0,0,0c-1.1,0-2.1,0.1-2.6,0.1c-0.1,0-0.2,0-0.3,0c2.6,0.8-1.6,7.4,5,8.2
		c0.8-0.9,1.5-1.6,1.9-2.4c0,0,0,0,0,0c0-0.1,0.1-0.1,0.1-0.2c0,0,0,0,0,0c0-0.1,0.1-0.1,0.1-0.2c0,0,0,0,0,0c0-0.1,0.1-0.1,0.1-0.2
		c0,0,0,0,0,0c0-0.1,0-0.1,0.1-0.2c0,0,0,0,0,0c0-0.1,0-0.1,0.1-0.2h0v0c0,0,0,0,0.1,0c0,0,0,0,0.1,0c0.1,0,0.1-0.1,0.2-0.1
		c0,0,0.1,0,0.1-0.1c0,0,0,0,0.1,0c0.1-0.1,0.1-0.1,0.2-0.2c0,0,0,0,0,0c0.3-0.3,0.5-0.7,0.7-1.2C36.3,13.3,36.3,12.9,36.3,12.6z"/>
	<linearGradient id="SVGID_11_" gradientUnits="userSpaceOnUse" x1="17.7286" y1="10.9368" x2="27.9042" y2="10.9368">
		<stop  offset="0" style="stop-color:#5A321E;stop-opacity:0.1"/>
		<stop  offset="0.2039" style="stop-color:#4D2A19;stop-opacity:0.3356"/>
		<stop  offset="0.4877" style="stop-color:#412315;stop-opacity:0.6635"/>
		<stop  offset="0.7789" style="stop-color:#3D2114"/>
	</linearGradient>
	<path class="st11" d="M18.5,10.7c0.2,0,0.3,0,0.5,0c0,0,0.1,0,0.1,0.1c-0.5,1-0.9,1.9-0.7,2.9c0.1,0.4,0.2,0.9,0.4,1.3
		c0,0.1,0.1,0.1,0.2,0.1c0,0,0,0,0,0c0.8-3.5,7.3-1.4,8.5-4.7C25.5,10,23.9,8,23.4,7c0,0,0,0,0,0c-0.1-0.1-0.2-0.2-0.3-0.1
		c-0.2,0.1-0.5,0.2-1,0.5c0,0,0,0,0,0c0,0,0,0,0,0c-0.1,0.1-0.3,0.1-0.4,0.2C20.2,8.1,19.1,9.4,18.5,10.7z"/>
	<linearGradient id="SVGID_12_" gradientUnits="userSpaceOnUse" x1="21.0566" y1="11.5609" x2="25.4275" y2="11.5609">
		<stop  offset="1.362180e-03" style="stop-color:#5A321E;stop-opacity:0.1"/>
		<stop  offset="0.3025" style="stop-color:#452618;stop-opacity:0.281"/>
		<stop  offset="0.733" style="stop-color:#2E1810;stop-opacity:0.5396"/>
		<stop  offset="1" style="stop-color:#25130E;stop-opacity:0.7"/>
	</linearGradient>
	<path class="st12" d="M23.5,10.1c-1.2,0.1-1.7,2.5-2.5,3h0c1.3-0.4,3-0.5,4.4-0.9C25.6,10.6,24.6,9.9,23.5,10.1z"/>
	<linearGradient id="SVGID_13_" gradientUnits="userSpaceOnUse" x1="22.5313" y1="11.9774" x2="24.8511" y2="11.9774">
		<stop  offset="0" style="stop-color:#25130E;stop-opacity:0.2"/>
		<stop  offset="1" style="stop-color:#25130E"/>
	</linearGradient>
	<path class="st13" d="M23.9,11.2c-0.6,0-1,1.2-1.4,1.5c0.8-0.1,1.6-0.3,2.3-0.4c0,0,0,0,0,0C24.9,11.5,24.4,11.2,23.9,11.2z"/>

		<radialGradient id="SVGID_14_" cx="34.241" cy="13.1934" r="11.7373" gradientTransform="matrix(0.9816 -0.191 0.1382 0.7102 -1.1929 10.3633)" gradientUnits="userSpaceOnUse">
		<stop  offset="0.3851" style="stop-color:#47210E"/>
		<stop  offset="0.5308" style="stop-color:#4A2410;stop-opacity:0.763"/>
		<stop  offset="0.6298" style="stop-color:#532C17;stop-opacity:0.602"/>
		<stop  offset="0.7149" style="stop-color:#623B23;stop-opacity:0.4636"/>
		<stop  offset="0.7922" style="stop-color:#785034;stop-opacity:0.3379"/>
		<stop  offset="0.8642" style="stop-color:#936B49;stop-opacity:0.2208"/>
		<stop  offset="0.9321" style="stop-color:#B68C64;stop-opacity:0.1105"/>
		<stop  offset="0.9959" style="stop-color:#DDB383;stop-opacity:6.687582e-03"/>
		<stop  offset="1" style="stop-color:#E0B585;stop-opacity:0"/>
	</radialGradient>
	<path class="st14" d="M29,22.4c0.4,0.2,0.8,0,1-0.4c0,0,0,0,0,0c0,0,0,0,0,0c0-0.1,0-0.1,0.1-0.1c0,0,0,0,0,0
		c0.1-0.2,0.1-0.3,0.2-0.5c0,0,0,0,0,0C30.7,20.6,31,20,31,20l0,0c2-1.9,3.4-3.4,3.8-4.8c0,0,0,0,0,0l0,0c-4.4,2.8-8.5-0.1-11,1.7
		c-0.1,0-0.2,0.2-0.3,0.3c-0.9,0.9-0.7,2.5,0.5,3L29,22.4z"/>
	<linearGradient id="SVGID_15_" gradientUnits="userSpaceOnUse" x1="33.1027" y1="12.5558" x2="36.5063" y2="10.662">
		<stop  offset="0.1397" style="stop-color:#5A321E;stop-opacity:0.3"/>
		<stop  offset="0.2342" style="stop-color:#532E1C;stop-opacity:0.3659"/>
		<stop  offset="0.7296" style="stop-color:#311A12;stop-opacity:0.7114"/>
		<stop  offset="1" style="stop-color:#25130E;stop-opacity:0.9"/>
	</linearGradient>
	<path class="st15" d="M33,10.1L33,10.1c-0.1,0.2-0.1,0.3-0.2,0.4c0,0,0,0,0,0c0.1,0.1,0.3,0.2,0.4,0.2c0.2,0.1,0.3,0.2,0.4,0.3
		c0.1,0.1,0.1,0.2,0.2,0.4c0,0.1,0,0.1,0.1,0.1c1.1,0.3,2.6,0.5,2.4,1.7C36.6,11.7,35.8,9.8,33,10.1z"/>
</g>
</svg>
