<svg xmlns="http://www.w3.org/2000/svg" width="44" height="44"><linearGradient id="a" gradientUnits="userSpaceOnUse" x1="10.017" y1="3.547" x2="33.983" y2="40.453"><stop offset=".001" stop-color="#d6d6d6"/><stop offset=".033" stop-color="#e0e0e0"/><stop offset=".089" stop-color="#ecebeb"/><stop offset=".147" stop-color="#efefef"/><stop offset=".644" stop-color="#efefef"/><stop offset=".726" stop-color="#efefef"/><stop offset=".795" stop-color="#eaeaea"/><stop offset=".882" stop-color="#dadada"/><stop offset=".979" stop-color="#c1c1c1"/><stop offset="1" stop-color="#bababa"/></linearGradient><circle cx="22" cy="22" r="22" fill="url(#a)"/><linearGradient id="b" gradientUnits="userSpaceOnUse" x1="10.471" y1="37.647" x2="41.604" y2="42.244"><stop offset=".101" stop-color="#641724"/><stop offset=".212" stop-color="#711825"/><stop offset=".419" stop-color="#931b26"/><stop offset=".584" stop-color="#b31e28"/><stop offset="1" stop-color="#d2202f"/></linearGradient><path d="M12.5 33.1c-.1 2.7-.6 5.3-1.6 7.9 3.3 1.9 7.1 3 11.1 3 3.1 0 6-.6 8.7-1.8-4.3-4.5-10.7-8.2-18.2-9.1z" fill="url(#b)"/><linearGradient id="c" gradientUnits="userSpaceOnUse" x1="7.075" y1="-59.339" x2="34.486" y2="-59.339" gradientTransform="rotate(8.419 -645.69 21.693)"><stop offset=".079" stop-color="#321724"/><stop offset=".192" stop-color="#381724" stop-opacity=".878"/><stop offset=".349" stop-color="#4b1826" stop-opacity=".707"/><stop offset=".533" stop-color="#681a28" stop-opacity=".508"/><stop offset=".736" stop-color="#921d2b" stop-opacity=".287"/><stop offset=".953" stop-color="#c6202e" stop-opacity=".051"/><stop offset="1" stop-color="#d2202f" stop-opacity="0"/></linearGradient><path d="M12.5 33.1c0 1.4-.2 2.7-.5 4.1 5.8.4 10.9 2.7 14.9 6.3 1.3-.3 2.6-.7 3.8-1.2-4.3-4.6-10.7-8.3-18.2-9.2z" opacity=".55" fill="url(#c)"/><linearGradient id="d" gradientUnits="userSpaceOnUse" x1="13.017" y1="-41.046" x2="13.017" y2="-57.259" gradientTransform="rotate(8.419 -645.69 21.693)"><stop offset="0" stop-color="#95191d" stop-opacity="0"/><stop offset="1" stop-color="#4a191d"/></linearGradient><path d="M12.4 41.8c2.8 1.3 5.9 2.1 9.2 2.2-2-3.9-5.6-5.5-9.2-2.2z" fill="url(#d)"/><linearGradient id="e" gradientUnits="userSpaceOnUse" x1="21.328" y1="36.477" x2="36.144" y2="36.477"><stop offset="0" stop-color="#b59f2c"/><stop offset=".868" stop-color="#f0eec5"/></linearGradient><path d="M26.9 30.9c-2.1-.4-4.2.1-5.6.8 2.9 1.3 2 2.8 3 5.4 2.4 1.5 4.6 3.2 6.4 5.1 1.3-.6 2.5-1.2 3.7-2-2.1-6.5-4.8-8.8-7.5-9.3z" fill="url(#e)"/><linearGradient id="f" gradientUnits="userSpaceOnUse" x1="14.092" y1="35.456" x2="23.762" y2="30.953"><stop offset="0" stop-color="#b59f2c"/><stop offset=".868" stop-color="#f0eec5"/></linearGradient><path d="M21.3 31.7c-4.1-1.7-9.1-1.9-9.1-1.9.2 1.2.2 2 .2 3.2 3.9.5 7.6 1.7 10.7 3.5.4.2.7.4 1.1.6-.8-2.6.1-4-2.9-5.4z" fill="url(#f)"/><linearGradient id="g" gradientUnits="userSpaceOnUse" x1="10.311" y1="27.669" x2="35.183" y2="8.927"><stop offset="0" stop-color="#25130e"/><stop offset=".017" stop-color="#2a1711"/><stop offset=".464" stop-color="#ac8864"/><stop offset=".66" stop-color="#e0b585"/><stop offset=".803" stop-color="#e9c08f"/><stop offset=".999" stop-color="#fbd6a4"/></linearGradient><path d="M32.9 10.1s-1.8.2-2.6.2c-1.4 0-2.5.1-2.8 0-2-.3-3.6-2.3-4.1-3.3-.1-.1-.2-.2-.3-.1-.2.1-.5.2-1 .5-.3.1-.8.3-1.3.4-2.1.6-4.2.7-7.1 2.1-2.9 1.4-5 3.6-6 6.1-1.9 4.9.3 8.4 2.9 10.7.9.8 1.6 1.9 1.8 3.2 0-.1 5 .1 9 1.9 1.4-.8 3.4-1.2 5.5-.8-1.1-2.1-.1-3.5.2-4 .4-.6.5-.8 1-1.3-.1 0-.4-.1-.5-.3 0 0 1.3-1.1 2.1-2.5.7-1.7 1.3-2.9 1.3-2.9 2-1.9 3.4-3.4 3.8-4.8 2.1-.6 2.5-5.7-1.9-5.1z" fill="url(#g)"/><linearGradient id="h" gradientUnits="userSpaceOnUse" x1="26.826" y1="18.777" x2="4.781" y2="29.71"><stop offset=".001" stop-color="#e0b585" stop-opacity="0"/><stop offset=".104" stop-color="#b38f68" stop-opacity=".126"/><stop offset=".22" stop-color="#89694d" stop-opacity=".267"/><stop offset=".337" stop-color="#654b36" stop-opacity=".411"/><stop offset=".455" stop-color="#493325" stop-opacity=".555"/><stop offset=".573" stop-color="#362218" stop-opacity=".7"/><stop offset=".693" stop-color="#2a1710" stop-opacity=".846"/><stop offset=".815" stop-color="#26140e" stop-opacity=".996"/><stop offset="1" stop-color="#25130e"/></linearGradient><path d="M29.7 22.7c-.7 1.3-2 2.5-2.1 2.6.1.2.3.2.5.3-.5.5-.6.7-1 1.3-.3.5-1.3 1.9-.2 4h-.1-.1-.1H26.3h-.4c-.7 0-1.4 0-2 .1-.1 0-.2 0-.3.1-.3.1-.7.2-1 .3-.2.1-.3.1-.5.2-.1 0-.2.1-.2.1-.1 0-.2.1-.2.1-.1 0-.1.1-.2.1s-.2-.1-.3-.1c-.1 0-.2-.1-.3-.1h-.1c-.1 0-.2-.1-.2-.1h-.1c-.1 0-.2-.1-.3-.1-.1 0-.2-.1-.3-.1h-.1c-.4-.4-.6-.4-.8-.5h-.1c-.1 0-.2-.1-.3-.1-.1 0-.2 0-.3-.1-.1 0-.2-.1-.3-.1h-.1c-.1 0-.2 0-.3-.1-.1 0-.2 0-.3-.1-.3-.1-.6-.1-.9-.2h-1-.1-.1-1.3-.1-.1-.5-.1-.1-.1-.1-.1-.1V30c0-.1 0-.2-.1-.2 0-.2-.1-.3-.2-.5s-.2-.4-.3-.7v-.2c0-.1 0-.1-.1-.1-.1-.1-.1-.2-.2-.3 0-.1-.1-.1-.1-.2-.1-.2-.2-.3-.4-.4l-.2-.2-.3-.3-.3-.3-.3-.3-.3-.3-.3-.3c-.1-.1-.1-.2-.2-.2-1.1-1.3-1.9-2.8-2.1-4.7-.1-1.2 0-2.5.5-3.9 0-.1.1-.2.1-.3-.7 7.3 3.8 8.6 8.5 8.1-.3.3-.6.6-1 .8v.1c1.3.2 2.5-.3 3.7-.8-.2.3-.5.6-.8.9v.1c1.7 0 3.1-1.1 4.4-2.1-.1.2-.1.4-.2.6 0 0 0 .1.1.1 1.2-.4 2.2-1.2 2.9-2.1.7-1.1 2.2-1.2 3.2-.4l1.1.8z" fill="url(#h)"/><linearGradient id="i" gradientUnits="userSpaceOnUse" x1="9.406" y1="16.419" x2="16.66" y2="17.547"><stop offset=".07" stop-color="#25130e"/><stop offset=".332" stop-color="#351c13" stop-opacity=".782"/><stop offset=".794" stop-color="#5a321e" stop-opacity=".4"/></linearGradient><path d="M13.1 18.5c-.4-.5-.7-1.2-.6-1.9-.2.1-.4.2-.6.4h-.1c0-.7.4-1.2.6-1.8-.3 0-.6.1-.9.2 0 0-.1 0-.1-.1.7-1 1.9-1.7 3-2.1v-.1c.1-.2.1-.3.1-.4-.3-1.3-3-.2-4.3 1.3-1.2 1.4-1.5 3.3-1.1 4.9.4 1.6 1.5 2.9 3 3.1.3 0 .7 0 1-.1.2-.1.5-.1.7-.3.7-.4 1.2-1.3.9-2.1-.5-.3-1.2-.4-1.6-1z" fill="url(#i)"/><linearGradient id="j" gradientUnits="userSpaceOnUse" x1="28.184" y1="15.185" x2="36.151" y2="11.832"><stop offset=".209" stop-color="#e0b585" stop-opacity=".2"/><stop offset=".226" stop-color="#ddb283" stop-opacity=".216"/><stop offset=".466" stop-color="#ac8461" stop-opacity=".459"/><stop offset=".677" stop-color="#886249" stop-opacity=".672"/><stop offset=".849" stop-color="#724e3a" stop-opacity=".845"/><stop offset=".96" stop-color="#6a4634" stop-opacity=".958"/></linearGradient><path d="M36.3 12.6v-.2-.2-.1c0-.2-.1-.4-.2-.6-.1-.1-.1-.2-.2-.3 0-.1-.1-.1-.1-.2l-.1-.1c-.1-.1-.2-.2-.3-.2-.1-.1-.1-.1-.2-.1-.5-.3-1.3-.4-2.2-.3 0 0-1.8.2-2.6.2-1.1 0-2.1.1-2.6.1h-.3c2.6.8-1.6 7.4 5 8.2.8-.9 1.5-1.6 1.9-2.4 0-.1.1-.1.1-.2s.1-.1.1-.2.1-.1.1-.2 0-.1.1-.2c0-.1 0-.1.1-.2h.2c.1 0 .1-.1.2-.1 0 0 .1 0 .1-.1h.1l.2-.2c.3-.3.5-.7.7-1.2-.1-.5-.1-.9-.1-1.2z" opacity=".71" fill="url(#j)"/><linearGradient id="k" gradientUnits="userSpaceOnUse" x1="17.729" y1="10.937" x2="27.904" y2="10.937"><stop offset="0" stop-color="#5a321e" stop-opacity=".1"/><stop offset=".204" stop-color="#4d2a19" stop-opacity=".336"/><stop offset=".488" stop-color="#412315" stop-opacity=".663"/><stop offset=".779" stop-color="#3d2114"/></linearGradient><path d="M18.5 10.7h.5s.1 0 .1.1c-.5 1-.9 1.9-.7 2.9.1.4.2.9.4 1.3 0 .1.1.1.2.1.8-3.5 7.3-1.4 8.5-4.7-2-.4-3.6-2.4-4.1-3.4-.1-.1-.2-.2-.3-.1-.2.1-.5.2-1 .5-.1.1-.3.1-.4.2-1.5.5-2.6 1.8-3.2 3.1z" opacity=".83" fill="url(#k)"/><linearGradient id="l" gradientUnits="userSpaceOnUse" x1="21.057" y1="11.561" x2="25.427" y2="11.561"><stop offset=".001" stop-color="#5a321e" stop-opacity=".1"/><stop offset=".302" stop-color="#452618" stop-opacity=".281"/><stop offset=".733" stop-color="#2e1810" stop-opacity=".54"/><stop offset="1" stop-color="#25130e" stop-opacity=".7"/></linearGradient><path d="M23.5 10.1c-1.2.1-1.7 2.5-2.5 3 1.3-.4 3-.5 4.4-.9.2-1.6-.8-2.3-1.9-2.1z" fill="url(#l)"/><linearGradient id="m" gradientUnits="userSpaceOnUse" x1="22.531" y1="11.977" x2="24.851" y2="11.977"><stop offset="0" stop-color="#25130e" stop-opacity=".2"/><stop offset="1" stop-color="#25130e"/></linearGradient><path d="M23.9 11.2c-.6 0-1 1.2-1.4 1.5.8-.1 1.6-.3 2.3-.4.1-.8-.4-1.1-.9-1.1z" fill="url(#m)"/><radialGradient id="n" cx="34.241" cy="13.193" r="11.737" gradientTransform="matrix(.9816 -.191 .1382 .7102 -1.193 10.363)" gradientUnits="userSpaceOnUse"><stop offset=".385" stop-color="#47210e"/><stop offset=".531" stop-color="#4a2410" stop-opacity=".763"/><stop offset=".63" stop-color="#532c17" stop-opacity=".602"/><stop offset=".715" stop-color="#623b23" stop-opacity=".464"/><stop offset=".792" stop-color="#785034" stop-opacity=".338"/><stop offset=".864" stop-color="#936b49" stop-opacity=".221"/><stop offset=".932" stop-color="#b68c64" stop-opacity=".111"/><stop offset=".996" stop-color="#ddb383" stop-opacity=".007"/><stop offset="1" stop-color="#e0b585" stop-opacity="0"/></radialGradient><path d="M29 22.4c.4.2.8 0 1-.4 0-.1 0-.1.1-.1.1-.2.1-.3.2-.5L31 20c2-1.9 3.4-3.4 3.8-4.8-4.4 2.8-8.5-.1-11 1.7-.1 0-.2.2-.3.3-.9.9-.7 2.5.5 3l5 2.2z" opacity=".8" fill="url(#n)"/><linearGradient id="o" gradientUnits="userSpaceOnUse" x1="33.103" y1="12.556" x2="36.506" y2="10.662"><stop offset=".14" stop-color="#5a321e" stop-opacity=".3"/><stop offset=".234" stop-color="#532e1c" stop-opacity=".366"/><stop offset=".73" stop-color="#311a12" stop-opacity=".711"/><stop offset="1" stop-color="#25130e" stop-opacity=".9"/></linearGradient><path d="M33 10.1c-.1.2-.1.3-.2.4.1.1.3.2.4.2.2.1.3.2.4.3.1.1.1.2.2.4 0 .1 0 .1.1.1 1.1.3 2.6.5 2.4 1.7.3-1.5-.5-3.4-3.3-3.1z" fill="url(#o)"/></svg>
