<svg width="118" height="32" viewBox="0 0 118 32" fill="none" xmlns="http://www.w3.org/2000/svg">
<g clip-path="url(#clip0_10511_294)">
<g clip-path="url(#clip1_10511_294)">
<path d="M70.501 13.4827C70.1774 13.4821 69.8542 13.4629 69.5326 13.4253V15.1677H67.1763V3.68123H69.0947L69.2772 4.65755C70.0266 3.95023 70.9037 3.47095 71.816 3.47095C74.0095 3.47095 75.0743 5.53829 75.0743 8.08355C75.0743 11.8741 73.1363 13.4827 70.5049 13.4827M71.1631 5.36487C70.7252 5.36487 70.1204 5.63797 69.5366 6.16914V11.53C69.8874 11.6662 70.2599 11.7311 70.6339 11.7212C71.8199 11.7212 72.6619 10.7066 72.6619 8.42902C72.6619 6.45726 72.0949 5.36487 71.1631 5.36487Z" fill="white"/>
<path d="M39.5223 13.7215C37.0538 13.7215 35.8 12.0747 35.8 8.7429C35.8 5.62823 37.3523 3.49261 39.8025 3.49261C40.9246 3.49261 41.8226 3.92411 42.4964 4.72155L41.6545 6.01466C41.2348 5.59961 40.6794 5.36852 40.1022 5.36879C38.9983 5.36879 38.288 6.42704 38.288 8.48346C38.288 10.8744 38.9045 11.8152 39.9902 11.8152C40.7383 11.8152 41.3547 11.5599 41.9725 10.9959L42.7023 12.2891C42.2952 12.7446 41.8025 13.1068 41.2552 13.3531C40.7079 13.5994 40.1179 13.7243 39.5223 13.7201" fill="white"/>
<path d="M47.0966 13.7477C44.5161 13.7477 42.9639 12.4341 42.9639 8.83192C42.9639 5.22977 44.7038 3.50653 47.4902 3.50653C50.0708 3.50653 51.623 4.82013 51.623 8.40589C51.623 12.0504 49.8831 13.7545 47.0966 13.7545M47.2661 5.36769C46.1622 5.36769 45.4323 6.17059 45.4323 8.40589C45.4323 11.1683 46.084 11.892 47.3221 11.892C48.4247 11.892 49.1545 11.0904 49.1545 8.85513C49.1545 6.09276 48.482 5.36769 47.2661 5.36769Z" fill="white"/>
<path d="M65.7045 13.5248H63.2921C63.2921 11.5462 63.3481 9.52805 63.3481 8.39197C63.3481 6.04061 62.9363 5.5108 62.1321 5.5108C61.646 5.5108 60.9735 5.88358 60.3557 6.3929C60.4289 6.87872 60.4603 7.37045 60.4496 7.86216V13.5248H58.0554V8.39197C58.0554 6.07884 57.6436 5.5108 56.859 5.5108C56.4106 5.5108 55.7916 5.8235 55.1764 6.31507V13.5248H52.7627V3.70836H54.7411L54.9092 4.74613C55.6573 4.02106 56.6113 3.49261 57.6774 3.49261C58.8374 3.49261 59.6037 4.10025 59.9595 4.90316C60.8575 4.06066 61.8284 3.49261 62.9571 3.49261C64.7895 3.49261 65.7618 4.74613 65.7618 7.92088C65.7618 9.13479 65.7058 11.3701 65.7058 13.5194" fill="white"/>
<path d="M81.8499 13.5248L81.6818 12.5253C80.8776 13.2504 80.0175 13.7406 78.821 13.7406C76.9325 13.7406 75.9225 12.7602 75.9225 10.9386C75.9225 8.89993 77.4734 7.54947 80.7447 7.54947H81.3247V6.80391C81.3247 5.80438 80.7812 5.31417 79.5848 5.31417C78.6125 5.31417 77.5842 5.58727 76.7423 5.90269L76.4243 4.37472C77.6115 3.80739 78.899 3.5069 80.2038 3.49261C82.598 3.49261 83.7019 4.68741 83.7019 6.54857V13.5248H81.8499ZM81.3286 9.07744H80.617C78.7845 9.07744 78.2788 9.72332 78.2788 10.6245C78.2788 11.4438 78.7089 11.9572 79.5326 11.9572C80.1126 11.9572 80.7486 11.6241 81.3286 11.0956V9.07744Z" fill="white"/>
<path d="M90.4268 5.94268C90.1605 5.85535 89.8834 5.80935 89.6044 5.80613C89.0831 5.80613 88.6321 6.17891 87.7902 7.29588V13.5266H85.3778V3.70875H87.3601L87.5478 5.23673C88.5005 3.9245 89.1365 3.51349 89.8103 3.51349C90.1259 3.51373 90.4375 3.58742 90.7226 3.72923L90.4268 5.94268Z" fill="white"/>
<path d="M93.1226 9.11581V9.25235C93.1226 11.0548 93.8889 11.8195 95.217 11.8195C96.2573 11.7996 97.2883 11.6084 98.2719 11.2528L98.6082 12.7016C97.4214 13.3682 96.0994 13.7269 94.753 13.7475C92.2767 13.7475 90.6763 12.4735 90.6763 8.88777C90.6763 5.37984 92.2832 3.49957 94.9211 3.49957C97.3153 3.49957 98.9053 4.91012 98.6616 9.12263L93.1226 9.11581ZM96.3378 7.51C96.3378 5.94242 95.8165 5.17775 94.8051 5.17775C93.7938 5.17775 93.2151 6.17729 93.1408 7.5496H96.3378V7.51Z" fill="white"/>
<path d="M72.5667 27.9595H70.1529C70.1529 25.9809 70.2103 23.9627 70.2103 22.8266C70.2103 20.4752 69.7984 19.9454 68.9956 19.9454C68.5082 19.9454 67.8357 20.3182 67.2179 20.8275C67.2911 21.3134 67.3225 21.8051 67.3117 22.2968V27.9595H64.9176V22.8266C64.9176 20.5148 64.5057 19.9454 63.7212 19.9454C63.2715 19.9454 62.6551 20.2595 62.0373 20.7497V27.9595H59.6249V18.143H61.6072L61.7792 19.1821C62.5273 18.4571 63.4813 17.9286 64.5474 17.9286C65.7061 17.9286 66.4737 18.5349 66.8295 19.3378C67.7275 18.4967 68.6998 17.9286 69.8271 17.9286C71.6596 17.9286 72.6318 19.1821 72.6318 22.3555C72.6318 23.5708 72.5758 25.8047 72.5758 27.954" fill="white"/>
<path d="M79.6541 27.9593L79.4872 26.9597C78.6818 27.6848 77.8216 28.175 76.62 28.175C74.7302 28.175 73.7214 27.196 73.7214 25.373C73.7214 23.3344 75.2724 21.9839 78.5436 21.9839H79.1223V21.2397C79.1223 20.2388 78.5801 19.75 77.3837 19.75C76.4114 19.75 75.3831 20.0231 74.5412 20.3385L74.2232 18.8092C75.4105 18.242 76.698 17.9415 78.0028 17.9271C80.3982 17.9271 81.5008 19.1219 81.5008 20.9844V27.9593H79.6541ZM79.1327 23.5119H78.4224C76.59 23.5119 76.0856 24.1591 76.0856 25.0603C76.0856 25.8796 76.5157 26.3917 77.3381 26.3917C77.9181 26.3917 78.5541 26.0585 79.1327 25.5301V23.5119Z" fill="white"/>
<path d="M88.4253 20.3771C88.1586 20.2896 87.8811 20.2436 87.6016 20.2406C87.0803 20.2406 86.6307 20.612 85.7887 21.729V27.9597H83.3763V18.1432H85.3587L85.545 19.6725C86.499 18.3589 87.1351 17.9479 87.8089 17.9479C88.1244 17.9483 88.436 18.022 88.7212 18.1637L88.4253 20.3771Z" fill="white"/>
<path d="M94.56 27.9598L92.0537 23.1014V27.9598H89.64V16.5102H92.0537V21.9244L94.2029 18.1433H97.0089L94.2211 22.2384L97.3829 27.9598H94.56Z" fill="white"/>
<path d="M99.8157 23.5517V23.6882C99.8157 25.4907 100.583 26.2553 101.91 26.2553C102.949 26.2344 103.978 26.0427 104.96 25.6873L105.296 27.1374C104.109 27.8006 102.788 28.1564 101.444 28.1752C98.9673 28.1752 97.3668 26.9012 97.3668 23.3155C97.3668 19.8089 98.9738 17.9286 101.612 17.9286C104.006 17.9286 105.595 19.3378 105.352 23.5517H99.8157ZM103.032 21.9404C103.032 20.3728 102.511 19.6095 101.5 19.6095C100.488 19.6095 99.9096 20.6077 99.8353 21.98H103.032V21.9404Z" fill="white"/>
<path d="M109.409 28.1565C107.671 28.1565 107.033 27.4737 107.033 25.5894V19.9062H105.837V18.1434H107.11C107.334 17.6096 107.527 17.0625 107.689 16.5048H109.428V18.1434H111.504V19.9062H109.428V24.9585C109.428 25.9581 109.652 26.2708 110.289 26.2708C110.721 26.2612 111.149 26.1885 111.561 26.055L111.747 27.5052C110.868 27.9762 110.121 28.1524 109.409 28.1524" fill="white"/>
<path d="M39.197 28.0972C37.633 28.0972 37.0843 27.3981 37.0843 25.5138V19.4346H35.6012V18.3081H37.1026C37.2512 17.4533 37.3802 17.527 37.4936 16.5179H38.5506V18.3081H41.0151V19.4346H38.5493V25.1246C38.5493 26.4464 38.7526 26.912 39.6414 26.912C39.9568 26.912 40.3843 26.8533 41.0751 26.602L41.2601 27.5333C40.5185 27.9033 39.8135 28.0972 39.2022 28.0972" fill="white"/>
<path d="M49.5284 27.9484H48.0818C48.0818 26.1228 48.1195 24.0063 48.1195 22.821C48.1195 20.2771 47.4888 19.4073 46.3575 19.4073C45.7462 19.4073 44.9121 19.817 44.0963 20.5529V27.9484H42.6274V16.5179H44.091V19.3568C44.8509 18.6973 45.7593 18.1524 46.8527 18.1524C48.5223 18.1524 49.5779 19.2598 49.5779 22.425C49.5779 23.5911 49.5232 25.9411 49.5232 27.9416" fill="white"/>
<path d="M52.3774 23.3199V23.5138C52.3774 25.9211 53.2676 26.8934 54.9163 26.8934C55.8417 26.8864 56.7567 26.6882 57.6089 26.3103L57.8878 27.2238C56.8633 27.7873 55.7253 28.0869 54.5683 28.0977C52.3435 28.0977 50.8617 26.8346 50.8617 23.4168C50.8617 20.0564 52.251 18.1529 54.6243 18.1529C56.793 18.1529 58.1093 19.6099 57.906 23.3199H52.3774ZM56.4737 22.2138C56.4737 20.3691 55.8442 19.2617 54.5279 19.2617C53.175 19.2617 52.47 20.6408 52.3774 22.2917H56.4737V22.2138Z" fill="white"/>
<path d="M115.157 19.2015C114.65 19.1966 114.156 19.0347 113.736 18.736C113.317 18.4373 112.992 18.0153 112.801 17.5231C112.61 17.0309 112.562 16.4906 112.664 15.9701C112.766 15.4497 113.012 14.9724 113.372 14.5985C113.733 14.2246 114.19 13.9707 114.688 13.8688C115.186 13.7669 115.701 13.8216 116.169 14.026C116.637 14.2304 117.037 14.5754 117.318 15.0174C117.599 15.4595 117.749 15.9789 117.749 16.5101C117.752 16.8663 117.686 17.2195 117.557 17.5488C117.427 17.8781 117.236 18.177 116.994 18.4277C116.753 18.6785 116.466 18.8761 116.15 19.009C115.835 19.1419 115.497 19.2073 115.157 19.2015ZM115.157 14.2789C114.737 14.2776 114.326 14.4068 113.976 14.6503C113.626 14.8938 113.352 15.2406 113.19 15.6469C113.028 16.0532 112.985 16.5006 113.066 16.9327C113.147 17.3647 113.348 17.7619 113.644 18.0741C113.941 18.3863 114.319 18.5994 114.731 18.6864C115.143 18.7735 115.57 18.7306 115.958 18.5632C116.347 18.3957 116.68 18.1113 116.914 17.7459C117.148 17.3804 117.274 16.9504 117.275 16.5101C117.277 16.2174 117.224 15.9272 117.119 15.6561C117.014 15.3851 116.858 15.1387 116.661 14.9311C116.464 14.7236 116.229 14.5591 115.971 14.4471C115.713 14.3352 115.437 14.278 115.157 14.2789ZM115.424 16.6439L116.198 17.9643H115.586L114.934 16.7354H114.842V17.9643H114.344V15.0067H115.084C115.791 15.0067 116.068 15.3699 116.068 15.8192C116.072 16.1947 115.828 16.4978 115.424 16.6439ZM115.033 15.415H114.848V16.3244H115.067C115.38 16.3244 115.565 16.1182 115.565 15.8752C115.562 15.6007 115.424 15.4191 115.031 15.4191L115.033 15.415Z" fill="white"/>
<path d="M15.8381 31.6762C24.5852 31.6762 31.6762 24.5852 31.6762 15.8381C31.6762 7.09095 24.5852 0 15.8381 0C7.09095 0 0 7.09095 0 15.8381C0 24.5852 7.09095 31.6762 15.8381 31.6762Z" fill="url(#paint0_linear_10511_294)"/>
<path d="M8.99886 23.8071C8.94299 25.7152 8.53511 27.5931 7.81433 29.4962C9.95896 30.755 12.3696 31.4918 14.8515 31.6471C17.3334 31.8024 19.8171 31.3719 22.1019 30.3902C18.9858 27.1126 14.398 24.4714 8.99886 23.8071Z" fill="url(#paint1_linear_10511_294)"/>
<path style="mix-blend-mode:multiply" opacity="0.55" d="M8.99833 23.8056C8.96876 24.7983 8.8468 25.7862 8.63403 26.7563C12.6141 27.0321 16.3892 28.6244 19.3647 31.2821C20.3017 31.0682 21.2172 30.769 22.0997 30.3881C18.9853 27.1139 14.3974 24.471 8.99833 23.8056Z" fill="url(#paint2_linear_10511_294)"/>
<path style="mix-blend-mode:multiply" d="M8.95813 30.1086C11.0279 31.107 13.2909 31.6409 15.5887 31.6731C14.1148 28.8911 11.516 27.7055 8.95813 30.1086Z" fill="url(#paint3_linear_10511_294)"/>
<path d="M19.3836 22.2437C17.8711 21.9571 16.3927 22.2817 15.354 22.8376L15.3646 22.8421C17.4822 23.7964 16.8173 24.8536 17.5068 26.7332C19.1974 27.738 20.7433 28.9683 22.1019 30.3901C23.0342 29.988 23.9256 29.497 24.7638 28.924C24.7638 28.9207 24.7638 28.9156 24.7593 28.9123C23.2719 24.2937 21.299 22.6074 19.3836 22.2437Z" fill="url(#paint4_linear_10511_294)"/>
<path d="M15.3646 22.8417L15.354 22.8372C12.4335 21.5884 8.8441 21.4627 8.84913 21.5001C8.97373 22.3729 9.02289 22.9501 8.99887 23.8066C11.7088 24.1438 14.3314 24.9868 16.7302 26.2919C16.9932 26.4349 17.252 26.5823 17.5068 26.7339C16.8179 24.8548 17.4822 23.796 15.3646 22.8417Z" fill="url(#paint5_linear_10511_294)"/>
<path d="M23.7033 7.26965C23.7033 7.26965 22.4254 7.40821 21.8393 7.42889C20.8604 7.46297 20.0257 7.5127 19.8005 7.45068C18.3818 7.20371 17.1744 5.7616 16.8202 5.04809L16.8118 5.03244C16.7949 4.99007 16.7618 4.95615 16.7199 4.93813C16.678 4.92011 16.6307 4.91947 16.5883 4.93634C16.4486 4.97713 16.2301 5.10843 15.8424 5.27159L15.8111 5.285H15.8083C15.5002 5.41065 15.1846 5.5172 14.8634 5.60404C13.3716 6.01304 11.849 6.07506 9.76101 7.1199C7.70652 8.1491 6.1454 9.68173 5.43189 11.4988C4.04285 15.0188 5.63471 17.5611 7.5227 19.2094C8.20373 19.8075 8.6702 20.6121 8.85082 21.5002C8.8458 21.4628 12.4352 21.5885 15.3557 22.8373C16.3787 22.2892 17.8298 21.9668 19.3194 22.2316C18.5372 20.7152 19.2373 19.7173 19.463 19.3401C19.7334 18.887 19.8273 18.7881 20.1966 18.411C20.0933 18.3752 19.9033 18.3618 19.8541 18.2154C19.8541 18.2154 20.7827 17.3879 21.3504 16.4503C21.357 16.4399 21.3628 16.4291 21.3677 16.4179C21.8986 15.2904 22.2992 14.3729 22.2992 14.3729C23.7731 13.0023 24.718 11.9145 25.0459 10.9417C26.5696 10.5165 26.8579 6.82768 23.7033 7.26965Z" fill="url(#paint6_linear_10511_294)"/>
<path style="mix-blend-mode:multiply" opacity="0.87" d="M19.3172 22.2314C18.5349 20.715 19.235 19.7171 19.4608 19.3399C19.7312 18.8868 19.8251 18.7879 20.1944 18.4107C20.091 18.375 19.9011 18.3616 19.8519 18.2152C19.8519 18.2152 20.7777 17.3899 21.346 16.4546C21.3538 16.4412 21.361 16.4272 21.3677 16.4132C21.8974 15.2879 22.2969 14.3727 22.2969 14.3727C23.7709 13.0021 24.7157 11.9142 25.0437 10.9415C26.5668 10.5163 26.854 6.82745 23.7027 7.26942C23.7027 7.26942 22.4249 7.40799 21.8388 7.42866C20.8599 7.46274 20.0251 7.51247 19.7999 7.45045C18.3813 7.20349 17.1738 5.76082 16.819 5.04451C16.6414 4.68636 16.4363 5.16855 14.8634 5.60046C13.3716 6.00946 11.849 6.07148 9.76101 7.11632C7.70652 8.14553 6.1454 9.67815 5.43189 11.4952C4.04285 15.0153 5.63471 17.5575 7.5227 19.2058C8.20373 19.8039 8.6702 20.6085 8.85082 21.4967C8.8458 21.4592 12.4352 21.5849 15.3557 22.8337C16.3765 22.289 17.8276 21.9666 19.3172 22.2314Z" fill="url(#paint7_linear_10511_294)"/>
<path style="mix-blend-mode:multiply" d="M21.3904 16.3699V16.3806C20.8512 17.3053 19.9349 18.1411 19.8577 18.2104L19.8533 18.2143C19.9024 18.3607 20.0924 18.3741 20.1958 18.4099C19.8265 18.7871 19.7326 18.886 19.4622 19.3391C19.2387 19.7174 18.533 20.7086 19.3152 22.2244C19.315 22.2265 19.315 22.2285 19.3152 22.2306H19.3147L19.2789 22.2244L19.2364 22.2172L19.1923 22.2105C19.161 22.2052 19.1297 22.2008 19.0984 22.1971L19.0314 22.187L18.9146 22.1736H18.8956L18.8118 22.1602C18.7464 22.154 18.6816 22.149 18.6168 22.1451C18.1392 22.1148 17.6597 22.1389 17.1875 22.2172H17.1808C17.0976 22.2311 17.0132 22.2468 16.9339 22.2635C16.6896 22.3146 16.4488 22.3805 16.2125 22.4608C16.0941 22.501 15.9801 22.5463 15.8689 22.5926C15.8085 22.6172 15.7493 22.6429 15.6912 22.6686C15.6353 22.6943 15.5795 22.7206 15.5236 22.7469L15.5113 22.753C15.4554 22.7793 15.4051 22.8061 15.3537 22.834C15.2822 22.8033 15.2107 22.7737 15.1386 22.7446L15.1029 22.7301C15.0364 22.7027 14.9688 22.6742 14.9012 22.6507L14.8492 22.6312C14.7933 22.6072 14.7374 22.5854 14.6777 22.5669L14.6 22.5401C14.5335 22.5167 14.467 22.4932 14.4005 22.4708C14.3212 22.444 14.2418 22.4178 14.1625 22.3926L14.115 22.3775C13.9597 22.3284 13.8045 22.2818 13.6496 22.2378L13.6026 22.225C13.5328 22.2054 13.4635 22.1864 13.3937 22.1691L13.3691 22.1624L13.1646 22.1093H13.1579C13.0769 22.0892 12.9964 22.0691 12.9159 22.0501L12.8735 22.04L12.664 21.9914L12.6461 21.9875L12.4086 21.9356L12.3941 21.9328C12.1639 21.8842 11.9387 21.8406 11.7202 21.802L11.6878 21.7959L11.4856 21.7612H11.4822H11.4722L11.2867 21.7316H11.2732H11.2654L11.1196 21.7093H11.1123L10.9799 21.6897L10.9425 21.6841L10.8391 21.6702L10.8017 21.6651L10.6732 21.6484H10.6692L10.5396 21.6322H10.5262L10.4145 21.6182H10.3949C10.3055 21.6076 10.2195 21.5981 10.1362 21.5897H10.1262L9.96914 21.5735H9.95741L9.89874 21.5685L9.86857 21.5657L9.78811 21.5584H9.78141L9.72274 21.5534H9.71994H9.69704L9.55512 21.5422H9.53668L9.39196 21.5321L9.3305 21.5282H9.32324L9.27072 21.5254L9.21484 21.5227H9.20143H9.1612H9.15841H9.11986H9.11706H9.09639H9.05113H9.01593H9.00979H8.96676H8.88854H8.87289H8.86619H8.85837H8.85222C8.84272 21.4819 8.83155 21.4411 8.82093 21.4003C8.80529 21.3444 8.78852 21.2846 8.77064 21.2271V21.2243C8.73675 21.1125 8.69857 21.0043 8.6561 20.8997C8.6561 20.8952 8.65219 20.8902 8.65051 20.8851C8.59089 20.7219 8.51763 20.5639 8.43149 20.413L8.4002 20.3571L8.37114 20.3057C8.34432 20.2571 8.3365 20.2437 8.30689 20.1979C8.25921 20.1197 8.20948 20.0429 8.1577 19.9677C8.12753 19.9241 8.0968 19.8816 8.06495 19.8392L8.05378 19.8235C7.97351 19.7136 7.88675 19.6085 7.79396 19.5089C7.74535 19.4531 7.69563 19.4028 7.64422 19.3514C7.57941 19.286 7.51292 19.2218 7.44363 19.1603C7.371 19.096 7.29892 19.0295 7.2274 18.9619L7.21399 18.9496C7.14359 18.8826 7.07319 18.8139 7.0039 18.7446L7.00055 18.7407L6.99776 18.7379C6.92736 18.6667 6.85789 18.5945 6.78935 18.5211V18.5183C6.7195 18.4434 6.65134 18.3674 6.58373 18.2898V18.287C6.53288 18.2283 6.48316 18.1685 6.43343 18.1082C5.67578 17.1807 5.09748 16.0626 4.95612 14.7446C4.86616 13.9009 4.95612 12.9756 5.29136 11.9659V11.9626C5.31315 11.9006 5.33327 11.8385 5.35562 11.7765V11.7709C4.83319 16.9941 8.12586 17.9322 11.4699 17.602C11.2475 17.7981 11.0123 17.9794 10.7659 18.1445C10.7436 18.1607 10.7402 18.2054 10.7743 18.2115C11.7046 18.3713 12.5773 17.9685 13.4121 17.6059C13.2398 17.844 13.0461 18.0658 12.8333 18.2685C12.8282 18.2737 12.8248 18.2802 12.8235 18.2873C12.8221 18.2943 12.8228 18.3016 12.8256 18.3083C12.8283 18.3149 12.8329 18.3206 12.8389 18.3247C12.8448 18.3287 12.8518 18.331 12.859 18.3311C14.0703 18.3172 15.1124 17.5528 16.0438 16.8532C15.9963 16.9946 15.9494 17.1365 15.9024 17.2779C15.9004 17.2841 15.9002 17.2907 15.9016 17.297C15.9031 17.3034 15.9063 17.3092 15.9109 17.3138C15.9154 17.3185 15.9211 17.3218 15.9274 17.3234C15.9337 17.3251 15.9403 17.325 15.9466 17.3231C16.8014 17.0438 17.511 16.485 18.0647 15.7933C18.1901 15.613 18.3519 15.461 18.5398 15.3471C18.7276 15.2333 18.9372 15.1601 19.1551 15.1323C19.3729 15.1046 19.5942 15.1229 19.8046 15.186C20.0149 15.2491 20.2097 15.3557 20.3763 15.4989L21.3904 16.3699Z" fill="url(#paint8_linear_10511_294)"/>
<path style="mix-blend-mode:multiply" d="M9.40902 13.3048C9.12406 12.9265 8.92403 12.4141 8.98885 11.9342C8.83184 12.0191 8.67986 12.113 8.52174 12.1951C8.5161 12.1983 8.50972 12.2 8.50324 12.2C8.49676 12.2 8.49039 12.1983 8.48476 12.195C8.47912 12.1918 8.47442 12.1872 8.47111 12.1816C8.4678 12.1761 8.46599 12.1697 8.46587 12.1633C8.50107 11.6945 8.74188 11.3089 8.89274 10.8781C8.68428 10.9113 8.47808 10.9574 8.27533 11.0162C8.26805 11.0184 8.26025 11.0183 8.25302 11.0159C8.24578 11.0135 8.23946 11.0089 8.23493 11.0028C8.2304 10.9967 8.22787 10.9893 8.22771 10.9817C8.22754 10.9741 8.22973 10.9666 8.23399 10.9603C8.7268 10.2093 9.56882 9.71597 10.4086 9.42598L10.4287 9.38072C10.4765 9.29587 10.4961 9.19804 10.4846 9.10135V9.09073C10.2477 8.16378 8.31333 8.95105 7.40482 10.0294C6.54547 11.0491 6.32198 12.4063 6.58067 13.545C6.84887 14.7228 7.63334 15.6682 8.76423 15.7627C9.0149 15.7851 9.26752 15.7695 9.51351 15.7163L9.53977 15.7101C9.72089 15.6676 9.89601 15.6027 10.0611 15.5168C10.5679 15.252 10.9098 14.6161 10.7148 13.9769C10.2388 13.8009 9.74259 13.7467 9.40902 13.3048Z" fill="url(#paint9_linear_10511_294)"/>
<path style="mix-blend-mode:multiply" d="M23.7845 7.26056L23.775 7.27508C23.7255 7.36657 23.6892 7.46457 23.6671 7.56619L23.6716 7.5701C23.7569 7.64758 23.8576 7.70622 23.9672 7.74219C24.0968 7.7841 24.1482 7.85394 24.2203 7.97351C24.264 8.0585 24.3002 8.14711 24.3287 8.23835C24.3431 8.27517 24.3607 8.31068 24.3812 8.34451C25.1472 8.59651 26.225 8.71664 26.1032 9.58716C26.3362 8.43447 25.7529 7.02365 23.7845 7.26056Z" fill="url(#paint10_linear_10511_294)"/>
<path style="mix-blend-mode:multiply" opacity="0.8" d="M25.0465 10.9419C21.8617 12.9533 18.8959 10.8748 17.1202 12.1622C16.9587 12.3013 15.7429 13.4959 15.5144 13.787C15.4674 13.8468 15.1233 14.2368 15.1612 14.4295C15.1847 14.5474 15.5082 15.1497 15.8384 15.1246C15.9843 15.0922 16.9258 15.0045 17.0526 15.09C17.1526 15.1576 18.0611 15.2956 18.098 15.4012C18.2723 15.904 18.7981 14.6491 19.2021 14.9715C19.5021 15.2118 21.1577 16.2186 21.3912 16.3684C21.47 16.2007 21.546 16.0381 21.6147 15.8828L21.6192 15.8744L21.6683 15.7666L21.6711 15.7605C21.7237 15.6487 21.774 15.537 21.8214 15.4336C22.1008 14.8044 22.2969 14.372 22.2969 14.372C23.7692 13.0025 24.714 11.9169 25.0426 10.9435L25.0465 10.9419Z" fill="url(#paint11_radial_10511_294)"/>
<path style="mix-blend-mode:multiply" opacity="0.71" d="M26.1498 9.04155C26.1498 8.98288 26.1442 8.92477 26.1386 8.86722C26.133 8.80967 26.1252 8.75994 26.1157 8.70686C26.1101 8.67389 26.1034 8.64149 26.0962 8.60964C26.0643 8.46879 26.0167 8.33197 25.9542 8.20176C25.9168 8.12406 25.8735 8.04934 25.8246 7.97826C25.7944 7.93524 25.7626 7.89333 25.7285 7.8531C25.7062 7.82684 25.6832 7.80058 25.6592 7.77544C25.5968 7.71074 25.5292 7.65131 25.457 7.59776C25.407 7.56085 25.355 7.52689 25.3011 7.49607C24.9172 7.27257 24.392 7.17367 23.7025 7.27257C23.7025 7.27257 22.4275 7.41114 21.8408 7.43181C21.0479 7.45975 20.359 7.49663 19.9969 7.47763C19.9315 7.47588 19.8664 7.46783 19.8025 7.4536C21.6737 8.04531 18.6235 12.7857 23.3695 13.3327C23.9634 12.7147 24.4188 12.1593 24.7244 11.638C24.7257 11.6351 24.7272 11.6323 24.7289 11.6296C24.7557 11.5838 24.782 11.538 24.8066 11.4927C24.8289 11.4508 24.8502 11.4095 24.8708 11.3687L24.882 11.3458C24.9027 11.3033 24.9228 11.2614 24.9412 11.2195C24.9412 11.2195 24.9412 11.2145 24.944 11.2123C24.9614 11.1737 24.977 11.1357 24.9921 11.1005L25.0038 11.0698C25.0195 11.0295 25.034 10.9899 25.0474 10.9496C25.0636 10.9452 25.0798 10.9401 25.0954 10.9346L25.1446 10.9172C25.1919 10.899 25.2378 10.8775 25.2821 10.853C25.3078 10.839 25.3329 10.8245 25.3575 10.8083C25.3709 10.8001 25.3843 10.7912 25.3977 10.7815C25.4519 10.7437 25.5031 10.7019 25.5508 10.6563L25.5564 10.6518C25.7877 10.4179 25.9556 10.1289 26.0442 9.81205C26.1205 9.56255 26.1562 9.30239 26.1498 9.04155Z" fill="url(#paint12_linear_10511_294)"/>
<path style="mix-blend-mode:multiply" d="M13.304 7.68299C13.4289 7.68404 13.5538 7.6747 13.6772 7.65506C13.6845 7.65283 13.6923 7.65292 13.6995 7.65531C13.7068 7.6577 13.7131 7.66227 13.7176 7.66839C13.7221 7.67452 13.7247 7.6819 13.7248 7.68951C13.725 7.69713 13.7228 7.70461 13.7185 7.71093C13.3889 8.39707 13.1039 9.05191 13.2257 9.8308C13.2778 10.173 13.3955 10.502 13.5722 10.7997C13.5971 10.8108 13.6228 10.8214 13.6493 10.8315C14.2387 8.30934 18.9266 9.85985 19.7999 7.45223C18.3812 7.20527 17.1738 5.76316 16.8196 5.04965L16.8112 5.034C16.7943 4.99163 16.7612 4.95771 16.7193 4.93969C16.6774 4.92167 16.6301 4.92102 16.5877 4.9379C16.448 4.97869 16.2295 5.10999 15.8418 5.27314L15.8105 5.28655H15.8077C15.7194 5.32343 15.6233 5.36142 15.5177 5.3983C14.5779 5.86094 13.7834 6.75045 13.304 7.68299Z" fill="url(#paint13_radial_10511_294)"/>
<path style="mix-blend-mode:multiply" opacity="0.83" d="M13.304 7.68299C13.4289 7.68404 13.5538 7.6747 13.6772 7.65506C13.6845 7.65283 13.6923 7.65292 13.6995 7.65531C13.7068 7.6577 13.7131 7.66227 13.7176 7.66839C13.7221 7.67452 13.7247 7.6819 13.7248 7.68951C13.725 7.69713 13.7228 7.70461 13.7185 7.71093C13.3889 8.39707 13.1039 9.05191 13.2257 9.8308C13.2745 10.1466 13.3781 10.4514 13.5319 10.7315C13.5578 10.7776 13.5992 10.813 13.6487 10.8315C14.2382 8.30934 18.926 9.85985 19.7993 7.45223C18.3807 7.20527 17.1732 5.76316 16.819 5.04965L16.8106 5.034C16.7937 4.99163 16.7607 4.95771 16.7188 4.93969C16.6769 4.92167 16.6295 4.92102 16.5871 4.9379C16.4474 4.97869 16.229 5.10999 15.8412 5.27314L15.8099 5.28655H15.8071C15.7188 5.32343 15.6227 5.36142 15.5171 5.3983C14.5779 5.86094 13.7834 6.75045 13.304 7.68299Z" fill="url(#paint14_linear_10511_294)"/>
<path style="mix-blend-mode:multiply" d="M16.9486 7.24812C16.0636 7.34869 15.6914 9.05286 15.1606 9.4138C16.1133 9.10873 17.3263 9.05453 18.2924 8.73549C18.4159 7.60348 17.718 7.1604 16.9486 7.24812Z" fill="url(#paint15_linear_10511_294)"/>
<path style="mix-blend-mode:multiply" d="M17.2047 8.08655C16.7471 8.11337 16.5013 8.95036 16.2202 9.16603C16.775 9.06602 17.3528 8.98444 17.8825 8.85202C17.9462 8.29943 17.6009 8.06308 17.2047 8.08655Z" fill="url(#paint16_linear_10511_294)"/>
</g>
</g>
<defs>
<linearGradient id="paint0_linear_10511_294" x1="7.21112" y1="2.55345" x2="24.4656" y2="29.1233" gradientUnits="userSpaceOnUse">
<stop stop-color="#D6D6D6"/>
<stop offset="0.03" stop-color="#E0E0E0"/>
<stop offset="0.09" stop-color="#EBEBEB"/>
<stop offset="0.15" stop-color="#EFEFEF"/>
<stop offset="0.64" stop-color="#EFEFEF"/>
<stop offset="0.73" stop-color="#EFEFEF"/>
<stop offset="0.8" stop-color="#EAEAEA"/>
<stop offset="0.88" stop-color="#DADADA"/>
<stop offset="0.98" stop-color="#C0C0C0"/>
<stop offset="1" stop-color="#BABABA"/>
</linearGradient>
<linearGradient id="paint1_linear_10511_294" x1="7.53831" y1="27.1059" x2="29.9517" y2="30.4153" gradientUnits="userSpaceOnUse">
<stop offset="0.1" stop-color="#641724"/>
<stop offset="0.21" stop-color="#711825"/>
<stop offset="0.42" stop-color="#941B26"/>
<stop offset="0.58" stop-color="#B31E28"/>
<stop offset="1" stop-color="#D2202F"/>
</linearGradient>
<linearGradient id="paint2_linear_10511_294" x1="8.56683" y1="26.7107" x2="28.0872" y2="29.6002" gradientUnits="userSpaceOnUse">
<stop offset="0.08" stop-color="#95191D"/>
<stop offset="0.2" stop-color="#9A2327" stop-opacity="0.96"/>
<stop offset="0.36" stop-color="#A63F42" stop-opacity="0.84"/>
<stop offset="0.56" stop-color="#BC6D6F" stop-opacity="0.64"/>
<stop offset="0.77" stop-color="#D9ADAE" stop-opacity="0.36"/>
<stop offset="1" stop-color="white" stop-opacity="0"/>
</linearGradient>
<linearGradient id="paint3_linear_10511_294" x1="10.8694" y1="40.3656" x2="12.5786" y2="28.8193" gradientUnits="userSpaceOnUse">
<stop stop-color="white" stop-opacity="0"/>
<stop offset="1" stop-color="#95191D"/>
</linearGradient>
<linearGradient id="paint4_linear_10511_294" x1="15.354" y1="26.2638" x2="26.0204" y2="26.2638" gradientUnits="userSpaceOnUse">
<stop stop-color="#B59F2C"/>
<stop offset="0.87" stop-color="#F0EEC5"/>
</linearGradient>
<linearGradient id="paint5_linear_10511_294" x1="10.1454" y1="25.5281" x2="17.1068" y2="22.2863" gradientUnits="userSpaceOnUse">
<stop stop-color="#B59F2C"/>
<stop offset="0.87" stop-color="#F0EEC5"/>
</linearGradient>
<linearGradient id="paint6_linear_10511_294" x1="7.42268" y1="19.9223" x2="25.3287" y2="6.42874" gradientUnits="userSpaceOnUse">
<stop stop-color="#25130E"/>
<stop offset="0.02" stop-color="#2A1711"/>
<stop offset="0.46" stop-color="#AC8864"/>
<stop offset="0.66" stop-color="#E0B585"/>
<stop offset="0.8" stop-color="#E9C08F"/>
<stop offset="1" stop-color="#FBD6A4"/>
</linearGradient>
<linearGradient id="paint7_linear_10511_294" x1="18.7836" y1="22.9175" x2="15.8781" y2="13.0446" gradientUnits="userSpaceOnUse">
<stop stop-color="#6A4634"/>
<stop offset="0.17" stop-color="#93796B" stop-opacity="0.73"/>
<stop offset="0.4" stop-color="#C2B3AB" stop-opacity="0.41"/>
<stop offset="0.62" stop-color="#E3DDDA" stop-opacity="0.18"/>
<stop offset="0.83" stop-color="#F8F6F5" stop-opacity="0.05"/>
<stop offset="1" stop-color="white" stop-opacity="0"/>
</linearGradient>
<linearGradient id="paint8_linear_10511_294" x1="19.3119" y1="13.5209" x2="3.44137" y2="21.3913" gradientUnits="userSpaceOnUse">
<stop stop-color="white"/>
<stop offset="0.11" stop-color="#FBFAFA"/>
<stop offset="0.24" stop-color="#F0EDEB"/>
<stop offset="0.39" stop-color="#DFD7D3"/>
<stop offset="0.54" stop-color="#C6B8B1"/>
<stop offset="0.7" stop-color="#A59085"/>
<stop offset="0.86" stop-color="#7F6050"/>
<stop offset="1" stop-color="#5A321E"/>
</linearGradient>
<linearGradient id="paint9_linear_10511_294" x1="6.7712" y1="11.8235" x2="11.9932" y2="12.6348" gradientUnits="userSpaceOnUse">
<stop offset="0.1" stop-color="#5B331F"/>
<stop offset="0.47" stop-color="#B3A197" stop-opacity="0.78"/>
<stop offset="0.74" stop-color="#EAE5E2" stop-opacity="0.65"/>
<stop offset="0.88" stop-color="white" stop-opacity="0.6"/>
</linearGradient>
<linearGradient id="paint10_linear_10511_294" x1="23.8308" y1="9.04238" x2="26.2809" y2="7.67849" gradientUnits="userSpaceOnUse">
<stop offset="0.14" stop-color="white"/>
<stop offset="0.3" stop-color="#DAD2CD"/>
<stop offset="0.55" stop-color="#A48E83"/>
<stop offset="0.76" stop-color="#7C5C4C"/>
<stop offset="0.92" stop-color="#633E2B"/>
<stop offset="1" stop-color="#5A321E"/>
</linearGradient>
<radialGradient id="paint11_radial_10511_294" cx="0" cy="0" r="1" gradientUnits="userSpaceOnUse" gradientTransform="translate(24.5686 9.48105) rotate(-10.9722) scale(8.70723 6.3122)">
<stop offset="0.21" stop-color="#5A321E"/>
<stop offset="0.49" stop-color="#5E3724" stop-opacity="0.97"/>
<stop offset="0.63" stop-color="#6D4938" stop-opacity="0.89"/>
<stop offset="0.75" stop-color="#86685A" stop-opacity="0.74"/>
<stop offset="0.85" stop-color="#A9948A" stop-opacity="0.52"/>
<stop offset="0.94" stop-color="#D6CCC7" stop-opacity="0.25"/>
<stop offset="1" stop-color="white" stop-opacity="0"/>
</radialGradient>
<linearGradient id="paint12_linear_10511_294" x1="20.2897" y1="10.9346" x2="26.0252" y2="8.52136" gradientUnits="userSpaceOnUse">
<stop offset="0.21" stop-color="white" stop-opacity="0.2"/>
<stop offset="0.44" stop-color="#C1B2AB" stop-opacity="0.51"/>
<stop offset="0.76" stop-color="#816354" stop-opacity="0.84"/>
<stop offset="0.96" stop-color="#6A4634" stop-opacity="0.96"/>
</linearGradient>
<radialGradient id="paint13_radial_10511_294" cx="0" cy="0" r="1" gradientUnits="userSpaceOnUse" gradientTransform="translate(19.2216 8.897) scale(5.53657 4.70608)">
<stop stop-color="#623C29"/>
<stop offset="0.02" stop-color="#684432" stop-opacity="0.98"/>
<stop offset="0.23" stop-color="#9E877B" stop-opacity="0.85"/>
<stop offset="0.43" stop-color="#C9BBB5" stop-opacity="0.74"/>
<stop offset="0.63" stop-color="#E7E1DE" stop-opacity="0.66"/>
<stop offset="0.82" stop-color="#F9F7F7" stop-opacity="0.62"/>
<stop offset="1" stop-color="white" stop-opacity="0.6"/>
</radialGradient>
<linearGradient id="paint14_linear_10511_294" x1="12.7631" y1="7.87576" x2="20.0888" y2="7.87576" gradientUnits="userSpaceOnUse">
<stop stop-color="#FEFDFD"/>
<stop offset="0.11" stop-color="#D8CEC9"/>
<stop offset="0.22" stop-color="#B6A59C"/>
<stop offset="0.33" stop-color="#9A8175"/>
<stop offset="0.45" stop-color="#836556"/>
<stop offset="0.57" stop-color="#714E3D"/>
<stop offset="0.7" stop-color="#643E2C"/>
<stop offset="0.84" stop-color="#5C3521"/>
<stop offset="1" stop-color="#5A321E"/>
</linearGradient>
<linearGradient id="paint15_linear_10511_294" x1="15.1584" y1="8.32593" x2="18.3052" y2="8.32593" gradientUnits="userSpaceOnUse">
<stop stop-color="white" stop-opacity="0"/>
<stop offset="0.16" stop-color="#DDD5D0" stop-opacity="0.21"/>
<stop offset="0.52" stop-color="#967C70" stop-opacity="0.64"/>
<stop offset="0.82" stop-color="#6A4634" stop-opacity="0.9"/>
<stop offset="1" stop-color="#5A321E"/>
</linearGradient>
<linearGradient id="paint16_linear_10511_294" x1="16.2202" y1="8.62517" x2="17.8903" y2="8.62517" gradientUnits="userSpaceOnUse">
<stop stop-color="white"/>
<stop offset="1" stop-color="#25130E"/>
</linearGradient>
<clipPath id="clip0_10511_294">
<rect width="118" height="32" fill="white"/>
</clipPath>
<clipPath id="clip1_10511_294">
<rect width="118" height="31.6779" fill="white"/>
</clipPath>
</defs>
</svg>
