<svg width="208" height="38" viewBox="0 0 208 38" fill="none" xmlns="http://www.w3.org/2000/svg">
<g clip-path="url(#clip0_448_1755)">
<path d="M18.324 36.652C28.4447 36.652 36.6491 28.4476 36.6491 18.327C36.6491 8.20634 28.4447 0.00195312 18.324 0.00195312C8.20341 0.00195312 -0.000976562 8.20634 -0.000976562 18.327C-0.000976562 28.4476 8.20341 36.652 18.324 36.652Z" fill="url(#paint0_linear_448_1755)"/>
<path d="M10.4109 27.5469C10.3463 29.7546 9.87436 31.9274 9.04041 34.1293C11.5218 35.5858 14.3109 36.4383 17.1826 36.618C20.0542 36.7976 22.9279 36.2995 25.5714 35.1637C21.9661 31.3714 16.6578 28.3155 10.4109 27.5469Z" fill="url(#paint1_linear_448_1755)"/>
<path style="mix-blend-mode:multiply" opacity="0.55" d="M10.4104 27.5449C10.3762 28.6936 10.2351 29.8365 9.98889 30.959C14.5939 31.2781 18.9618 33.1204 22.4045 36.1954C23.4887 35.948 24.5479 35.6018 25.569 35.1611C21.9655 31.3727 16.6573 28.3149 10.4104 27.5449Z" fill="url(#paint2_linear_448_1755)"/>
<path style="mix-blend-mode:multiply" d="M10.3639 34.8377C12.7587 35.9929 15.377 36.6107 18.0356 36.6479C16.3302 33.4291 13.3235 32.0572 10.3639 34.8377Z" fill="url(#paint3_linear_448_1755)"/>
<path d="M22.4264 25.7383C20.6764 25.4066 18.9658 25.7822 17.764 26.4255L17.7763 26.4306C20.2265 27.5348 19.4572 28.758 20.2549 30.9327C22.2109 32.0953 23.9996 33.5187 25.5715 35.1639C26.6502 34.6986 27.6815 34.1305 28.6513 33.4675C28.6513 33.4637 28.6513 33.4578 28.6462 33.454C26.9253 28.1102 24.6425 26.1591 22.4264 25.7383Z" fill="url(#paint4_linear_448_1755)"/>
<path d="M17.7762 26.4306L17.764 26.4254C14.3848 24.9805 10.2319 24.8351 10.2377 24.8784C10.3818 25.8882 10.4387 26.556 10.4109 27.547C13.5464 27.9371 16.5808 28.9125 19.3562 30.4226C19.6605 30.588 19.96 30.7585 20.2548 30.9339C19.4577 28.7598 20.2264 27.5347 17.7762 26.4306Z" fill="url(#paint5_linear_448_1755)"/>
<path d="M27.4242 8.41303C27.4242 8.41303 25.9457 8.57335 25.2676 8.59727C24.135 8.63671 23.1691 8.69425 22.9086 8.62249C21.2672 8.33674 19.8702 6.66819 19.4603 5.84264L19.4506 5.82454C19.431 5.77551 19.3928 5.73626 19.3443 5.71541C19.2958 5.69456 19.241 5.69382 19.192 5.71334C19.0304 5.76054 18.7776 5.91246 18.329 6.10123L18.2927 6.11674H18.2895C17.933 6.26213 17.568 6.38541 17.1963 6.48588C15.4702 6.9591 13.7086 7.03086 11.2927 8.23977C8.91561 9.43058 7.10936 11.2039 6.2838 13.3062C4.67666 17.379 6.51848 20.3205 8.70292 22.2276C9.49089 22.9196 10.0306 23.8505 10.2396 24.8781C10.2338 24.8348 14.3867 24.9803 17.7659 26.4252C18.9496 25.791 20.6285 25.4179 22.352 25.7244C21.4469 23.9698 22.2569 22.8152 22.5181 22.3789C22.831 21.8546 22.9396 21.7401 23.3669 21.3038C23.2473 21.2624 23.0275 21.2469 22.9707 21.0775C22.9707 21.0775 24.0451 20.1201 24.7019 19.0353C24.7095 19.0233 24.7162 19.0107 24.722 18.9978C25.3361 17.6932 25.7996 16.6317 25.7996 16.6317C27.505 15.0459 28.5982 13.7872 28.9777 12.6617C30.7407 12.1697 31.0742 7.90167 27.4242 8.41303Z" fill="url(#paint6_linear_448_1755)"/>
<path style="mix-blend-mode:multiply" opacity="0.87" d="M22.3494 25.7236C21.4443 23.9691 22.2544 22.8145 22.5155 22.3781C22.8284 21.8538 22.937 21.7394 23.3644 21.303C23.2448 21.2616 23.025 21.2461 22.9681 21.0767C22.9681 21.0767 24.0393 20.1219 24.6967 19.0397C24.7058 19.0242 24.7142 19.008 24.722 18.9919C25.3348 17.6899 25.797 16.6309 25.797 16.6309C27.5024 15.0451 28.5956 13.7864 28.9751 12.6609C30.7374 12.1689 31.0697 7.90091 27.4236 8.41227C27.4236 8.41227 25.9451 8.5726 25.2669 8.59652C24.1343 8.63596 23.1685 8.69349 22.9079 8.62173C21.2665 8.33599 19.8695 6.66679 19.459 5.838C19.2534 5.42361 19.0162 5.98152 17.1963 6.48125C15.4702 6.95447 13.7086 7.02623 11.2927 8.23514C8.91561 9.42595 7.10935 11.1992 6.2838 13.3016C4.67666 17.3744 6.51848 20.3158 8.70292 22.223C9.49089 22.9149 10.0306 23.8459 10.2396 24.8735C10.2338 24.8302 14.3867 24.9756 17.7659 26.4205C18.947 25.7902 20.6259 25.4172 22.3494 25.7236Z" fill="url(#paint7_linear_448_1755)"/>
<path style="mix-blend-mode:multiply" d="M24.7483 18.9422V18.9545C24.1244 20.0244 23.0642 20.9916 22.975 21.0717L22.9698 21.0763C23.0267 21.2456 23.2465 21.2612 23.3661 21.3025C22.9388 21.7389 22.8302 21.8533 22.5173 22.3776C22.2587 22.8153 21.4422 23.9621 22.3473 25.716C22.347 25.7184 22.347 25.7208 22.3473 25.7231H22.3466L22.3053 25.716L22.2561 25.7076L22.205 25.6999C22.1688 25.6938 22.1326 25.6887 22.0964 25.6843L22.0189 25.6727L21.8837 25.6572H21.8618L21.7648 25.6417C21.6892 25.6346 21.6142 25.6287 21.5392 25.6242C20.9866 25.5891 20.4318 25.6171 19.8855 25.7076H19.8777C19.7814 25.7238 19.6838 25.7419 19.592 25.7613C19.3094 25.8204 19.0307 25.8966 18.7574 25.9895C18.6203 26.036 18.4885 26.0884 18.3598 26.142C18.29 26.1705 18.2215 26.2002 18.1542 26.23C18.0896 26.2597 18.0249 26.2901 17.9603 26.3205L17.9461 26.3276C17.8814 26.358 17.8232 26.389 17.7638 26.4213C17.681 26.3858 17.5983 26.3515 17.5149 26.3179L17.4735 26.3011C17.3966 26.2694 17.3183 26.2364 17.2401 26.2093L17.18 26.1867C17.1153 26.1589 17.0507 26.1336 16.9815 26.1123L16.8917 26.0813C16.8147 26.0541 16.7378 26.027 16.6609 26.0011C16.5691 25.9701 16.4773 25.9397 16.3855 25.9106L16.3305 25.8932C16.1508 25.8363 15.9713 25.7824 15.792 25.7315L15.7377 25.7167C15.6569 25.694 15.5767 25.6721 15.4959 25.652L15.4675 25.6443L15.2309 25.5828H15.2231C15.1294 25.5596 15.0363 25.5363 14.9432 25.5143L14.894 25.5027L14.6516 25.4464L14.6309 25.4419L14.3562 25.3818L14.3394 25.3786C14.073 25.3223 13.8125 25.2719 13.5597 25.2273L13.5222 25.2202L13.2882 25.1801H13.2843H13.2727L13.0581 25.1458H13.0425H13.0335L12.8648 25.12H12.8564L12.7031 25.0973L12.6598 25.0909L12.5402 25.0747L12.4969 25.0689L12.3482 25.0495H12.3437L12.1937 25.0308H12.1782L12.0489 25.0146H12.0263C11.9228 25.0023 11.8233 24.9913 11.727 24.9816H11.7153L11.5337 24.9629H11.5201L11.4522 24.9571L11.4173 24.9538L11.3242 24.9454H11.3164L11.2486 24.9396H11.2453H11.2188L11.0546 24.9267H11.0333L10.8659 24.915L10.7947 24.9105H10.7863L10.7256 24.9073L10.6609 24.904H10.6454H10.5989H10.5956H10.551H10.5478H10.5239H10.4715H10.4308H10.4237H10.3739H10.2834H10.2653H10.2575H10.2485H10.2414C10.2304 24.8569 10.2174 24.8097 10.2052 24.7625C10.1871 24.6978 10.1677 24.6286 10.147 24.5621V24.5588C10.1078 24.4295 10.0636 24.3043 10.0144 24.1832C10.0144 24.1781 10.0099 24.1722 10.008 24.1664C9.939 23.9775 9.85423 23.7948 9.75456 23.6201L9.71836 23.5555L9.68474 23.496C9.65371 23.4398 9.64466 23.4243 9.6104 23.3713C9.55523 23.2807 9.4977 23.192 9.43779 23.1049C9.40288 23.0545 9.36732 23.0053 9.33047 22.9562L9.31754 22.9381C9.22467 22.8109 9.12429 22.6894 9.01693 22.5741C8.96069 22.5095 8.90315 22.4513 8.84368 22.3918C8.76869 22.3162 8.69175 22.2419 8.61159 22.1707C8.52755 22.0964 8.44415 22.0195 8.36141 21.9412L8.34589 21.927C8.26443 21.8494 8.18298 21.7699 8.10281 21.6898L8.09894 21.6852L8.0957 21.682C8.01425 21.5997 7.93387 21.5161 7.85457 21.4312V21.4279C7.77376 21.3413 7.69489 21.2534 7.61666 21.1635V21.1603C7.55783 21.0924 7.5003 21.0232 7.44276 20.9534C6.56614 19.8803 5.89704 18.5867 5.73348 17.0616C5.6294 16.0855 5.73348 15.0149 6.12137 13.8467V13.8428C6.14658 13.7711 6.16985 13.6993 6.19571 13.6276V13.6211C5.59125 19.6644 9.40094 20.7498 13.2701 20.3677C13.0127 20.5947 12.7406 20.8044 12.4555 20.9955C12.4297 21.0142 12.4258 21.0659 12.4652 21.073C13.5416 21.2579 14.5514 20.7918 15.5172 20.3722C15.3179 20.6478 15.0937 20.9044 14.8475 21.139C14.8417 21.1449 14.8378 21.1525 14.8362 21.1606C14.8346 21.1688 14.8355 21.1772 14.8386 21.1849C14.8418 21.1926 14.8471 21.1992 14.854 21.2039C14.8608 21.2086 14.8689 21.2112 14.8772 21.2114C16.2788 21.1952 17.4845 20.3108 18.5622 19.5014C18.5072 19.665 18.4529 19.8292 18.3986 19.9928C18.3963 19.9999 18.396 20.0076 18.3977 20.0149C18.3994 20.0222 18.4031 20.0289 18.4084 20.0343C18.4136 20.0397 18.4202 20.0436 18.4275 20.0455C18.4348 20.0474 18.4425 20.0473 18.4497 20.0451C19.4388 19.7219 20.2598 19.0754 20.9005 18.2751C21.0455 18.0664 21.2328 17.8906 21.4501 17.7588C21.6674 17.6271 21.9099 17.5424 22.162 17.5103C22.4141 17.4782 22.6701 17.4994 22.9135 17.5724C23.1568 17.6455 23.3822 17.7688 23.5749 17.9344L24.7483 18.9422Z" fill="url(#paint8_linear_448_1755)"/>
<path style="mix-blend-mode:multiply" d="M10.8856 15.3953C10.5559 14.9577 10.3245 14.3648 10.3995 13.8095C10.2178 13.9078 10.042 14.0164 9.85904 14.1114C9.85251 14.1151 9.84514 14.117 9.83764 14.117C9.83014 14.117 9.82276 14.1151 9.81625 14.1114C9.80973 14.1076 9.80429 14.1023 9.80046 14.0958C9.79663 14.0894 9.79454 14.0821 9.79439 14.0746C9.83512 13.5322 10.1138 13.0861 10.2883 12.5877C10.0471 12.6261 9.80853 12.6794 9.57394 12.7474C9.56551 12.7499 9.55649 12.7498 9.54812 12.7471C9.53975 12.7443 9.53244 12.739 9.52719 12.7319C9.52195 12.7248 9.51903 12.7163 9.51884 12.7075C9.51864 12.6987 9.52118 12.69 9.5261 12.6827C10.0963 11.8138 11.0705 11.243 12.0422 10.9075L12.0655 10.8551C12.1207 10.7569 12.1434 10.6438 12.1301 10.5319V10.5196C11.856 9.44709 9.6179 10.358 8.56673 11.6057C7.57245 12.7855 7.31386 14.3558 7.61318 15.6733C7.92349 17.0361 8.83114 18.1299 10.1396 18.2392C10.4296 18.2651 10.7219 18.247 11.0065 18.1855L11.0369 18.1784C11.2465 18.1292 11.4491 18.054 11.6401 17.9547C12.2264 17.6483 12.6221 16.9126 12.3965 16.173C11.8457 15.9694 11.2716 15.9067 10.8856 15.3953Z" fill="url(#paint9_linear_448_1755)"/>
<path style="mix-blend-mode:multiply" d="M27.5182 8.4025L27.5072 8.41931C27.45 8.52517 27.408 8.63855 27.3824 8.75613L27.3876 8.76065C27.4864 8.8503 27.6029 8.91814 27.7296 8.95977C27.8796 9.00825 27.9391 9.08906 28.0225 9.22741C28.073 9.32574 28.115 9.42827 28.1479 9.53384C28.1646 9.57643 28.1849 9.61753 28.2086 9.65667C29.095 9.94823 30.342 10.0872 30.2011 11.0944C30.4707 9.76075 29.7957 8.1284 27.5182 8.4025Z" fill="url(#paint10_linear_448_1755)"/>
<path style="mix-blend-mode:multiply" opacity="0.8" d="M28.9784 12.6621C25.2935 14.9894 21.862 12.5845 19.8075 14.074C19.6207 14.235 18.214 15.6172 17.9496 15.954C17.8952 16.0231 17.497 16.4744 17.541 16.6974C17.5681 16.8338 17.9424 17.5307 18.3245 17.5016C18.4932 17.4641 19.5826 17.3626 19.7293 17.4615C19.845 17.5398 20.8962 17.6995 20.9389 17.8216C21.1406 18.4035 21.7489 16.9515 22.2163 17.3245C22.5635 17.6025 24.479 18.7674 24.7492 18.9407C24.8403 18.7467 24.9283 18.5586 25.0078 18.3789L25.013 18.3692L25.0698 18.2444L25.0731 18.2373C25.1338 18.108 25.192 17.9787 25.247 17.8591C25.5702 17.1312 25.7971 16.6308 25.7971 16.6308C27.5006 15.0463 28.5938 13.7902 28.9739 12.664L28.9784 12.6621Z" fill="url(#paint11_radial_448_1755)"/>
<path style="mix-blend-mode:multiply" opacity="0.71" d="M30.255 10.4631C30.255 10.3953 30.2485 10.328 30.2421 10.2614C30.2356 10.1949 30.2265 10.1373 30.2155 10.0759C30.2091 10.0378 30.2013 10.0003 30.1929 9.96342C30.156 9.80046 30.101 9.64216 30.0287 9.49149C29.9854 9.4016 29.9353 9.31515 29.8787 9.2329C29.8438 9.18313 29.807 9.13464 29.7675 9.08809C29.7417 9.05771 29.7152 9.02733 29.6874 8.99823C29.6152 8.92338 29.5369 8.85462 29.4534 8.79265C29.3956 8.74995 29.3354 8.71066 29.273 8.675C28.8289 8.4164 28.2212 8.30198 27.4234 8.4164C27.4234 8.4164 25.9482 8.57673 25.2694 8.60065C24.352 8.63297 23.5549 8.67564 23.136 8.65366C23.0603 8.65164 22.9849 8.64233 22.911 8.62586C25.0761 9.31048 21.5469 14.7952 27.0381 15.4281C27.7253 14.7131 28.2522 14.0705 28.6058 13.4673C28.6073 13.464 28.609 13.4607 28.611 13.4576C28.642 13.4046 28.6724 13.3516 28.7009 13.2992C28.7267 13.2508 28.7513 13.2029 28.7752 13.1557L28.7881 13.1292C28.812 13.0801 28.8353 13.0316 28.8567 12.9831C28.8567 12.9831 28.8567 12.9773 28.8599 12.9747C28.8799 12.9301 28.898 12.8861 28.9155 12.8454L28.9291 12.8099C28.9472 12.7633 28.964 12.7174 28.9795 12.6709C28.9982 12.6657 29.017 12.6599 29.0351 12.6534L29.092 12.6334C29.1466 12.6123 29.1998 12.5874 29.251 12.559C29.2807 12.5429 29.3098 12.5261 29.3383 12.5073C29.3538 12.4978 29.3693 12.4875 29.3848 12.4763C29.4475 12.4326 29.5067 12.3842 29.562 12.3315L29.5684 12.3263C29.836 12.0556 30.0303 11.7212 30.1328 11.3546C30.2211 11.066 30.2624 10.7649 30.255 10.4631Z" fill="url(#paint12_linear_448_1755)"/>
<path style="mix-blend-mode:multiply" d="M15.3922 8.89143C15.5368 8.89264 15.6812 8.88183 15.824 8.85911C15.8324 8.85654 15.8415 8.85664 15.8498 8.8594C15.8582 8.86217 15.8655 8.86745 15.8708 8.87454C15.876 8.88163 15.8789 8.89016 15.8791 8.89898C15.8793 8.90779 15.8768 8.91645 15.8718 8.92376C15.4904 9.71763 15.1607 10.4753 15.3017 11.3765C15.3619 11.7724 15.498 12.1531 15.7025 12.4975C15.7313 12.5104 15.7611 12.5227 15.7917 12.5343C16.4737 9.61613 21.8977 11.4101 22.9081 8.62444C21.2667 8.3387 19.8697 6.67014 19.4598 5.84459L19.4501 5.82649C19.4305 5.77747 19.3923 5.73822 19.3438 5.71737C19.2953 5.69652 19.2405 5.69577 19.1915 5.7153C19.0299 5.76249 18.7771 5.91441 18.3285 6.10318L18.2923 6.1187H18.289C18.1869 6.16136 18.0757 6.20532 17.9535 6.24799C16.8661 6.78327 15.9468 7.81246 15.3922 8.89143Z" fill="url(#paint13_radial_448_1755)"/>
<path style="mix-blend-mode:multiply" opacity="0.83" d="M15.3922 8.89143C15.5368 8.89264 15.6812 8.88183 15.824 8.85911C15.8324 8.85654 15.8415 8.85664 15.8498 8.8594C15.8582 8.86217 15.8655 8.86745 15.8708 8.87454C15.876 8.88163 15.8789 8.89016 15.8791 8.89898C15.8793 8.90779 15.8768 8.91645 15.8718 8.92376C15.4904 9.71763 15.1607 10.4753 15.3017 11.3765C15.358 11.7419 15.4779 12.0946 15.6559 12.4186C15.6859 12.4719 15.7337 12.5129 15.791 12.5343C16.4731 9.61613 21.897 11.4101 22.9074 8.62444C21.266 8.3387 19.869 6.67014 19.4591 5.84459L19.4494 5.82649C19.4299 5.77747 19.3917 5.73822 19.3432 5.71737C19.2947 5.69652 19.2399 5.69577 19.1909 5.7153C19.0292 5.76249 18.7765 5.91441 18.3278 6.10318L18.2916 6.1187H18.2884C18.1862 6.16136 18.075 6.20532 17.9529 6.24799C16.8661 6.78327 15.9468 7.81246 15.3922 8.89143Z" fill="url(#paint14_linear_448_1755)"/>
<path style="mix-blend-mode:multiply" d="M19.609 8.38846C18.585 8.50482 18.1544 10.4766 17.5403 10.8942C18.6425 10.5412 20.046 10.4785 21.1638 10.1094C21.3067 8.79961 20.4992 8.28696 19.609 8.38846Z" fill="url(#paint15_linear_448_1755)"/>
<path style="mix-blend-mode:multiply" d="M19.9053 9.35828C19.3759 9.38931 19.0914 10.3577 18.7662 10.6073C19.4082 10.4916 20.0766 10.3972 20.6895 10.244C20.7632 9.60459 20.3637 9.33113 19.9053 9.35828Z" fill="url(#paint16_linear_448_1755)"/>
<path d="M81.0998 23.8782C80.7296 23.8764 80.3597 23.8548 79.9918 23.8135V25.7187H77.2966V13.1719H79.4947L79.7041 14.2386C80.5613 13.4628 81.5653 12.9424 82.61 12.9424C85.1196 12.9424 86.3337 15.2005 86.3337 17.9817C86.3337 22.1191 84.1157 23.8782 81.105 23.8782M81.8582 15.0118C81.3565 15.0118 80.6667 15.3053 79.997 15.8903V21.7461C80.3525 21.8922 80.7915 21.9549 81.2518 21.9549C82.6094 21.9549 83.5726 20.8462 83.5726 18.3579C83.5726 16.2039 82.9261 15.0118 81.8582 15.0118Z" fill="#004A8E"/>
<path d="M45.6463 24.1399C42.8212 24.1399 41.3873 22.342 41.3873 18.7024C41.3873 15.298 43.1632 12.9707 45.9676 12.9707C47.2522 12.9707 48.2794 13.4413 49.05 14.3186L48.0861 15.7318C47.6066 15.2773 46.9709 15.0242 46.3102 15.0246C45.047 15.0246 44.2344 16.1811 44.2344 18.4276C44.2344 21.0387 44.9404 22.0673 46.1816 22.0673C47.0375 22.0673 47.7441 21.788 48.4501 21.168L49.286 22.5799C48.4501 23.4365 47.2735 24.1431 45.6463 24.1431" fill="#004A8E"/>
<path d="M54.3151 24.1609C51.3614 24.1609 49.5848 22.727 49.5848 18.788C49.5848 14.8296 51.5753 12.9697 54.7651 12.9697C57.7188 12.9697 59.4947 14.4036 59.4947 18.3206C59.4947 22.3016 57.5042 24.1628 54.3151 24.1628M54.509 15.0022C53.2445 15.0003 52.408 15.8802 52.408 18.3187C52.408 21.3364 53.1579 22.1277 54.5711 22.1277C55.8337 22.1277 56.6683 21.2504 56.6683 18.8106C56.6683 15.7929 55.8977 15.0003 54.5065 15.0003" fill="#004A8E"/>
<path d="M75.6111 23.9262H72.85C72.85 21.7644 72.9146 19.5599 72.9146 18.318C72.9146 15.7496 72.4434 15.1716 71.5234 15.1716C70.9668 15.1716 70.1969 15.5782 69.4896 16.1349C69.5543 16.4775 69.5969 16.9695 69.5969 17.7401V23.9262H66.8565V18.318C66.8565 15.7929 66.3859 15.1716 65.4873 15.1716C64.974 15.1716 64.2667 15.5142 63.5614 16.0495V23.9262H60.7997V13.2031H63.0688L63.2628 14.337C64.1187 13.5451 65.2112 12.9678 66.4305 12.9678C67.7571 12.9678 68.6343 13.6304 69.0416 14.5083C70.0689 13.5884 71.1814 12.9678 72.4679 12.9678C74.5658 12.9678 75.6783 14.337 75.6783 17.8047C75.6783 19.1306 75.6137 21.5717 75.6137 23.9262" fill="#004A8E"/>
<path d="M94.0817 23.9252L93.8877 22.834C92.9678 23.6259 91.9832 24.1605 90.614 24.1605C88.4522 24.1605 87.2963 23.0906 87.2963 21.1008C87.2963 18.8737 89.0721 17.3977 92.8185 17.3977H93.4817V16.5845C93.4817 15.4926 92.8611 14.9573 91.4912 14.9573C90.378 14.9573 89.2014 15.2573 88.2375 15.5999L87.8736 13.93C89.1368 13.3734 90.5926 12.9668 92.1972 12.9668C94.937 12.9668 96.1995 14.272 96.1995 16.3052V23.9252H94.0817ZM93.4824 19.0669H92.6691C90.5713 19.0669 89.9934 19.7735 89.9934 20.7581C89.9934 21.6567 90.4853 22.2133 91.4272 22.2133C92.0912 22.2133 92.8191 21.8494 93.4824 21.2714V19.0669Z" fill="#004A8E"/>
<path d="M103.905 15.6424C103.6 15.5465 103.282 15.496 102.962 15.4924C102.363 15.4924 101.849 15.899 100.886 17.1189V23.9257H98.1263V13.2032H100.395L100.609 14.8724C101.701 13.4386 102.428 12.9893 103.199 12.9893C103.562 12.9892 103.92 13.0696 104.247 13.2246L103.905 15.6424Z" fill="#004A8E"/>
<path d="M106.989 19.1129V19.2622C106.989 21.232 107.866 22.0673 109.385 22.0673C110.348 22.0673 111.611 21.8733 112.876 21.4467L113.264 23.0292C111.959 23.7145 110.42 24.1638 108.855 24.1638C106.029 24.1638 104.189 22.7732 104.189 18.8556C104.189 15.0246 106.029 12.9727 109.047 12.9727C111.787 12.9727 113.607 14.5132 113.328 19.1142L106.989 19.1129ZM110.669 17.3584C110.669 15.6452 110.07 14.8112 108.914 14.8112C107.737 14.8112 107.095 15.9025 107.009 17.401H110.669V17.3584Z" fill="#004A8E"/>
<path d="M156.49 23.9262H153.73C153.73 21.7644 153.795 19.5599 153.795 18.318C153.795 15.7496 153.323 15.1716 152.404 15.1716C151.846 15.1716 151.077 15.5782 150.369 16.1349C150.434 16.4775 150.477 16.9695 150.477 17.7401V23.9262H147.737V18.318C147.737 15.7929 147.265 15.1716 146.367 15.1716C145.85 15.1716 145.148 15.5142 144.441 16.0495V23.9262H141.68V13.2031H143.949L144.143 14.337C144.999 13.5451 146.09 12.9678 147.31 12.9678C148.636 12.9678 149.514 13.6304 149.921 14.5083C150.948 13.5884 152.061 12.9678 153.348 12.9678C155.444 12.9678 156.558 14.337 156.558 17.8047C156.558 19.1306 156.493 21.5717 156.493 23.9262" fill="#004A8E"/>
<path d="M164.604 23.9252L164.41 22.834C163.489 23.6259 162.505 24.1605 161.135 24.1605C158.972 24.1605 157.817 23.0906 157.817 21.1008C157.817 18.8737 159.593 17.3977 163.339 17.3977H164.002V16.5845C164.002 15.4926 163.381 14.9573 162.012 14.9573C160.899 14.9573 159.722 15.2573 158.758 15.5999L158.394 13.93C159.658 13.3734 161.114 12.9668 162.718 12.9668C165.458 12.9668 166.72 14.272 166.72 16.3052V23.9252H164.604ZM164.004 19.0669H163.191C161.094 19.0669 160.516 19.7735 160.516 20.7581C160.516 21.6567 161.008 22.2133 161.949 22.2133C162.613 22.2133 163.341 21.8494 164.004 21.2714V19.0669Z" fill="#004A8E"/>
<path d="M174.642 15.6424C174.336 15.5469 174.018 15.4966 173.698 15.4931C173.1 15.4931 172.587 15.8997 171.623 17.1196V23.9257H168.862V13.2032H171.131L171.345 14.8724C172.437 13.4386 173.164 12.9893 173.935 12.9893C174.298 12.9893 174.655 13.0696 174.983 13.2246L174.642 15.6424Z" fill="#004A8E"/>
<path d="M181.663 23.9263L178.795 18.6188V23.9263H176.032V11.4189H178.795V17.3336L181.255 13.2032H184.466L181.276 17.6768L184.894 23.9263H181.663Z" fill="#004A8E"/>
<path d="M187.677 19.1129V19.2622C187.677 21.232 188.556 22.0673 190.075 22.0673C191.038 22.0673 192.3 21.8733 193.566 21.4467L193.954 23.0299C192.648 23.7145 191.109 24.1638 189.544 24.1638C186.719 24.1638 184.879 22.7732 184.879 18.8556C184.879 15.0246 186.719 12.9727 189.737 12.9727C192.477 12.9727 194.296 14.5132 194.018 19.1142L187.677 19.1129ZM191.359 17.3584C191.359 15.6452 190.76 14.8112 189.604 14.8112C188.427 14.8112 187.785 15.9025 187.699 17.401H191.359V17.3584Z" fill="#004A8E"/>
<path d="M198.657 24.1397C196.668 24.1397 195.938 23.3904 195.938 21.3359V15.1297H194.568V13.2026H196.024C196.28 12.6214 196.502 12.0259 196.688 11.4189H198.679V13.2032H201.054V15.1291H198.679V20.6506C198.679 21.7425 198.937 22.0845 199.663 22.0845C199.987 22.0845 200.435 22.0418 201.119 21.8492L201.333 23.4331C200.327 23.9502 199.471 24.1397 198.657 24.1397Z" fill="#004A8E"/>
<path d="M118.302 24.0751C116.519 24.0751 115.883 23.3116 115.883 21.2539V14.6126H114.186V13.3843H115.904C116.074 12.4508 116.223 12.5316 116.35 11.4287H117.56V13.3843H120.381V14.6126H117.56V20.8291C117.56 22.2721 117.792 22.7808 118.81 22.7808C119.171 22.7808 119.659 22.7162 120.444 22.4414L120.657 23.4596C119.808 23.863 119.002 24.0751 118.302 24.0751Z" fill="#004A8E"/>
<path d="M130.118 23.9047H128.463C128.463 21.9103 128.505 19.5985 128.505 18.3043C128.505 15.5244 127.784 14.5702 126.49 14.5702C125.79 14.5702 124.836 15.0157 123.904 15.8218V23.9028H122.227V11.4258H123.902V14.5289C124.773 13.808 125.812 13.2133 127.064 13.2133C128.973 13.2133 130.182 14.4228 130.182 17.8808C130.182 19.1538 130.118 21.7209 130.118 23.906" fill="#004A8E"/>
<path d="M133.386 18.8537V19.0657C133.386 21.6963 134.404 22.7571 136.292 22.7571C137.349 22.749 138.394 22.5328 139.368 22.121L139.687 23.1179C138.515 23.7344 137.213 24.0618 135.888 24.0727C133.343 24.0727 131.646 22.6938 131.646 18.9604C131.646 15.289 133.237 13.21 135.952 13.21C138.435 13.21 139.941 14.8016 139.708 18.8537H133.386ZM138.074 17.6441C138.074 15.6284 137.353 14.4195 135.846 14.4195C134.295 14.4195 133.492 15.9258 133.386 17.7295H138.074V17.6441Z" fill="#004A8E"/>
<path d="M204.693 13.9698C204.19 13.9653 203.7 13.8121 203.284 13.5295C202.868 13.2469 202.545 12.8475 202.355 12.3816C202.166 11.9157 202.118 11.4042 202.219 10.9114C202.32 10.4186 202.564 9.96667 202.921 9.61242C203.278 9.25818 203.732 9.0175 204.225 8.9207C204.719 8.82389 205.23 8.8753 205.694 9.06843C206.159 9.26156 206.556 9.58779 206.835 10.006C207.114 10.4243 207.264 10.9158 207.264 11.4188C207.267 11.7562 207.202 12.0908 207.074 12.4029C206.945 12.7149 206.756 12.9981 206.516 13.2358C206.277 13.4735 205.992 13.6608 205.679 13.7869C205.366 13.9129 205.031 13.9751 204.693 13.9698ZM204.693 9.30932C204.277 9.30817 203.869 9.43064 203.522 9.66123C203.175 9.89182 202.904 10.2202 202.744 10.6047C202.583 10.9893 202.54 11.4128 202.621 11.8217C202.701 12.2305 202.901 12.6064 203.195 12.9016C203.489 13.1969 203.864 13.3984 204.272 13.4805C204.681 13.5626 205.105 13.5217 205.49 13.3629C205.875 13.2042 206.205 12.9347 206.437 12.5886C206.669 12.2426 206.793 11.8355 206.794 11.4188C206.796 11.142 206.743 10.8675 206.638 10.6113C206.533 10.3551 206.379 10.1221 206.183 9.92599C205.988 9.72983 205.756 9.57434 205.5 9.46849C205.244 9.36264 204.97 9.30854 204.693 9.30932ZM204.957 11.5481L205.726 12.7996H205.118L204.475 11.6289H204.384V12.7996H203.89V9.99652H204.624C205.324 9.99652 205.6 10.3411 205.6 10.7658C205.6 11.1227 205.359 11.4097 204.957 11.5481ZM204.569 10.3889H204.386V11.25H204.603C204.913 11.25 205.097 11.0561 205.097 10.8253C205.095 10.5603 204.957 10.3883 204.567 10.3883L204.569 10.3889Z" fill="#004A8E"/>
</g>
<defs>
<linearGradient id="paint0_linear_448_1755" x1="8.34245" y1="2.95635" x2="28.3063" y2="33.6982" gradientUnits="userSpaceOnUse">
<stop stop-color="#D6D6D6"/>
<stop offset="0.03" stop-color="#E0E0E0"/>
<stop offset="0.09" stop-color="#EBEBEB"/>
<stop offset="0.15" stop-color="#EFEFEF"/>
<stop offset="0.64" stop-color="#EFEFEF"/>
<stop offset="0.73" stop-color="#EFEFEF"/>
<stop offset="0.8" stop-color="#EAEAEA"/>
<stop offset="0.88" stop-color="#DADADA"/>
<stop offset="0.98" stop-color="#C0C0C0"/>
<stop offset="1" stop-color="#BABABA"/>
</linearGradient>
<linearGradient id="paint1_linear_448_1755" x1="8.72105" y1="31.3637" x2="34.6538" y2="35.1927" gradientUnits="userSpaceOnUse">
<stop offset="0.1" stop-color="#641724"/>
<stop offset="0.21" stop-color="#711825"/>
<stop offset="0.42" stop-color="#941B26"/>
<stop offset="0.58" stop-color="#B31E28"/>
<stop offset="1" stop-color="#D2202F"/>
</linearGradient>
<linearGradient id="paint2_linear_448_1755" x1="9.91113" y1="30.9063" x2="32.4966" y2="34.2495" gradientUnits="userSpaceOnUse">
<stop offset="0.08" stop-color="#95191D"/>
<stop offset="0.2" stop-color="#9A2327" stop-opacity="0.96"/>
<stop offset="0.36" stop-color="#A63F42" stop-opacity="0.84"/>
<stop offset="0.56" stop-color="#BC6D6F" stop-opacity="0.64"/>
<stop offset="0.77" stop-color="#D9ADAE" stop-opacity="0.36"/>
<stop offset="1" stop-color="white" stop-opacity="0"/>
</linearGradient>
<linearGradient id="paint3_linear_448_1755" x1="12.5753" y1="46.7053" x2="14.5528" y2="33.346" gradientUnits="userSpaceOnUse">
<stop stop-color="white" stop-opacity="0"/>
<stop offset="1" stop-color="#95191D"/>
</linearGradient>
<linearGradient id="paint4_linear_448_1755" x1="17.764" y1="30.3897" x2="30.1053" y2="30.3897" gradientUnits="userSpaceOnUse">
<stop stop-color="#B59F2C"/>
<stop offset="0.87" stop-color="#F0EEC5"/>
</linearGradient>
<linearGradient id="paint5_linear_448_1755" x1="11.7375" y1="29.5388" x2="19.7919" y2="25.788" gradientUnits="userSpaceOnUse">
<stop stop-color="#B59F2C"/>
<stop offset="0.87" stop-color="#F0EEC5"/>
</linearGradient>
<linearGradient id="paint6_linear_448_1755" x1="8.5872" y1="23.0525" x2="29.3048" y2="7.44008" gradientUnits="userSpaceOnUse">
<stop stop-color="#25130E"/>
<stop offset="0.02" stop-color="#2A1711"/>
<stop offset="0.46" stop-color="#AC8864"/>
<stop offset="0.66" stop-color="#E0B585"/>
<stop offset="0.8" stop-color="#E9C08F"/>
<stop offset="1" stop-color="#FBD6A4"/>
</linearGradient>
<linearGradient id="paint7_linear_448_1755" x1="21.732" y1="26.5175" x2="18.3703" y2="15.0943" gradientUnits="userSpaceOnUse">
<stop stop-color="#6A4634"/>
<stop offset="0.17" stop-color="#93796B" stop-opacity="0.73"/>
<stop offset="0.4" stop-color="#C2B3AB" stop-opacity="0.41"/>
<stop offset="0.62" stop-color="#E3DDDA" stop-opacity="0.18"/>
<stop offset="0.83" stop-color="#F8F6F5" stop-opacity="0.05"/>
<stop offset="1" stop-color="white" stop-opacity="0"/>
</linearGradient>
<linearGradient id="paint8_linear_448_1755" x1="22.3434" y1="15.6459" x2="3.98088" y2="24.7521" gradientUnits="userSpaceOnUse">
<stop stop-color="white"/>
<stop offset="0.11" stop-color="#FBFAFA"/>
<stop offset="0.24" stop-color="#F0EDEB"/>
<stop offset="0.39" stop-color="#DFD7D3"/>
<stop offset="0.54" stop-color="#C6B8B1"/>
<stop offset="0.7" stop-color="#A59085"/>
<stop offset="0.86" stop-color="#7F6050"/>
<stop offset="1" stop-color="#5A321E"/>
</linearGradient>
<linearGradient id="paint9_linear_448_1755" x1="7.83363" y1="13.6815" x2="13.8756" y2="14.6202" gradientUnits="userSpaceOnUse">
<stop offset="0.1" stop-color="#5B331F"/>
<stop offset="0.47" stop-color="#B3A197" stop-opacity="0.78"/>
<stop offset="0.74" stop-color="#EAE5E2" stop-opacity="0.65"/>
<stop offset="0.88" stop-color="white" stop-opacity="0.6"/>
</linearGradient>
<linearGradient id="paint10_linear_448_1755" x1="27.5719" y1="10.4641" x2="30.4067" y2="8.88607" gradientUnits="userSpaceOnUse">
<stop offset="0.14" stop-color="white"/>
<stop offset="0.3" stop-color="#DAD2CD"/>
<stop offset="0.55" stop-color="#A48E83"/>
<stop offset="0.76" stop-color="#7C5C4C"/>
<stop offset="0.92" stop-color="#633E2B"/>
<stop offset="1" stop-color="#5A321E"/>
</linearGradient>
<radialGradient id="paint11_radial_448_1755" cx="0" cy="0" r="1" gradientUnits="userSpaceOnUse" gradientTransform="translate(28.4255 10.9719) rotate(-10.9722) scale(10.0745 7.30336)">
<stop offset="0.21" stop-color="#5A321E"/>
<stop offset="0.49" stop-color="#5E3724" stop-opacity="0.97"/>
<stop offset="0.63" stop-color="#6D4938" stop-opacity="0.89"/>
<stop offset="0.75" stop-color="#86685A" stop-opacity="0.74"/>
<stop offset="0.85" stop-color="#A9948A" stop-opacity="0.52"/>
<stop offset="0.94" stop-color="#D6CCC7" stop-opacity="0.25"/>
<stop offset="1" stop-color="white" stop-opacity="0"/>
</radialGradient>
<linearGradient id="paint12_linear_448_1755" x1="23.4747" y1="12.6534" x2="30.1108" y2="9.86128" gradientUnits="userSpaceOnUse">
<stop offset="0.21" stop-color="white" stop-opacity="0.2"/>
<stop offset="0.44" stop-color="#C1B2AB" stop-opacity="0.51"/>
<stop offset="0.76" stop-color="#816354" stop-opacity="0.84"/>
<stop offset="0.96" stop-color="#6A4634" stop-opacity="0.96"/>
</linearGradient>
<radialGradient id="paint13_radial_448_1755" cx="0" cy="0" r="1" gradientUnits="userSpaceOnUse" gradientTransform="translate(22.239 10.2961) scale(6.40593 5.44504)">
<stop stop-color="#623C29"/>
<stop offset="0.02" stop-color="#684432" stop-opacity="0.98"/>
<stop offset="0.23" stop-color="#9E877B" stop-opacity="0.85"/>
<stop offset="0.43" stop-color="#C9BBB5" stop-opacity="0.74"/>
<stop offset="0.63" stop-color="#E7E1DE" stop-opacity="0.66"/>
<stop offset="0.82" stop-color="#F9F7F7" stop-opacity="0.62"/>
<stop offset="1" stop-color="white" stop-opacity="0.6"/>
</radialGradient>
<linearGradient id="paint14_linear_448_1755" x1="14.7664" y1="9.11447" x2="23.2423" y2="9.11447" gradientUnits="userSpaceOnUse">
<stop stop-color="#FEFDFD"/>
<stop offset="0.11" stop-color="#D8CEC9"/>
<stop offset="0.22" stop-color="#B6A59C"/>
<stop offset="0.33" stop-color="#9A8175"/>
<stop offset="0.45" stop-color="#836556"/>
<stop offset="0.57" stop-color="#714E3D"/>
<stop offset="0.7" stop-color="#643E2C"/>
<stop offset="0.84" stop-color="#5C3521"/>
<stop offset="1" stop-color="#5A321E"/>
</linearGradient>
<linearGradient id="paint15_linear_448_1755" x1="17.5377" y1="9.63551" x2="21.1787" y2="9.63551" gradientUnits="userSpaceOnUse">
<stop stop-color="white" stop-opacity="0"/>
<stop offset="0.16" stop-color="#DDD5D0" stop-opacity="0.21"/>
<stop offset="0.52" stop-color="#967C70" stop-opacity="0.64"/>
<stop offset="0.82" stop-color="#6A4634" stop-opacity="0.9"/>
<stop offset="1" stop-color="#5A321E"/>
</linearGradient>
<linearGradient id="paint16_linear_448_1755" x1="18.7662" y1="9.98148" x2="20.6986" y2="9.98148" gradientUnits="userSpaceOnUse">
<stop stop-color="white"/>
<stop offset="1" stop-color="#25130E"/>
</linearGradient>
<clipPath id="clip0_448_1755">
<rect width="208" height="38" fill="white"/>
</clipPath>
</defs>
</svg>
