<svg width="118" height="32" viewBox="0 0 118 32" fill="none" xmlns="http://www.w3.org/2000/svg">
<g clip-path="url(#clip0_448_1772)">
<path d="M70.0009 13.6436C69.6773 13.6429 69.3541 13.6238 69.0325 13.5862V15.3286H66.6761V3.84212H68.5946L68.7771 4.81844C69.5265 4.11112 70.4036 3.63184 71.3159 3.63184C73.5094 3.63184 74.5741 5.69918 74.5741 8.24444C74.5741 12.035 72.6361 13.6436 70.0048 13.6436M70.6629 5.52576C70.225 5.52576 69.6203 5.79886 69.0364 6.33003V11.6909C69.3873 11.8271 69.7597 11.8919 70.1338 11.8821C71.3198 11.8821 72.1617 10.8675 72.1617 8.58991C72.1617 6.61815 71.5948 5.52576 70.6629 5.52576Z" fill="#004A8E"/>
<path d="M39.0222 13.8822C36.5537 13.8822 35.2999 12.2354 35.2999 8.9036C35.2999 5.78894 36.8522 3.65332 39.3024 3.65332C40.4245 3.65332 41.3225 4.08481 41.9963 4.88225L41.1543 6.17537C40.7346 5.76031 40.1793 5.52922 39.6021 5.52949C38.4982 5.52949 37.7879 6.58774 37.7879 8.64416C37.7879 11.0351 38.4044 11.9759 39.49 11.9759C40.2381 11.9759 40.8546 11.7206 41.4724 11.1567L42.2022 12.4498C41.7951 12.9053 41.3023 13.2675 40.7551 13.5138C40.2078 13.7601 39.6178 13.885 39.0222 13.8808" fill="#004A8E"/>
<path d="M46.5966 13.9081C44.0161 13.9081 42.4639 12.5945 42.4639 8.99238C42.4639 5.39023 44.2038 3.66699 46.9902 3.66699C49.5708 3.66699 51.123 4.98059 51.123 8.56635C51.123 12.2108 49.3831 13.9149 46.5966 13.9149M46.7661 5.52815C45.6622 5.52815 44.9323 6.33105 44.9323 8.56635C44.9323 11.3287 45.584 12.0524 46.8221 12.0524C47.9247 12.0524 48.6545 11.2509 48.6545 9.01559C48.6545 6.25322 47.982 5.52815 46.7661 5.52815Z" fill="#004A8E"/>
<path d="M65.2043 13.6855H62.7919C62.7919 11.7069 62.848 9.68876 62.848 8.55267C62.848 6.20131 62.4361 5.6715 61.632 5.6715C61.1459 5.6715 60.4734 6.04428 59.8556 6.55361C59.9288 7.03943 59.9602 7.53116 59.9494 8.02287V13.6855H57.5553V8.55267C57.5553 6.23955 57.1434 5.6715 56.3588 5.6715C55.9105 5.6715 55.2914 5.9842 54.6763 6.47578V13.6855H52.2626V3.86907H54.241L54.4091 4.90683C55.1572 4.18176 56.1112 3.65332 57.1773 3.65332C58.3373 3.65332 59.1036 4.26096 59.4594 5.06386C60.3574 4.22136 61.3283 3.65332 62.457 3.65332C64.2894 3.65332 65.2617 4.90683 65.2617 8.08158C65.2617 9.2955 65.2056 11.5308 65.2056 13.6801" fill="#004A8E"/>
<path d="M81.3498 13.6855L81.1816 12.686C80.3775 13.4111 79.5173 13.9013 78.3209 13.9013C76.4324 13.9013 75.4224 12.9209 75.4224 11.0993C75.4224 9.06063 76.9733 7.71017 80.2446 7.71017H80.8245V6.96462C80.8245 5.96508 80.2811 5.47488 79.0846 5.47488C78.1124 5.47488 77.0841 5.74797 76.2421 6.0634L75.9241 4.53542C77.1114 3.96809 78.3989 3.66761 79.7037 3.65332C82.0979 3.65332 83.2018 4.84812 83.2018 6.70927V13.6855H81.3498ZM80.8284 9.23815H80.1168C78.2844 9.23815 77.7787 9.88402 77.7787 10.7852C77.7787 11.6045 78.2088 12.118 79.0325 12.118C79.6125 12.118 80.2485 11.7848 80.8284 11.2563V9.23815Z" fill="#004A8E"/>
<path d="M89.9268 6.104C89.6605 6.01667 89.3834 5.97066 89.1044 5.96745C88.5831 5.96745 88.1321 6.34023 87.2902 7.45719V13.6879H84.8778V3.87007H86.8601L87.0478 5.39804C88.0005 4.08581 88.6365 3.6748 89.3103 3.6748C89.6259 3.67505 89.9375 3.74874 90.2226 3.89055L89.9268 6.104Z" fill="#004A8E"/>
<path d="M92.6226 9.27639V9.41294C92.6226 11.2154 93.3889 11.98 94.717 11.98C95.7573 11.9602 96.7883 11.769 97.7719 11.4134L98.1082 12.8621C96.9214 13.5288 95.5994 13.8875 94.253 13.9081C91.7767 13.9081 90.1763 12.6341 90.1763 9.04836C90.1763 5.54043 91.7832 3.66016 94.4211 3.66016C96.8153 3.66016 98.4053 5.0707 98.1616 9.28322L92.6226 9.27639ZM95.8378 7.67058C95.8378 6.10301 95.3165 5.33834 94.3051 5.33834C93.2938 5.33834 92.7151 6.33787 92.6408 7.71018H95.8378V7.67058Z" fill="#004A8E"/>
<path d="M72.0667 28.1207H69.6529C69.6529 26.1421 69.7103 24.1239 69.7103 22.9878C69.7103 20.6365 69.2984 20.1067 68.4956 20.1067C68.0082 20.1067 67.3357 20.4794 66.7179 20.9888C66.7911 21.4746 66.8225 21.9663 66.8117 22.458V28.1207H64.4176V22.9878C64.4176 20.6761 64.0057 20.1067 63.2212 20.1067C62.7715 20.1067 62.1551 20.4207 61.5373 20.9109V28.1207H59.1249V18.3042H61.1072L61.2792 19.3434C62.0273 18.6183 62.9813 18.0898 64.0474 18.0898C65.2061 18.0898 65.9737 18.6961 66.3295 19.499C67.2275 18.6579 68.1998 18.0898 69.3271 18.0898C71.1596 18.0898 72.1318 19.3434 72.1318 22.5167C72.1318 23.732 72.0758 25.966 72.0758 28.1152" fill="#004A8E"/>
<path d="M79.1539 28.1201L78.9871 27.1206C78.1817 27.8456 77.3215 28.3358 76.1199 28.3358C74.2301 28.3358 73.2213 27.3568 73.2213 25.5339C73.2213 23.4952 74.7722 22.1447 78.0435 22.1447H78.6222V21.4006C78.6222 20.3997 78.08 19.9108 76.8836 19.9108C75.9113 19.9108 74.883 20.1839 74.0411 20.4993L73.7231 18.97C74.9104 18.4028 76.1978 18.1023 77.5026 18.0879C79.8981 18.0879 81.0007 19.2827 81.0007 21.1452V28.1201H79.1539ZM78.6326 23.6727H77.9223C76.0899 23.6727 75.5855 24.32 75.5855 25.2212C75.5855 26.0405 76.0156 26.5525 76.838 26.5525C77.4179 26.5525 78.054 26.2193 78.6326 25.6909V23.6727Z" fill="#004A8E"/>
<path d="M87.9253 20.5376C87.6586 20.45 87.3811 20.404 87.1016 20.401C86.5803 20.401 86.1307 20.7725 85.2887 21.8894V28.1201H82.8763V18.3037H84.8587L85.045 19.833C85.999 18.5194 86.6351 18.1084 87.3089 18.1084C87.6244 18.1088 87.936 18.1825 88.2212 18.3241L87.9253 20.5376Z" fill="#004A8E"/>
<path d="M94.0598 28.1205L91.5536 23.2621V28.1205H89.1399V16.6709H91.5536V22.085L93.7027 18.304H96.5088L93.721 22.3991L96.8828 28.1205H94.0598Z" fill="#004A8E"/>
<path d="M99.3157 23.7129V23.8495C99.3157 25.6519 100.083 26.4166 101.41 26.4166C102.449 26.3956 103.478 26.2039 104.46 25.8485L104.796 27.2987C103.609 27.9618 102.288 28.3176 100.944 28.3364C98.4673 28.3364 96.8668 27.0624 96.8668 23.4767C96.8668 19.9701 98.4738 18.0898 101.112 18.0898C103.506 18.0898 105.095 19.499 104.852 23.7129H99.3157ZM102.532 22.1016C102.532 20.5341 102.011 19.7708 101 19.7708C99.9882 19.7708 99.4096 20.7689 99.3353 22.1412H102.532V22.1016Z" fill="#004A8E"/>
<path d="M108.909 28.3177C107.171 28.3177 106.533 27.6349 106.533 25.7506V20.0674H105.337V18.3046H106.61C106.834 17.7708 107.027 17.2237 107.189 16.666H108.928V18.3046H111.004V20.0674H108.928V25.1197C108.928 26.1193 109.152 26.432 109.789 26.432C110.221 26.4224 110.649 26.3497 111.061 26.2162L111.247 27.6664C110.368 28.1374 109.621 28.3136 108.909 28.3136" fill="#004A8E"/>
<path d="M38.697 28.258C37.133 28.258 36.5843 27.5589 36.5843 25.6745V19.5954H35.1012V18.4689H36.6026C36.7512 17.6141 36.8802 17.6878 36.9936 16.6787H38.0506V18.4689H40.5151V19.5954H38.0493V25.2854C38.0493 26.6071 38.2526 27.0728 39.1414 27.0728C39.4568 27.0728 39.8843 27.0141 40.5751 26.7628L40.7601 27.6941C40.0185 28.0641 39.3135 28.258 38.7022 28.258" fill="#004A8E"/>
<path d="M49.0284 28.1092H47.5818C47.5818 26.2835 47.6195 24.167 47.6195 22.9818C47.6195 20.4379 46.9888 19.5681 45.8575 19.5681C45.2462 19.5681 44.4121 19.9777 43.5963 20.7137V28.1092H42.1274V16.6787H43.591V19.5176C44.3509 18.858 45.2593 18.3132 46.3527 18.3132C48.0223 18.3132 49.0779 19.4206 49.0779 22.5858C49.0779 23.7519 49.0232 26.1019 49.0232 28.1023" fill="#004A8E"/>
<path d="M51.8773 23.4805V23.6744C51.8773 26.0817 52.7675 27.0539 54.4161 27.0539C55.3415 27.0469 56.2565 26.8488 57.1088 26.4709L57.3877 27.3844C56.3632 27.9479 55.2252 28.2475 54.0682 28.2583C51.8434 28.2583 50.3616 26.9952 50.3616 23.5774C50.3616 20.217 51.7509 18.3135 54.1242 18.3135C56.2929 18.3135 57.6092 19.7704 57.4059 23.4805H51.8773ZM55.9736 22.3744C55.9736 20.5297 55.3441 19.4223 54.0278 19.4223C52.6749 19.4223 51.9698 20.8014 51.8773 22.4523H55.9736V22.3744Z" fill="#004A8E"/>
<path d="M114.657 19.3621C114.15 19.3573 113.656 19.1953 113.236 18.8966C112.817 18.598 112.492 18.176 112.301 17.6838C112.11 17.1916 112.062 16.6512 112.164 16.1308C112.266 15.6103 112.512 15.1331 112.872 14.7591C113.233 14.3852 113.69 14.1313 114.188 14.0294C114.686 13.9276 115.201 13.9823 115.669 14.1867C116.137 14.3911 116.537 14.736 116.818 15.1781C117.099 15.6201 117.249 16.1395 117.249 16.6707C117.252 17.027 117.186 17.3801 117.057 17.7095C116.927 18.0388 116.736 18.3376 116.494 18.5884C116.253 18.8391 115.966 19.0367 115.65 19.1696C115.335 19.3025 114.997 19.368 114.657 19.3621ZM114.657 14.4395C114.237 14.4382 113.826 14.5675 113.476 14.811C113.126 15.0545 112.852 15.4013 112.69 15.8075C112.528 16.2138 112.485 16.6613 112.566 17.0933C112.647 17.5254 112.848 17.9226 113.144 18.2348C113.441 18.5469 113.819 18.76 114.231 18.8471C114.643 18.9341 115.07 18.8912 115.458 18.7238C115.847 18.5564 116.18 18.272 116.414 17.9065C116.648 17.5411 116.774 17.111 116.775 16.6707C116.777 16.3781 116.724 16.0878 116.619 15.8168C116.514 15.5457 116.358 15.2993 116.161 15.0918C115.964 14.8842 115.729 14.7197 115.471 14.6078C115.213 14.4958 114.937 14.4386 114.657 14.4395ZM114.924 16.8046L115.698 18.125H115.086L114.434 16.8961H114.342V18.125H113.844V15.1674H114.584C115.291 15.1674 115.568 15.5306 115.568 15.9798C115.572 16.3553 115.328 16.6585 114.924 16.8046ZM114.533 15.5756H114.348V16.485H114.567C114.88 16.485 115.065 16.2789 115.065 16.0358C115.062 15.7613 114.924 15.5797 114.531 15.5797L114.533 15.5756Z" fill="#004A8E"/>
<path d="M15.3381 31.8373C24.0852 31.8373 31.1762 24.7464 31.1762 15.9992C31.1762 7.25209 24.0852 0.161133 15.3381 0.161133C6.59095 0.161133 -0.5 7.25209 -0.5 15.9992C-0.5 24.7464 6.59095 31.8373 15.3381 31.8373Z" fill="url(#paint0_linear_448_1772)"/>
<path d="M8.49886 23.9678C8.44299 25.8759 8.03511 27.7538 7.31433 29.6569C9.45896 30.9157 11.8696 31.6525 14.3515 31.8078C16.8334 31.9631 19.3171 31.5325 21.6019 30.5509C18.4858 27.2733 13.898 24.6321 8.49886 23.9678Z" fill="url(#paint1_linear_448_1772)"/>
<path style="mix-blend-mode:multiply" opacity="0.55" d="M8.49833 23.9668C8.46876 24.9595 8.3468 25.9474 8.13403 26.9175C12.1141 27.1934 15.8892 28.7856 18.8647 31.4433C19.8017 31.2295 20.7172 30.9302 21.5997 30.5493C18.4853 27.2751 13.8974 24.6323 8.49833 23.9668Z" fill="url(#paint2_linear_448_1772)"/>
<path style="mix-blend-mode:multiply" d="M8.45813 30.2702C10.5279 31.2686 12.7909 31.8025 15.0887 31.8347C13.6148 29.0527 11.016 27.867 8.45813 30.2702Z" fill="url(#paint3_linear_448_1772)"/>
<path d="M18.8836 22.4052C17.3711 22.1185 15.8927 22.4432 14.854 22.9991L14.8646 23.0036C16.9822 23.9579 16.3173 25.015 17.0068 26.8947C18.6974 27.8994 20.2433 29.1297 21.6019 30.5516C22.5342 30.1494 23.4256 29.6585 24.2638 29.0855C24.2638 29.0821 24.2638 29.0771 24.2593 29.0737C22.7719 24.4552 20.799 22.7689 18.8836 22.4052Z" fill="url(#paint4_linear_448_1772)"/>
<path d="M14.8646 23.0032L14.854 22.9988C11.9335 21.75 8.3441 21.6243 8.34913 21.6617C8.47373 22.5344 8.52289 23.1116 8.49887 23.9682C11.2088 24.3053 13.8314 25.1484 16.2302 26.4535C16.4932 26.5965 16.752 26.7438 17.0068 26.8954C16.3179 25.0164 16.9822 23.9576 14.8646 23.0032Z" fill="url(#paint5_linear_448_1772)"/>
<path d="M23.2033 7.43047C23.2033 7.43047 21.9254 7.56904 21.3393 7.58971C20.3604 7.6238 19.5257 7.67353 19.3005 7.61151C17.8818 7.36454 16.6744 5.92243 16.3202 5.20892L16.3118 5.19327C16.2949 5.1509 16.2618 5.11698 16.2199 5.09896C16.178 5.08094 16.1307 5.08029 16.0883 5.09717C15.9486 5.13796 15.7301 5.26926 15.3424 5.43241L15.3111 5.44582H15.3083C15.0002 5.57148 14.6846 5.67803 14.3634 5.76486C12.8716 6.17386 11.349 6.23588 9.26101 7.28073C7.20652 8.30993 5.6454 9.84256 4.93189 11.6596C3.54285 15.1797 5.13471 17.7219 7.0227 19.3702C7.70373 19.9683 8.1702 20.7729 8.35082 21.6611C8.3458 21.6236 11.9352 21.7493 14.8557 22.9981C15.8787 22.45 17.3298 22.1276 18.8194 22.3925C18.0372 20.876 18.7373 19.8781 18.963 19.501C19.2334 19.0478 19.3273 18.9489 19.6966 18.5718C19.5933 18.536 19.4033 18.5226 19.3541 18.3762C19.3541 18.3762 20.2827 17.5487 20.8504 16.6112C20.857 16.6008 20.8628 16.5899 20.8677 16.5787C21.3986 15.4512 21.7992 14.5338 21.7992 14.5338C23.2731 13.1632 24.218 12.0753 24.5459 11.1025C26.0696 10.6773 26.3579 6.98851 23.2033 7.43047Z" fill="url(#paint6_linear_448_1772)"/>
<path style="mix-blend-mode:multiply" opacity="0.87" d="M18.8172 22.393C18.0349 20.8765 18.735 19.8786 18.9608 19.5015C19.2312 19.0483 19.3251 18.9494 19.6944 18.5723C19.591 18.5365 19.4011 18.5231 19.3519 18.3767C19.3519 18.3767 20.2777 17.5515 20.846 16.6161C20.8538 16.6027 20.861 16.5888 20.8677 16.5748C21.3974 15.4495 21.7969 14.5343 21.7969 14.5343C23.2709 13.1637 24.2157 12.0758 24.5437 11.103C26.0668 10.6778 26.354 6.98901 23.2027 7.43098C23.2027 7.43098 21.9249 7.56955 21.3388 7.59022C20.3599 7.6243 19.5251 7.67403 19.2999 7.61201C17.8813 7.36505 16.6738 5.92238 16.319 5.20607C16.1414 4.84792 15.9363 5.33011 14.3634 5.76202C12.8716 6.17102 11.349 6.23304 9.26101 7.27788C7.20652 8.30709 5.6454 9.83971 4.93189 11.6567C3.54285 15.1768 5.13471 17.7191 7.0227 19.3674C7.70373 19.9654 8.1702 20.77 8.35082 21.6582C8.3458 21.6208 11.9352 21.7465 14.8557 22.9953C15.8765 22.4505 17.3276 22.1281 18.8172 22.393Z" fill="url(#paint7_linear_448_1772)"/>
<path style="mix-blend-mode:multiply" d="M20.8904 16.5306V16.5413C20.3512 17.466 19.4349 18.3019 19.3577 18.3711L19.3533 18.375C19.4024 18.5214 19.5924 18.5348 19.6958 18.5706C19.3265 18.9478 19.2326 19.0467 18.9622 19.4998C18.7387 19.8781 18.033 20.8693 18.8152 22.3851C18.815 22.3872 18.815 22.3892 18.8152 22.3913H18.8147L18.7789 22.3851L18.7364 22.3779L18.6923 22.3712C18.661 22.366 18.6297 22.3615 18.5984 22.3578L18.5314 22.3477L18.4146 22.3343H18.3956L18.3118 22.3209C18.2464 22.3147 18.1816 22.3097 18.1168 22.3058C17.6392 22.2755 17.1597 22.2996 16.6875 22.3779H16.6808C16.5976 22.3918 16.5132 22.4075 16.4339 22.4242C16.1896 22.4753 15.9488 22.5412 15.7125 22.6215C15.5941 22.6617 15.4801 22.707 15.3689 22.7533C15.3085 22.7779 15.2493 22.8036 15.1912 22.8293C15.1353 22.855 15.0795 22.8813 15.0236 22.9076L15.0113 22.9137C14.9554 22.94 14.9051 22.9668 14.8537 22.9947C14.7822 22.964 14.7107 22.9344 14.6386 22.9053L14.6029 22.8908C14.5364 22.8634 14.4688 22.8349 14.4012 22.8115L14.3492 22.7919C14.2933 22.7679 14.2374 22.7461 14.1777 22.7276L14.1 22.7008C14.0335 22.6774 13.967 22.6539 13.9005 22.6315C13.8212 22.6047 13.7418 22.5785 13.6625 22.5533L13.615 22.5382C13.4597 22.4891 13.3045 22.4425 13.1496 22.3985L13.1026 22.3857C13.0328 22.3661 12.9635 22.3471 12.8937 22.3298L12.8691 22.3231L12.6646 22.27H12.6579C12.5769 22.2499 12.4964 22.2298 12.4159 22.2108L12.3735 22.2008L12.164 22.1521L12.1461 22.1482L11.9086 22.0963L11.8941 22.0935C11.6639 22.0449 11.4387 22.0013 11.2202 21.9627L11.1878 21.9566L10.9856 21.9219H10.9822H10.9722L10.7867 21.8923H10.7732H10.7654L10.6196 21.87H10.6123L10.4799 21.8504L10.4425 21.8448L10.3391 21.8309L10.3017 21.8258L10.1732 21.8091H10.1692L10.0396 21.7929H10.0262L9.91446 21.7789H9.8949C9.80551 21.7683 9.71946 21.7588 9.63621 21.7504H9.62615L9.46914 21.7342H9.45741L9.39874 21.7292L9.36857 21.7264L9.28811 21.7191H9.28141L9.22274 21.7141H9.21994H9.19704L9.05512 21.7029H9.03668L8.89196 21.6929L8.8305 21.6889H8.82324L8.77072 21.6862L8.71484 21.6834H8.70143H8.6612H8.65841H8.61986H8.61706H8.59639H8.55113H8.51593H8.50979H8.46676H8.38854H8.37289H8.36619H8.35837H8.35222C8.34272 21.6426 8.33155 21.6018 8.32093 21.561C8.30529 21.5051 8.28852 21.4453 8.27064 21.3878V21.385C8.23675 21.2732 8.19857 21.165 8.1561 21.0604C8.1561 21.0559 8.15219 21.0509 8.15051 21.0458C8.09089 20.8826 8.01763 20.7246 7.93149 20.5737L7.9002 20.5178L7.87114 20.4664C7.84432 20.4178 7.8365 20.4044 7.80689 20.3586C7.75921 20.2804 7.70948 20.2036 7.6577 20.1284C7.62753 20.0848 7.5968 20.0423 7.56495 19.9999L7.55378 19.9842C7.47351 19.8743 7.38675 19.7692 7.29396 19.6697C7.24535 19.6138 7.19563 19.5635 7.14422 19.5121C7.07941 19.4467 7.01292 19.3825 6.94363 19.321C6.871 19.2567 6.79892 19.1903 6.7274 19.1226L6.71399 19.1104C6.64359 19.0433 6.57319 18.9746 6.5039 18.9053L6.50055 18.9014L6.49776 18.8986C6.42736 18.8274 6.35789 18.7552 6.28935 18.6818V18.679C6.2195 18.6041 6.15134 18.5281 6.08373 18.4505V18.4477C6.03288 18.389 5.98316 18.3292 5.93343 18.2689C5.17578 17.3414 4.59748 16.2233 4.45612 14.9053C4.36616 14.0616 4.45612 13.1363 4.79136 12.1266V12.1233C4.81315 12.0613 4.83327 11.9992 4.85562 11.9372V11.9316C4.33319 17.1548 7.62586 18.0929 10.9699 17.7627C10.7475 17.9588 10.5123 18.1401 10.2659 18.3052C10.2436 18.3214 10.2402 18.3661 10.2743 18.3723C11.2046 18.5321 12.0773 18.1292 12.9121 17.7666C12.7398 18.0047 12.5461 18.2265 12.3333 18.4292C12.3282 18.4344 12.3248 18.4409 12.3235 18.448C12.3221 18.455 12.3228 18.4623 12.3256 18.469C12.3283 18.4756 12.3329 18.4813 12.3389 18.4854C12.3448 18.4894 12.3518 18.4917 12.359 18.4918C13.5703 18.4779 14.6124 17.7135 15.5438 17.014C15.4963 17.1553 15.4494 17.2972 15.4024 17.4386C15.4004 17.4448 15.4002 17.4514 15.4016 17.4577C15.4031 17.4641 15.4063 17.4699 15.4109 17.4745C15.4154 17.4792 15.4211 17.4825 15.4274 17.4841C15.4337 17.4858 15.4403 17.4857 15.4466 17.4839C16.3014 17.2045 17.011 16.6457 17.5647 15.954C17.6901 15.7737 17.8519 15.6217 18.0398 15.5078C18.2276 15.394 18.4372 15.3208 18.6551 15.2931C18.8729 15.2653 19.0942 15.2836 19.3046 15.3467C19.5149 15.4098 19.7097 15.5164 19.8763 15.6596L20.8904 16.5306Z" fill="url(#paint8_linear_448_1772)"/>
<path style="mix-blend-mode:multiply" d="M8.90902 13.4661C8.62406 13.0878 8.42403 12.5754 8.48885 12.0955C8.33184 12.1804 8.17986 12.2743 8.02174 12.3564C8.0161 12.3596 8.00972 12.3613 8.00324 12.3613C7.99676 12.3613 7.99039 12.3596 7.98476 12.3564C7.97912 12.3532 7.97442 12.3485 7.97111 12.343C7.9678 12.3374 7.96599 12.3311 7.96587 12.3246C8.00107 11.8558 8.24188 11.4703 8.39274 11.0395C8.18428 11.0726 7.97808 11.1187 7.77533 11.1775C7.76805 11.1797 7.76025 11.1796 7.75302 11.1772C7.74578 11.1748 7.73946 11.1703 7.73493 11.1641C7.7304 11.158 7.72787 11.1506 7.72771 11.143C7.72754 11.1354 7.72973 11.1279 7.73399 11.1216C8.2268 10.3706 9.06882 9.87728 9.90861 9.58729L9.92873 9.54204C9.97649 9.45719 9.99606 9.35936 9.9846 9.26267V9.25205C9.74769 8.3251 7.81333 9.11236 6.90482 10.1907C6.04547 11.2104 5.82198 12.5676 6.08067 13.7063C6.34887 14.8842 7.13334 15.8296 8.26423 15.924C8.5149 15.9464 8.76752 15.9308 9.01351 15.8776L9.03977 15.8715C9.22089 15.8289 9.39601 15.764 9.56107 15.6781C10.0679 15.4133 10.4098 14.7774 10.2148 14.1382C9.73875 13.9622 9.24259 13.908 8.90902 13.4661Z" fill="url(#paint9_linear_448_1772)"/>
<path style="mix-blend-mode:multiply" d="M23.2845 7.42181L23.275 7.43634C23.2255 7.52783 23.1892 7.62583 23.1671 7.72744L23.1716 7.73135C23.2569 7.80884 23.3576 7.86747 23.4672 7.90345C23.5968 7.94535 23.6482 8.01519 23.7203 8.13476C23.764 8.21975 23.8002 8.30837 23.8287 8.39961C23.8431 8.43642 23.8607 8.47194 23.8812 8.50577C24.6472 8.75776 25.725 8.87789 25.6032 9.74841C25.8362 8.59573 25.2529 7.1849 23.2845 7.42181Z" fill="url(#paint10_linear_448_1772)"/>
<path style="mix-blend-mode:multiply" opacity="0.8" d="M24.5465 11.1025C21.3617 13.114 18.3959 11.0355 16.6202 12.3228C16.4587 12.462 15.2429 13.6565 15.0144 13.9477C14.9674 14.0074 14.6233 14.3974 14.6612 14.5902C14.6847 14.7081 15.0082 15.3104 15.3384 15.2853C15.4843 15.2529 16.4258 15.1651 16.5526 15.2506C16.6526 15.3182 17.5611 15.4563 17.598 15.5619C17.7723 16.0647 18.2981 14.8098 18.7021 15.1322C19.0021 15.3724 20.6577 16.3793 20.8912 16.529C20.97 16.3614 21.046 16.1988 21.1147 16.0435L21.1192 16.0351L21.1683 15.9273L21.1711 15.9211C21.2237 15.8094 21.274 15.6976 21.3214 15.5943C21.6008 14.9651 21.7969 14.5327 21.7969 14.5327C23.2692 13.1632 24.214 12.0775 24.5426 11.1042L24.5465 11.1025Z" fill="url(#paint11_radial_448_1772)"/>
<path style="mix-blend-mode:multiply" opacity="0.71" d="M25.6498 9.2028C25.6498 9.14413 25.6442 9.08602 25.6386 9.02847C25.633 8.97092 25.6252 8.9212 25.6157 8.86812C25.6101 8.83515 25.6034 8.80274 25.5962 8.77089C25.5643 8.63005 25.5167 8.49323 25.4542 8.36301C25.4168 8.28532 25.3735 8.2106 25.3246 8.13952C25.2944 8.09649 25.2626 8.05459 25.2285 8.01436C25.2062 7.9881 25.1832 7.96184 25.1592 7.93669C25.0968 7.872 25.0292 7.81257 24.957 7.75901C24.907 7.7221 24.855 7.68815 24.8011 7.65732C24.4172 7.43383 23.892 7.33493 23.2025 7.43383C23.2025 7.43383 21.9275 7.57239 21.3408 7.59307C20.5479 7.621 19.859 7.65788 19.4969 7.63888C19.4315 7.63713 19.3664 7.62909 19.3025 7.61486C21.1737 8.20656 18.1235 12.9469 22.8695 13.4939C23.4634 12.876 23.9188 12.3206 24.2244 11.7993C24.2257 11.7964 24.2272 11.7936 24.2289 11.7909C24.2557 11.7451 24.282 11.6993 24.3066 11.654C24.3289 11.6121 24.3502 11.5707 24.3708 11.53L24.382 11.5071C24.4027 11.4646 24.4228 11.4227 24.4412 11.3808C24.4412 11.3808 24.4412 11.3757 24.444 11.3735C24.4614 11.335 24.477 11.297 24.4921 11.2618L24.5038 11.231C24.5195 11.1908 24.534 11.1511 24.5474 11.1109C24.5636 11.1064 24.5798 11.1014 24.5954 11.0958L24.6446 11.0785C24.6919 11.0603 24.7378 11.0388 24.7821 11.0142C24.8078 11.0003 24.8329 10.9857 24.8575 10.9695C24.8709 10.9613 24.8843 10.9524 24.8977 10.9427C24.9519 10.905 25.0031 10.8631 25.0508 10.8176L25.0564 10.8131C25.2877 10.5792 25.4556 10.2901 25.5442 9.97331C25.6205 9.72381 25.6562 9.46364 25.6498 9.2028Z" fill="url(#paint12_linear_448_1772)"/>
<path style="mix-blend-mode:multiply" d="M12.804 7.84422C12.9289 7.84526 13.0538 7.83592 13.1772 7.81628C13.1845 7.81406 13.1923 7.81415 13.1995 7.81653C13.2068 7.81892 13.2131 7.82349 13.2176 7.82962C13.2221 7.83574 13.2247 7.84312 13.2248 7.85074C13.225 7.85835 13.2228 7.86584 13.2185 7.87216C12.8889 8.55829 12.6039 9.21314 12.7257 9.99202C12.7778 10.3342 12.8955 10.6632 13.0722 10.9609C13.0971 10.9721 13.1228 10.9827 13.1493 10.9927C13.7387 8.47057 18.4266 10.0211 19.2999 7.61346C17.8812 7.36649 16.6738 5.92438 16.3196 5.21087L16.3112 5.19523C16.2943 5.15285 16.2612 5.11893 16.2193 5.10091C16.1774 5.08289 16.1301 5.08225 16.0877 5.09912C15.948 5.13991 15.7295 5.27121 15.3418 5.43437L15.3105 5.44778H15.3077C15.2194 5.48465 15.1233 5.52265 15.0177 5.55952C14.0779 6.02216 13.2834 6.91168 12.804 7.84422Z" fill="url(#paint13_radial_448_1772)"/>
<path style="mix-blend-mode:multiply" opacity="0.83" d="M12.804 7.84422C12.9289 7.84526 13.0538 7.83592 13.1772 7.81628C13.1845 7.81406 13.1923 7.81415 13.1995 7.81653C13.2068 7.81892 13.2131 7.82349 13.2176 7.82962C13.2221 7.83574 13.2247 7.84312 13.2248 7.85074C13.225 7.85835 13.2228 7.86584 13.2185 7.87216C12.8889 8.55829 12.6039 9.21314 12.7257 9.99202C12.7745 10.3078 12.8781 10.6126 13.0319 10.8927C13.0578 10.9388 13.0992 10.9742 13.1487 10.9927C13.7382 8.47057 18.426 10.0211 19.2993 7.61346C17.8807 7.36649 16.6732 5.92438 16.319 5.21087L16.3106 5.19523C16.2937 5.15285 16.2607 5.11893 16.2188 5.10091C16.1769 5.08289 16.1295 5.08225 16.0871 5.09912C15.9474 5.13991 15.729 5.27121 15.3412 5.43437L15.3099 5.44778H15.3071C15.2188 5.48465 15.1227 5.52265 15.0171 5.55952C14.0779 6.02216 13.2834 6.91168 12.804 7.84422Z" fill="url(#paint14_linear_448_1772)"/>
<path style="mix-blend-mode:multiply" d="M16.4486 7.40922C15.5636 7.5098 15.1914 9.21396 14.6606 9.5749C15.6133 9.26983 16.8263 9.21563 17.7924 8.89659C17.9159 7.76458 17.218 7.3215 16.4486 7.40922Z" fill="url(#paint15_linear_448_1772)"/>
<path style="mix-blend-mode:multiply" d="M16.7047 8.24768C16.2471 8.2745 16.0013 9.11149 15.7202 9.32717C16.275 9.22715 16.8528 9.14558 17.3825 9.01315C17.4462 8.46056 17.1009 8.22421 16.7047 8.24768Z" fill="url(#paint16_linear_448_1772)"/>
</g>
<defs>
<linearGradient id="paint0_linear_448_1772" x1="6.71112" y1="2.71458" x2="23.9656" y2="29.2844" gradientUnits="userSpaceOnUse">
<stop stop-color="#D6D6D6"/>
<stop offset="0.03" stop-color="#E0E0E0"/>
<stop offset="0.09" stop-color="#EBEBEB"/>
<stop offset="0.15" stop-color="#EFEFEF"/>
<stop offset="0.64" stop-color="#EFEFEF"/>
<stop offset="0.73" stop-color="#EFEFEF"/>
<stop offset="0.8" stop-color="#EAEAEA"/>
<stop offset="0.88" stop-color="#DADADA"/>
<stop offset="0.98" stop-color="#C0C0C0"/>
<stop offset="1" stop-color="#BABABA"/>
</linearGradient>
<linearGradient id="paint1_linear_448_1772" x1="7.03831" y1="27.2666" x2="29.4517" y2="30.576" gradientUnits="userSpaceOnUse">
<stop offset="0.1" stop-color="#641724"/>
<stop offset="0.21" stop-color="#711825"/>
<stop offset="0.42" stop-color="#941B26"/>
<stop offset="0.58" stop-color="#B31E28"/>
<stop offset="1" stop-color="#D2202F"/>
</linearGradient>
<linearGradient id="paint2_linear_448_1772" x1="8.06683" y1="26.872" x2="27.5872" y2="29.7614" gradientUnits="userSpaceOnUse">
<stop offset="0.08" stop-color="#95191D"/>
<stop offset="0.2" stop-color="#9A2327" stop-opacity="0.96"/>
<stop offset="0.36" stop-color="#A63F42" stop-opacity="0.84"/>
<stop offset="0.56" stop-color="#BC6D6F" stop-opacity="0.64"/>
<stop offset="0.77" stop-color="#D9ADAE" stop-opacity="0.36"/>
<stop offset="1" stop-color="white" stop-opacity="0"/>
</linearGradient>
<linearGradient id="paint3_linear_448_1772" x1="10.3694" y1="40.5272" x2="12.0786" y2="28.9809" gradientUnits="userSpaceOnUse">
<stop stop-color="white" stop-opacity="0"/>
<stop offset="1" stop-color="#95191D"/>
</linearGradient>
<linearGradient id="paint4_linear_448_1772" x1="14.854" y1="26.4253" x2="25.5204" y2="26.4253" gradientUnits="userSpaceOnUse">
<stop stop-color="#B59F2C"/>
<stop offset="0.87" stop-color="#F0EEC5"/>
</linearGradient>
<linearGradient id="paint5_linear_448_1772" x1="9.64541" y1="25.6897" x2="16.6068" y2="22.4478" gradientUnits="userSpaceOnUse">
<stop stop-color="#B59F2C"/>
<stop offset="0.87" stop-color="#F0EEC5"/>
</linearGradient>
<linearGradient id="paint6_linear_448_1772" x1="6.92268" y1="20.0832" x2="24.8287" y2="6.58957" gradientUnits="userSpaceOnUse">
<stop stop-color="#25130E"/>
<stop offset="0.02" stop-color="#2A1711"/>
<stop offset="0.46" stop-color="#AC8864"/>
<stop offset="0.66" stop-color="#E0B585"/>
<stop offset="0.8" stop-color="#E9C08F"/>
<stop offset="1" stop-color="#FBD6A4"/>
</linearGradient>
<linearGradient id="paint7_linear_448_1772" x1="18.2836" y1="23.0791" x2="15.3781" y2="13.2061" gradientUnits="userSpaceOnUse">
<stop stop-color="#6A4634"/>
<stop offset="0.17" stop-color="#93796B" stop-opacity="0.73"/>
<stop offset="0.4" stop-color="#C2B3AB" stop-opacity="0.41"/>
<stop offset="0.62" stop-color="#E3DDDA" stop-opacity="0.18"/>
<stop offset="0.83" stop-color="#F8F6F5" stop-opacity="0.05"/>
<stop offset="1" stop-color="white" stop-opacity="0"/>
</linearGradient>
<linearGradient id="paint8_linear_448_1772" x1="18.8119" y1="13.6816" x2="2.94137" y2="21.552" gradientUnits="userSpaceOnUse">
<stop stop-color="white"/>
<stop offset="0.11" stop-color="#FBFAFA"/>
<stop offset="0.24" stop-color="#F0EDEB"/>
<stop offset="0.39" stop-color="#DFD7D3"/>
<stop offset="0.54" stop-color="#C6B8B1"/>
<stop offset="0.7" stop-color="#A59085"/>
<stop offset="0.86" stop-color="#7F6050"/>
<stop offset="1" stop-color="#5A321E"/>
</linearGradient>
<linearGradient id="paint9_linear_448_1772" x1="6.2712" y1="11.9849" x2="11.4932" y2="12.7961" gradientUnits="userSpaceOnUse">
<stop offset="0.1" stop-color="#5B331F"/>
<stop offset="0.47" stop-color="#B3A197" stop-opacity="0.78"/>
<stop offset="0.74" stop-color="#EAE5E2" stop-opacity="0.65"/>
<stop offset="0.88" stop-color="white" stop-opacity="0.6"/>
</linearGradient>
<linearGradient id="paint10_linear_448_1772" x1="23.3308" y1="9.20364" x2="25.7809" y2="7.83975" gradientUnits="userSpaceOnUse">
<stop offset="0.14" stop-color="white"/>
<stop offset="0.3" stop-color="#DAD2CD"/>
<stop offset="0.55" stop-color="#A48E83"/>
<stop offset="0.76" stop-color="#7C5C4C"/>
<stop offset="0.92" stop-color="#633E2B"/>
<stop offset="1" stop-color="#5A321E"/>
</linearGradient>
<radialGradient id="paint11_radial_448_1772" cx="0" cy="0" r="1" gradientUnits="userSpaceOnUse" gradientTransform="translate(24.0686 9.64172) rotate(-10.9722) scale(8.70723 6.3122)">
<stop offset="0.21" stop-color="#5A321E"/>
<stop offset="0.49" stop-color="#5E3724" stop-opacity="0.97"/>
<stop offset="0.63" stop-color="#6D4938" stop-opacity="0.89"/>
<stop offset="0.75" stop-color="#86685A" stop-opacity="0.74"/>
<stop offset="0.85" stop-color="#A9948A" stop-opacity="0.52"/>
<stop offset="0.94" stop-color="#D6CCC7" stop-opacity="0.25"/>
<stop offset="1" stop-color="white" stop-opacity="0"/>
</radialGradient>
<linearGradient id="paint12_linear_448_1772" x1="19.7897" y1="11.0958" x2="25.5252" y2="8.68261" gradientUnits="userSpaceOnUse">
<stop offset="0.21" stop-color="white" stop-opacity="0.2"/>
<stop offset="0.44" stop-color="#C1B2AB" stop-opacity="0.51"/>
<stop offset="0.76" stop-color="#816354" stop-opacity="0.84"/>
<stop offset="0.96" stop-color="#6A4634" stop-opacity="0.96"/>
</linearGradient>
<radialGradient id="paint13_radial_448_1772" cx="0" cy="0" r="1" gradientUnits="userSpaceOnUse" gradientTransform="translate(18.7216 9.05822) scale(5.53657 4.70608)">
<stop stop-color="#623C29"/>
<stop offset="0.02" stop-color="#684432" stop-opacity="0.98"/>
<stop offset="0.23" stop-color="#9E877B" stop-opacity="0.85"/>
<stop offset="0.43" stop-color="#C9BBB5" stop-opacity="0.74"/>
<stop offset="0.63" stop-color="#E7E1DE" stop-opacity="0.66"/>
<stop offset="0.82" stop-color="#F9F7F7" stop-opacity="0.62"/>
<stop offset="1" stop-color="white" stop-opacity="0.6"/>
</radialGradient>
<linearGradient id="paint14_linear_448_1772" x1="12.2631" y1="8.03698" x2="19.5888" y2="8.03698" gradientUnits="userSpaceOnUse">
<stop stop-color="#FEFDFD"/>
<stop offset="0.11" stop-color="#D8CEC9"/>
<stop offset="0.22" stop-color="#B6A59C"/>
<stop offset="0.33" stop-color="#9A8175"/>
<stop offset="0.45" stop-color="#836556"/>
<stop offset="0.57" stop-color="#714E3D"/>
<stop offset="0.7" stop-color="#643E2C"/>
<stop offset="0.84" stop-color="#5C3521"/>
<stop offset="1" stop-color="#5A321E"/>
</linearGradient>
<linearGradient id="paint15_linear_448_1772" x1="14.6584" y1="8.48704" x2="17.8052" y2="8.48704" gradientUnits="userSpaceOnUse">
<stop stop-color="white" stop-opacity="0"/>
<stop offset="0.16" stop-color="#DDD5D0" stop-opacity="0.21"/>
<stop offset="0.52" stop-color="#967C70" stop-opacity="0.64"/>
<stop offset="0.82" stop-color="#6A4634" stop-opacity="0.9"/>
<stop offset="1" stop-color="#5A321E"/>
</linearGradient>
<linearGradient id="paint16_linear_448_1772" x1="15.7202" y1="8.78631" x2="17.3903" y2="8.78631" gradientUnits="userSpaceOnUse">
<stop stop-color="white"/>
<stop offset="1" stop-color="#25130E"/>
</linearGradient>
<clipPath id="clip0_448_1772">
<rect width="118" height="32" fill="white"/>
</clipPath>
</defs>
</svg>
