<svg width="227" height="40" viewBox="0 0 227 40" fill="none" xmlns="http://www.w3.org/2000/svg">
<g clip-path="url(#clip0_10511_277)">
<g clip-path="url(#clip1_10511_277)">
<g clip-path="url(#clip2_10511_277)">
<path d="M19.998 39.9998C31.0431 39.9998 39.9969 31.046 39.9969 20.0009C39.9969 8.95578 31.0431 0.00195312 19.998 0.00195312C8.95285 0.00195312 -0.000976562 8.95578 -0.000976562 20.0009C-0.000976562 31.046 8.95285 39.9998 19.998 39.9998Z" fill="url(#paint0_linear_10511_277)"/>
<path d="M11.3619 30.0635C11.2914 32.4729 10.7763 34.8441 9.86621 37.2472C12.5743 38.8367 15.6182 39.7671 18.7521 39.9632C21.8861 40.1593 25.0222 39.6156 27.9073 38.376C23.9726 34.2374 18.1795 30.9024 11.3619 30.0635Z" fill="url(#paint1_linear_10511_277)"/>
<path style="mix-blend-mode:multiply" opacity="0.55" d="M11.3616 30.0617C11.3243 31.3153 11.1703 32.5626 10.9016 33.7876C15.9273 34.1359 20.6942 36.1465 24.4513 39.5024C25.6345 39.2324 26.7906 38.8545 27.9049 38.3736C23.9722 34.2391 18.1791 30.902 11.3616 30.0617Z" fill="url(#paint2_linear_10511_277)"/>
<path style="mix-blend-mode:multiply" d="M11.3105 38.0205C13.9241 39.2811 16.7816 39.9553 19.6831 39.9959C17.8219 36.4831 14.5405 34.986 11.3105 38.0205Z" fill="url(#paint3_linear_10511_277)"/>
<path d="M24.475 28.0893C22.5651 27.7274 20.6983 28.1373 19.3867 28.8393L19.4001 28.845C22.0741 30.05 21.2345 31.3849 22.1051 33.7583C24.2398 35.027 26.1918 36.5805 27.9074 38.376C29.0846 37.8681 30.2102 37.2482 31.2685 36.5247C31.2685 36.5204 31.2685 36.5141 31.2629 36.5098C29.3848 30.6779 26.8936 28.5486 24.475 28.0893Z" fill="url(#paint4_linear_10511_277)"/>
<path d="M19.4 28.8444L19.3866 28.8388C15.6988 27.2619 11.1665 27.1032 11.1729 27.1504C11.3302 28.2525 11.3923 28.9813 11.3619 30.0629C14.7838 30.4886 18.0954 31.5531 21.1243 33.2011C21.4564 33.3817 21.7833 33.5677 22.105 33.7591C21.2351 31.3864 22.074 30.0495 19.4 28.8444Z" fill="url(#paint5_linear_10511_277)"/>
<path d="M29.9294 9.18143C29.9294 9.18143 28.3158 9.3564 27.5757 9.38251C26.3396 9.42555 25.2856 9.48834 25.0013 9.41002C23.2099 9.09818 21.6853 7.27721 21.238 6.37625L21.2274 6.35649C21.206 6.30299 21.1643 6.26015 21.1114 6.2374C21.0585 6.21464 20.9987 6.21383 20.9452 6.23514C20.7688 6.28664 20.4929 6.45244 20.0033 6.65846L19.9638 6.67539H19.9602C19.5712 6.83406 19.1728 6.9686 18.7672 7.07825C16.8834 7.5947 14.9609 7.67301 12.3243 8.99235C9.73007 10.2919 7.75882 12.2272 6.85786 14.5216C5.10391 18.9664 7.11396 22.1766 9.49795 24.2579C10.3579 25.0131 10.9469 26.0291 11.175 27.1506C11.1686 27.1033 15.701 27.262 19.3888 28.8389C20.6806 28.1468 22.5128 27.7397 24.3938 28.0741C23.406 26.1593 24.2901 24.8992 24.5751 24.423C24.9166 23.8508 25.0351 23.7259 25.5015 23.2497C25.3709 23.2045 25.1311 23.1876 25.069 23.0028C25.069 23.0028 26.2416 21.9579 26.9584 20.774C26.9666 20.7609 26.9739 20.7472 26.9803 20.7331C27.6505 19.3093 28.1564 18.1508 28.1564 18.1508C30.0176 16.4202 31.2106 15.0465 31.6248 13.8182C33.5487 13.2813 33.9128 8.62336 29.9294 9.18143Z" fill="url(#paint6_linear_10511_277)"/>
<path style="mix-blend-mode:multiply" opacity="0.87" d="M24.391 28.0738C23.4032 26.159 24.2873 24.8989 24.5723 24.4227C24.9138 23.8505 25.0323 23.7256 25.4986 23.2494C25.3681 23.2043 25.1282 23.1873 25.0662 23.0025C25.0662 23.0025 26.2352 21.9604 26.9527 20.7793C26.9626 20.7624 26.9718 20.7448 26.9803 20.7271C27.6491 19.3062 28.1536 18.1505 28.1536 18.1505C30.0147 16.4199 31.2078 15.0462 31.6219 13.8179C33.5452 13.281 33.9079 8.62307 29.9287 9.18114C29.9287 9.18114 28.3151 9.35612 27.575 9.38222C26.3389 9.42526 25.2849 9.48805 25.0005 9.40974C23.2092 9.09789 21.6846 7.27621 21.2365 6.37172C21.0122 5.91948 20.7533 6.52835 18.7672 7.07373C16.8834 7.59018 14.9609 7.66849 12.3243 8.98783C9.73007 10.2874 7.75882 12.2227 6.85786 14.5171C5.10391 18.9619 7.11396 22.1721 9.49795 24.2534C10.3579 25.0086 10.9469 26.0245 11.175 27.146C11.1686 27.0988 15.701 27.2575 19.3888 28.8344C20.6778 28.1465 22.51 27.7394 24.391 28.0738Z" fill="url(#paint7_linear_10511_277)"/>
<path style="mix-blend-mode:multiply" d="M27.0088 20.6726V20.686C26.328 21.8536 25.1709 22.9091 25.0736 22.9966L25.0679 23.0015C25.13 23.1864 25.3699 23.2033 25.5004 23.2485C25.034 23.7247 24.9155 23.8496 24.574 24.4218C24.2918 24.8994 23.4007 26.151 24.3885 28.0651C24.3882 28.0677 24.3882 28.0703 24.3885 28.0729H24.3878L24.3426 28.0651L24.289 28.0559L24.2333 28.0475C24.1938 28.0409 24.1542 28.0352 24.1147 28.0305L24.0301 28.0178L23.8826 28.0009H23.8586L23.7528 27.984C23.6703 27.9762 23.5884 27.9699 23.5066 27.9649C22.9035 27.9266 22.298 27.9572 21.7018 28.0559H21.6934C21.5882 28.0736 21.4817 28.0933 21.3815 28.1145C21.0731 28.179 20.769 28.2622 20.4707 28.3635C20.3211 28.4143 20.1772 28.4715 20.0368 28.5301C19.9606 28.5611 19.8858 28.5936 19.8124 28.626C19.7419 28.6585 19.6713 28.6916 19.6008 28.7248L19.5852 28.7325C19.5147 28.7657 19.4512 28.7996 19.3863 28.8348C19.296 28.796 19.2057 28.7586 19.1147 28.722L19.0695 28.7036C18.9855 28.669 18.9002 28.6331 18.8148 28.6034L18.7492 28.5787C18.6786 28.5484 18.6081 28.5209 18.5326 28.4976L18.4345 28.4637C18.3506 28.4341 18.2666 28.4045 18.1826 28.3762C18.0825 28.3424 17.9823 28.3092 17.8821 28.2775L17.8221 28.2584C17.626 28.1963 17.4301 28.1375 17.2344 28.082L17.1752 28.0658C17.087 28.0411 16.9995 28.0171 16.9113 27.9953L16.8802 27.9868L16.622 27.9198H16.6136C16.5112 27.8944 16.4097 27.869 16.3081 27.845L16.2544 27.8323L15.9899 27.7709L15.9673 27.766L15.6674 27.7004L15.6491 27.6968C15.3584 27.6354 15.0741 27.5804 14.7982 27.5317L14.7573 27.524L14.5019 27.4802H14.4977H14.485L14.2507 27.4428H14.2338H14.2239L14.0398 27.4146H14.0306L13.8634 27.3899L13.8161 27.3829L13.6856 27.3652L13.6383 27.3589L13.4761 27.3377H13.4711L13.3074 27.3172H13.2905L13.1494 27.2996H13.1247C13.0118 27.2862 12.9032 27.2742 12.798 27.2636H12.7853L12.5871 27.2432H12.5723L12.4982 27.2368L12.4601 27.2333L12.3585 27.2241H12.35L12.276 27.2178H12.2724H12.2435L12.0643 27.2037H12.041L11.8583 27.191L11.7807 27.186H11.7715L11.7052 27.1825L11.6346 27.179H11.6177H11.5669H11.5634H11.5147H11.5112H11.4851H11.4279H11.3835H11.3757H11.3214H11.2226H11.2028H11.1944H11.1845H11.1767C11.1647 27.1275 11.1506 27.076 11.1372 27.0245C11.1175 26.9539 11.0963 26.8784 11.0737 26.8057V26.8022C11.0309 26.6611 10.9827 26.5245 10.9291 26.3923C10.9291 26.3867 10.9242 26.3803 10.922 26.374C10.8468 26.1678 10.7542 25.9684 10.6455 25.7778L10.606 25.7072L10.5693 25.6423C10.5354 25.5809 10.5255 25.564 10.4881 25.5062C10.4279 25.4074 10.3651 25.3105 10.2998 25.2155C10.2617 25.1604 10.2229 25.1068 10.1827 25.0532L10.1685 25.0334C10.0672 24.8946 9.95763 24.762 9.84047 24.6362C9.77909 24.5657 9.7163 24.5022 9.65139 24.4373C9.56955 24.3547 9.48559 24.2736 9.3981 24.196C9.30638 24.1148 9.21537 24.0309 9.12506 23.9455L9.10813 23.93C9.01923 23.8453 8.93034 23.7586 8.84285 23.6711L8.83862 23.6661L8.83509 23.6626C8.74619 23.5728 8.65847 23.4815 8.57193 23.3889V23.3853C8.48374 23.2908 8.39766 23.1948 8.31229 23.0968V23.0932C8.24809 23.0192 8.1853 22.9437 8.12251 22.8675C7.16581 21.6963 6.43558 20.2845 6.25709 18.6202C6.1435 17.5548 6.25709 16.3865 6.6804 15.1116V15.1074C6.70792 15.029 6.73332 14.9507 6.76154 14.8724V14.8654C6.10187 21.4606 10.2596 22.6452 14.4821 22.2283C14.2012 22.476 13.9043 22.7048 13.5932 22.9133C13.565 22.9338 13.5607 22.9902 13.6038 22.998C14.7785 23.1998 15.8805 22.6911 16.9346 22.2332C16.717 22.5339 16.4724 22.814 16.2036 23.07C16.1973 23.0765 16.193 23.0847 16.1913 23.0936C16.1896 23.1025 16.1905 23.1117 16.1939 23.1201C16.1974 23.1285 16.2032 23.1357 16.2107 23.1408C16.2182 23.146 16.227 23.1488 16.2361 23.149C17.7657 23.1313 19.0815 22.1662 20.2576 21.2829C20.1976 21.4614 20.1384 21.6406 20.0791 21.8191C20.0766 21.8269 20.0763 21.8352 20.0781 21.8432C20.08 21.8512 20.084 21.8585 20.0898 21.8644C20.0955 21.8703 20.1027 21.8745 20.1107 21.8766C20.1186 21.8787 20.127 21.8785 20.1348 21.8762C21.2143 21.5234 22.1103 20.8179 22.8095 19.9445C22.9678 19.7168 23.1722 19.5248 23.4093 19.3811C23.6465 19.2373 23.9112 19.1449 24.1863 19.1099C24.4614 19.0748 24.7408 19.0979 25.0064 19.1776C25.272 19.2573 25.5179 19.3919 25.7283 19.5726L27.0088 20.6726Z" fill="url(#paint8_linear_10511_277)"/>
<path style="mix-blend-mode:multiply" d="M11.8801 16.802C11.5203 16.3244 11.2677 15.6774 11.3495 15.0714C11.1513 15.1786 10.9594 15.2971 10.7597 15.4008C10.7526 15.4049 10.7445 15.407 10.7364 15.407C10.7282 15.407 10.7201 15.4048 10.713 15.4008C10.7059 15.3967 10.7 15.3909 10.6958 15.3839C10.6916 15.3768 10.6893 15.3688 10.6892 15.3606C10.7336 14.7687 11.0377 14.2819 11.2282 13.7379C10.965 13.7798 10.7046 13.838 10.4486 13.9122C10.4394 13.915 10.4295 13.9149 10.4204 13.9119C10.4113 13.9088 10.4033 13.9031 10.3976 13.8953C10.3918 13.8876 10.3886 13.8783 10.3884 13.8687C10.3882 13.8591 10.391 13.8496 10.3964 13.8416C11.0186 12.8934 12.0819 12.2704 13.1423 11.9042L13.1677 11.8471C13.228 11.74 13.2527 11.6164 13.2382 11.4943V11.4809C12.9391 10.3104 10.4965 11.3045 9.34936 12.6662C8.26425 13.9538 7.98204 15.6675 8.3087 17.1054C8.64736 18.5927 9.63792 19.7864 11.0659 19.9057C11.3824 19.934 11.7014 19.9142 12.012 19.8471L12.0452 19.8393C12.2739 19.7856 12.495 19.7036 12.7034 19.5952C13.3434 19.2608 13.7751 18.4579 13.5289 17.6508C12.9278 17.4285 12.3013 17.3601 11.8801 16.802Z" fill="url(#paint9_linear_10511_277)"/>
<path style="mix-blend-mode:multiply" d="M30.032 9.16993L30.02 9.18827C29.9575 9.3038 29.9117 9.42754 29.8838 9.55586L29.8894 9.56079C29.9972 9.65863 30.1244 9.73267 30.2627 9.7781C30.4263 9.83101 30.4912 9.9192 30.5823 10.0702C30.6374 10.1775 30.6832 10.2894 30.7191 10.4046C30.7374 10.4511 30.7596 10.4959 30.7855 10.5387C31.7527 10.8569 33.1137 11.0085 32.9599 12.1078C33.2541 10.6522 32.5175 8.87079 30.032 9.16993Z" fill="url(#paint10_linear_10511_277)"/>
<path style="mix-blend-mode:multiply" opacity="0.8" d="M31.6256 13.8184C27.604 16.3583 23.8591 13.7337 21.6169 15.3592C21.413 15.5349 19.8778 17.0433 19.5892 17.4109C19.53 17.4864 19.0954 17.9789 19.1433 18.2223C19.173 18.3711 19.5815 19.1317 19.9984 19.1C20.1826 19.059 21.3714 18.9483 21.5316 19.0562C21.6578 19.1416 22.805 19.3158 22.8516 19.4492C23.0717 20.0842 23.7356 18.4995 24.2457 18.9066C24.6246 19.21 26.7151 20.4814 27.01 20.6705C27.1095 20.4588 27.2054 20.2535 27.2922 20.0574L27.2978 20.0468L27.3599 19.9106L27.3635 19.9028C27.4298 19.7617 27.4933 19.6206 27.5532 19.4901C27.906 18.6957 28.1537 18.1496 28.1537 18.1496C30.0127 16.4204 31.2058 15.0495 31.6206 13.8205L31.6256 13.8184Z" fill="url(#paint11_radial_10511_277)"/>
<path style="mix-blend-mode:multiply" opacity="0.71" d="M33.0187 11.4188C33.0187 11.3447 33.0117 11.2714 33.0046 11.1987C32.9976 11.126 32.9877 11.0632 32.9757 10.9962C32.9686 10.9546 32.9602 10.9137 32.951 10.8734C32.9107 10.6956 32.8506 10.5228 32.7718 10.3584C32.7245 10.2603 32.6698 10.1659 32.6081 10.0762C32.57 10.0219 32.5298 9.96895 32.4868 9.91815C32.4585 9.88499 32.4296 9.85183 32.3993 9.82008C32.3205 9.73839 32.235 9.66335 32.1439 9.59572C32.0808 9.54911 32.0151 9.50624 31.947 9.46731C31.4623 9.1851 30.7991 9.06022 29.9285 9.1851C29.9285 9.1851 28.3185 9.36007 27.5777 9.38618C26.5765 9.42145 25.7066 9.46802 25.2494 9.44403C25.1668 9.44182 25.0846 9.43166 25.0039 9.41369C27.3667 10.1608 23.5152 16.1466 29.508 16.8373C30.258 16.057 30.833 15.3557 31.2189 14.6974C31.2205 14.6937 31.2224 14.6902 31.2246 14.6868C31.2584 14.629 31.2916 14.5711 31.3226 14.514C31.3508 14.4611 31.3777 14.4088 31.4038 14.3573L31.4179 14.3284C31.444 14.2748 31.4694 14.2219 31.4927 14.169C31.4927 14.169 31.4927 14.1626 31.4962 14.1598C31.5181 14.1111 31.5378 14.0631 31.5569 14.0187L31.5717 13.9799C31.5914 13.9291 31.6098 13.879 31.6267 13.8282C31.6472 13.8225 31.6676 13.8162 31.6874 13.8091L31.7495 13.7873C31.8091 13.7643 31.8671 13.7371 31.923 13.7061C31.9555 13.6885 31.9872 13.6702 32.0183 13.6497C32.0352 13.6393 32.0521 13.6281 32.0691 13.6158C32.1375 13.5682 32.2021 13.5153 32.2624 13.4578L32.2694 13.4521C32.5615 13.1567 32.7735 12.7918 32.8854 12.3917C32.9818 12.0767 33.0268 11.7482 33.0187 11.4188Z" fill="url(#paint12_linear_10511_277)"/>
<path style="mix-blend-mode:multiply" d="M16.7981 9.70336C16.9559 9.70468 17.1136 9.69288 17.2694 9.66808C17.2786 9.66528 17.2885 9.66539 17.2976 9.6684C17.3067 9.67142 17.3147 9.67719 17.3204 9.68492C17.3262 9.69266 17.3293 9.70197 17.3296 9.71159C17.3298 9.72121 17.327 9.73066 17.3216 9.73864C16.9054 10.605 16.5455 11.4319 16.6993 12.4154C16.7651 12.8475 16.9137 13.2629 17.1368 13.6388C17.1683 13.6529 17.2007 13.6663 17.2341 13.679C17.9785 10.4943 23.8979 12.4521 25.0006 9.41198C23.2093 9.10013 21.6846 7.27916 21.2373 6.3782L21.2267 6.35845C21.2054 6.30494 21.1637 6.26211 21.1107 6.23935C21.0578 6.2166 20.998 6.21579 20.9445 6.23709C20.7681 6.2886 20.4923 6.4544 20.0026 6.66041L19.9631 6.67734H19.9596C19.8481 6.72391 19.7268 6.77189 19.5934 6.81845C18.4067 7.40263 17.4035 8.52583 16.7981 9.70336Z" fill="url(#paint13_radial_10511_277)"/>
<path style="mix-blend-mode:multiply" opacity="0.83" d="M16.7981 9.70336C16.9559 9.70468 17.1136 9.69288 17.2694 9.66808C17.2786 9.66528 17.2885 9.66539 17.2976 9.6684C17.3067 9.67142 17.3147 9.67719 17.3204 9.68492C17.3262 9.69266 17.3293 9.70197 17.3296 9.71159C17.3298 9.72121 17.327 9.73066 17.3216 9.73864C16.9054 10.605 16.5455 11.4319 16.6993 12.4154C16.7609 12.8142 16.8917 13.1991 17.086 13.5527C17.1186 13.6109 17.1709 13.6557 17.2334 13.679C17.9778 10.4943 23.8972 12.4521 24.9999 9.41198C23.2086 9.10013 21.6839 7.27916 21.2366 6.3782L21.226 6.35845C21.2047 6.30494 21.163 6.26211 21.11 6.23935C21.0571 6.2166 20.9973 6.21579 20.9438 6.23709C20.7674 6.2886 20.4916 6.4544 20.0019 6.66041L19.9624 6.67734H19.9589C19.8474 6.72391 19.7261 6.77189 19.5927 6.81845C18.4067 7.40263 17.4035 8.52583 16.7981 9.70336Z" fill="url(#paint14_linear_10511_277)"/>
<path style="mix-blend-mode:multiply" d="M21.4003 9.15424C20.2827 9.28124 19.8128 11.4331 19.1426 11.8889C20.3455 11.5037 21.8772 11.4352 23.0971 11.0324C23.253 9.60296 22.3718 9.04348 21.4003 9.15424Z" fill="url(#paint15_linear_10511_277)"/>
<path style="mix-blend-mode:multiply" d="M21.7236 10.2131C21.1458 10.2469 20.8354 11.3038 20.4805 11.5761C21.1811 11.4499 21.9106 11.3468 22.5794 11.1796C22.6598 10.4819 22.2238 10.1834 21.7236 10.2131Z" fill="url(#paint16_linear_10511_277)"/>
<path d="M88.508 26.0597C88.104 26.0578 87.7003 26.0342 87.2988 25.9892V28.0684H84.3574V14.3755H86.7562L86.9848 15.5396C87.9203 14.693 89.016 14.125 90.1562 14.125C92.895 14.125 94.22 16.5894 94.22 19.6246C94.22 24.14 91.7993 26.0597 88.5137 26.0597M89.3356 16.3834C88.7882 16.3834 88.0353 16.7037 87.3044 17.3422V23.7329C87.6925 23.8924 88.1715 23.9608 88.6739 23.9608C90.1555 23.9608 91.2067 22.7508 91.2067 20.0352C91.2067 17.6844 90.5012 16.3834 89.3356 16.3834Z" fill="white"/>
<path d="M49.816 26.3447C46.7328 26.3447 45.168 24.3826 45.168 20.4105C45.168 16.6952 47.1061 14.1553 50.1666 14.1553C51.5685 14.1553 52.6896 14.6689 53.5306 15.6263L52.4787 17.1686C51.9553 16.6726 51.2616 16.3963 50.5406 16.3967C49.162 16.3967 48.2751 17.6589 48.2751 20.1106C48.2751 22.9603 49.0456 24.0828 50.4002 24.0828C51.3343 24.0828 52.1054 23.778 52.8759 23.1014L53.7881 24.6423C52.8759 25.5771 51.5918 26.3482 49.816 26.3482" fill="white"/>
<path d="M59.2766 26.3677C56.0531 26.3677 54.1143 24.8029 54.1143 20.5041C54.1143 16.1841 56.2866 14.1543 59.7677 14.1543C62.9912 14.1543 64.9293 15.7192 64.9293 19.994C64.9293 24.3386 62.757 26.3698 59.2766 26.3698M59.4883 16.3725C58.1083 16.3704 57.1953 17.3306 57.1953 19.9918C57.1953 23.2853 58.0137 24.1488 59.556 24.1488C60.9339 24.1488 61.8447 23.1914 61.8447 20.5288C61.8447 17.2353 61.0038 16.3704 59.4855 16.3704" fill="white"/>
<path d="M82.5179 26.1118H79.5046C79.5046 23.7525 79.5751 21.3466 79.5751 19.9913C79.5751 17.1882 79.0608 16.5575 78.0568 16.5575C77.4494 16.5575 76.6091 17.0013 75.8372 17.6087C75.9078 17.9827 75.9544 18.5196 75.9544 19.3606V26.1118H72.9636V19.9913C72.9636 17.2355 72.45 16.5575 71.4693 16.5575C70.9091 16.5575 70.1373 16.9314 69.3675 17.5156V26.1118H66.3535V14.4092H68.8299L69.0416 15.6467C69.9757 14.7824 71.1681 14.1523 72.4987 14.1523C73.9464 14.1523 74.9038 14.8755 75.3483 15.8336C76.4694 14.8297 77.6836 14.1523 79.0876 14.1523C81.3771 14.1523 82.5913 15.6467 82.5913 19.4311C82.5913 20.8782 82.5207 23.5422 82.5207 26.1118" fill="white"/>
<path d="M102.676 26.1108L102.464 24.9199C101.46 25.7841 100.386 26.3676 98.8913 26.3676C96.532 26.3676 95.2705 25.2 95.2705 23.0283C95.2705 20.5978 97.2086 18.9871 101.297 18.9871H102.021V18.0995C102.021 16.9079 101.344 16.3237 99.8487 16.3237C98.6338 16.3237 97.3497 16.6511 96.2978 17.025L95.9005 15.2026C97.2791 14.5951 98.868 14.1514 100.619 14.1514C103.609 14.1514 104.987 15.5758 104.987 17.7947V26.1108H102.676ZM102.022 20.8087H101.134C98.8447 20.8087 98.214 21.5799 98.214 22.6544C98.214 23.6351 98.7509 24.2426 99.7788 24.2426C100.503 24.2426 101.298 23.8453 102.022 23.2146V20.8087Z" fill="white"/>
<path d="M113.397 17.0713C113.063 16.9667 112.716 16.9115 112.367 16.9076C111.713 16.9076 111.153 17.3514 110.102 18.6827V26.1112H107.09V14.4093H109.566L109.8 16.231C110.991 14.6661 111.784 14.1758 112.626 14.1758C113.022 14.1757 113.412 14.2634 113.77 14.4326L113.397 17.0713Z" fill="white"/>
<path d="M116.762 20.8583V21.0213C116.762 23.1711 117.719 24.0826 119.377 24.0826C120.428 24.0826 121.806 23.871 123.187 23.4053L123.61 25.1324C122.187 25.8803 120.506 26.3707 118.799 26.3707C115.714 26.3707 113.706 24.8531 113.706 20.5775C113.706 16.3966 115.714 14.1572 119.008 14.1572C121.998 14.1572 123.984 15.8385 123.68 20.8598L116.762 20.8583ZM120.778 18.9435C120.778 17.0739 120.125 16.1638 118.863 16.1638C117.578 16.1638 116.877 17.3547 116.784 18.9901H120.778V18.9435Z" fill="white"/>
<path d="M170.785 26.1118H167.772C167.772 23.7525 167.843 21.3466 167.843 19.9913C167.843 17.1882 167.328 16.5575 166.325 16.5575C165.717 16.5575 164.877 17.0013 164.105 17.6087C164.176 17.9827 164.222 18.5196 164.222 19.3606V26.1118H161.232V19.9913C161.232 17.2355 160.717 16.5575 159.737 16.5575C159.173 16.5575 158.407 16.9314 157.635 17.5156V26.1118H154.622V14.4092H157.098L157.309 15.6467C158.244 14.7824 159.435 14.1523 160.767 14.1523C162.214 14.1523 163.171 14.8755 163.616 15.8336C164.737 14.8297 165.951 14.1523 167.355 14.1523C169.643 14.1523 170.858 15.6467 170.858 19.4311C170.858 20.8782 170.788 23.5422 170.788 26.1118" fill="white"/>
<path d="M179.64 26.1108L179.428 24.9199C178.423 25.7841 177.349 26.3676 175.854 26.3676C173.494 26.3676 172.232 25.2 172.232 23.0283C172.232 20.5978 174.171 18.9871 178.26 18.9871H178.983V18.0995C178.983 16.9079 178.305 16.3237 176.811 16.3237C175.596 16.3237 174.312 16.6511 173.26 17.025L172.863 15.2026C174.242 14.5951 175.831 14.1514 177.582 14.1514C180.572 14.1514 181.95 15.5758 181.95 17.7947V26.1108H179.64ZM178.985 20.8087H178.098C175.809 20.8087 175.178 21.5799 175.178 22.6544C175.178 23.6351 175.715 24.2426 176.743 24.2426C177.467 24.2426 178.262 23.8453 178.985 23.2146V20.8087Z" fill="white"/>
<path d="M190.595 17.0713C190.261 16.9671 189.914 16.9122 189.565 16.9083C188.912 16.9083 188.352 17.3521 187.3 18.6834V26.1112H184.287V14.4093H186.763L186.996 16.231C188.188 14.6661 188.982 14.1758 189.823 14.1758C190.219 14.1758 190.61 14.2635 190.967 14.4326L190.595 17.0713Z" fill="white"/>
<path d="M198.257 26.1118L195.127 20.3194V26.1118H192.112V12.4619H195.127V18.9168L197.812 14.4092H201.316L197.835 19.2914L201.784 26.1118H198.257Z" fill="white"/>
<path d="M204.821 20.8583V21.0213C204.821 23.1711 205.78 24.0826 207.438 24.0826C208.489 24.0826 209.866 23.871 211.248 23.4053L211.671 25.1332C210.246 25.8803 208.567 26.3707 206.858 26.3707C203.775 26.3707 201.767 24.8531 201.767 20.5775C201.767 16.3966 203.775 14.1572 207.069 14.1572C210.059 14.1572 212.044 15.8385 211.741 20.8598L204.821 20.8583ZM208.839 18.9435C208.839 17.0739 208.186 16.1638 206.923 16.1638C205.639 16.1638 204.938 17.3547 204.845 18.9901H208.839V18.9435Z" fill="white"/>
<path d="M216.804 26.3446C214.632 26.3446 213.837 25.5269 213.837 23.2847V16.5117H212.341V14.4085H213.93C214.209 13.7742 214.451 13.1243 214.655 12.4619H216.827V14.4092H219.42V16.5109H216.827V22.5369C216.827 23.7285 217.109 24.1017 217.902 24.1017C218.255 24.1017 218.744 24.0552 219.491 23.8449L219.724 25.5735C218.626 26.1379 217.692 26.3446 216.804 26.3446Z" fill="white"/>
<path d="M129.108 26.2745C127.163 26.2745 126.468 25.4412 126.468 23.1955V15.9476H124.616V14.6071H126.491C126.677 13.5883 126.839 13.6765 126.978 12.4729H128.298V14.6071H131.377V15.9476H128.298V22.732C128.298 24.3067 128.552 24.862 129.663 24.862C130.057 24.862 130.59 24.7914 131.446 24.4916L131.678 25.6028C130.752 26.0431 129.872 26.2745 129.108 26.2745Z" fill="white"/>
<path d="M142.004 26.0886H140.198C140.198 23.912 140.244 21.389 140.244 19.9766C140.244 16.9428 139.457 15.9014 138.045 15.9014C137.28 15.9014 136.239 16.3875 135.222 17.2673V26.0864H133.392V12.4697H135.22V15.8563C136.17 15.0696 137.304 14.4205 138.67 14.4205C140.755 14.4205 142.074 15.7406 142.074 19.5144C142.074 20.9036 142.003 23.7053 142.003 26.09" fill="white"/>
<path d="M145.57 20.5763V20.8077C145.57 23.6785 146.681 24.8363 148.742 24.8363C149.895 24.8274 151.036 24.5915 152.099 24.142L152.447 25.2299C151.168 25.9028 149.747 26.2601 148.301 26.272C145.524 26.272 143.671 24.7671 143.671 20.6927C143.671 16.686 145.408 14.417 148.371 14.417C151.081 14.417 152.724 16.154 152.47 20.5763H145.57ZM150.687 19.2562C150.687 17.0564 149.9 15.737 148.255 15.737C146.562 15.737 145.686 17.3809 145.57 19.3493H150.687V19.2562Z" fill="white"/>
<path d="M223.391 15.2459C222.842 15.241 222.307 15.0738 221.853 14.7654C221.399 14.457 221.047 14.0211 220.84 13.5127C220.633 13.0042 220.581 12.4459 220.691 11.9082C220.801 11.3704 221.067 10.8771 221.457 10.4905C221.847 10.1039 222.342 9.84124 222.881 9.7356C223.419 9.62995 223.977 9.68605 224.484 9.89682C224.991 10.1076 225.424 10.4636 225.729 10.9201C226.034 11.3765 226.197 11.913 226.197 12.4619C226.2 12.8301 226.129 13.1953 225.989 13.5358C225.849 13.8764 225.642 14.1854 225.381 14.4448C225.119 14.7042 224.808 14.9087 224.467 15.0463C224.125 15.1839 223.76 15.2517 223.391 15.2459ZM223.391 10.1597C222.937 10.1585 222.492 10.2921 222.113 10.5438C221.734 10.7954 221.438 11.1538 221.263 11.5735C221.088 11.9932 221.042 12.4554 221.129 12.9016C221.217 13.3478 221.435 13.758 221.756 14.0802C222.077 14.4024 222.486 14.6223 222.932 14.7119C223.378 14.8015 223.84 14.7568 224.261 14.5836C224.681 14.4103 225.041 14.1163 225.294 13.7386C225.547 13.3609 225.683 12.9166 225.684 12.4619C225.686 12.1598 225.628 11.8603 225.514 11.5806C225.399 11.301 225.231 11.0468 225.018 10.8327C224.804 10.6186 224.551 10.4489 224.272 10.3334C223.993 10.2179 223.693 10.1589 223.391 10.1597ZM223.679 12.603L224.519 13.9689H223.855L223.154 12.6912H223.053V13.9689H222.514V10.9097H223.316C224.08 10.9097 224.381 11.2857 224.381 11.7493C224.381 12.1387 224.118 12.452 223.679 12.603ZM223.256 11.338H223.055V12.2777H223.293C223.631 12.2777 223.832 12.0661 223.832 11.8142C223.829 11.5249 223.679 11.3372 223.254 11.3372L223.256 11.338Z" fill="white"/>
</g>
</g>
</g>
<defs>
<linearGradient id="paint0_linear_10511_277" x1="9.10459" y1="3.22622" x2="30.892" y2="36.7763" gradientUnits="userSpaceOnUse">
<stop stop-color="#D6D6D6"/>
<stop offset="0.03" stop-color="#E0E0E0"/>
<stop offset="0.09" stop-color="#EBEBEB"/>
<stop offset="0.15" stop-color="#EFEFEF"/>
<stop offset="0.64" stop-color="#EFEFEF"/>
<stop offset="0.73" stop-color="#EFEFEF"/>
<stop offset="0.8" stop-color="#EAEAEA"/>
<stop offset="0.88" stop-color="#DADADA"/>
<stop offset="0.98" stop-color="#C0C0C0"/>
<stop offset="1" stop-color="#BABABA"/>
</linearGradient>
<linearGradient id="paint1_linear_10511_277" x1="9.51768" y1="34.2289" x2="37.8193" y2="38.4078" gradientUnits="userSpaceOnUse">
<stop offset="0.1" stop-color="#641724"/>
<stop offset="0.21" stop-color="#711825"/>
<stop offset="0.42" stop-color="#941B26"/>
<stop offset="0.58" stop-color="#B31E28"/>
<stop offset="1" stop-color="#D2202F"/>
</linearGradient>
<linearGradient id="paint2_linear_10511_277" x1="10.8168" y1="33.7301" x2="35.4654" y2="37.3787" gradientUnits="userSpaceOnUse">
<stop offset="0.08" stop-color="#95191D"/>
<stop offset="0.2" stop-color="#9A2327" stop-opacity="0.96"/>
<stop offset="0.36" stop-color="#A63F42" stop-opacity="0.84"/>
<stop offset="0.56" stop-color="#BC6D6F" stop-opacity="0.64"/>
<stop offset="0.77" stop-color="#D9ADAE" stop-opacity="0.36"/>
<stop offset="1" stop-color="white" stop-opacity="0"/>
</linearGradient>
<linearGradient id="paint3_linear_10511_277" x1="13.724" y1="50.9721" x2="15.8821" y2="36.3924" gradientUnits="userSpaceOnUse">
<stop stop-color="white" stop-opacity="0"/>
<stop offset="1" stop-color="#95191D"/>
</linearGradient>
<linearGradient id="paint4_linear_10511_277" x1="19.3867" y1="33.1656" x2="32.8553" y2="33.1656" gradientUnits="userSpaceOnUse">
<stop stop-color="#B59F2C"/>
<stop offset="0.87" stop-color="#F0EEC5"/>
</linearGradient>
<linearGradient id="paint5_linear_10511_277" x1="12.8097" y1="32.2366" x2="21.5999" y2="28.1431" gradientUnits="userSpaceOnUse">
<stop stop-color="#B59F2C"/>
<stop offset="0.87" stop-color="#F0EEC5"/>
</linearGradient>
<linearGradient id="paint6_linear_10511_277" x1="9.37166" y1="25.1581" x2="31.9818" y2="8.11962" gradientUnits="userSpaceOnUse">
<stop stop-color="#25130E"/>
<stop offset="0.02" stop-color="#2A1711"/>
<stop offset="0.46" stop-color="#AC8864"/>
<stop offset="0.66" stop-color="#E0B585"/>
<stop offset="0.8" stop-color="#E9C08F"/>
<stop offset="1" stop-color="#FBD6A4"/>
</linearGradient>
<linearGradient id="paint7_linear_10511_277" x1="23.7172" y1="28.9402" x2="20.0484" y2="16.4735" gradientUnits="userSpaceOnUse">
<stop stop-color="#6A4634"/>
<stop offset="0.17" stop-color="#93796B" stop-opacity="0.73"/>
<stop offset="0.4" stop-color="#C2B3AB" stop-opacity="0.41"/>
<stop offset="0.62" stop-color="#E3DDDA" stop-opacity="0.18"/>
<stop offset="0.83" stop-color="#F8F6F5" stop-opacity="0.05"/>
<stop offset="1" stop-color="white" stop-opacity="0"/>
</linearGradient>
<linearGradient id="paint8_linear_10511_277" x1="24.3843" y1="17.0751" x2="4.34439" y2="27.0132" gradientUnits="userSpaceOnUse">
<stop stop-color="white"/>
<stop offset="0.11" stop-color="#FBFAFA"/>
<stop offset="0.24" stop-color="#F0EDEB"/>
<stop offset="0.39" stop-color="#DFD7D3"/>
<stop offset="0.54" stop-color="#C6B8B1"/>
<stop offset="0.7" stop-color="#A59085"/>
<stop offset="0.86" stop-color="#7F6050"/>
<stop offset="1" stop-color="#5A321E"/>
</linearGradient>
<linearGradient id="paint9_linear_10511_277" x1="8.54929" y1="14.9317" x2="15.1432" y2="15.9561" gradientUnits="userSpaceOnUse">
<stop offset="0.1" stop-color="#5B331F"/>
<stop offset="0.47" stop-color="#B3A197" stop-opacity="0.78"/>
<stop offset="0.74" stop-color="#EAE5E2" stop-opacity="0.65"/>
<stop offset="0.88" stop-color="white" stop-opacity="0.6"/>
</linearGradient>
<linearGradient id="paint10_linear_10511_277" x1="30.0905" y1="11.4199" x2="33.1843" y2="9.69767" gradientUnits="userSpaceOnUse">
<stop offset="0.14" stop-color="white"/>
<stop offset="0.3" stop-color="#DAD2CD"/>
<stop offset="0.55" stop-color="#A48E83"/>
<stop offset="0.76" stop-color="#7C5C4C"/>
<stop offset="0.92" stop-color="#633E2B"/>
<stop offset="1" stop-color="#5A321E"/>
</linearGradient>
<radialGradient id="paint11_radial_10511_277" cx="0" cy="0" r="1" gradientUnits="userSpaceOnUse" gradientTransform="translate(31.0221 11.9738) rotate(-10.9722) scale(10.9947 7.97049)">
<stop offset="0.21" stop-color="#5A321E"/>
<stop offset="0.49" stop-color="#5E3724" stop-opacity="0.97"/>
<stop offset="0.63" stop-color="#6D4938" stop-opacity="0.89"/>
<stop offset="0.75" stop-color="#86685A" stop-opacity="0.74"/>
<stop offset="0.85" stop-color="#A9948A" stop-opacity="0.52"/>
<stop offset="0.94" stop-color="#D6CCC7" stop-opacity="0.25"/>
<stop offset="1" stop-color="white" stop-opacity="0"/>
</radialGradient>
<linearGradient id="paint12_linear_10511_277" x1="25.6191" y1="13.8091" x2="32.8614" y2="10.762" gradientUnits="userSpaceOnUse">
<stop offset="0.21" stop-color="white" stop-opacity="0.2"/>
<stop offset="0.44" stop-color="#C1B2AB" stop-opacity="0.51"/>
<stop offset="0.76" stop-color="#816354" stop-opacity="0.84"/>
<stop offset="0.96" stop-color="#6A4634" stop-opacity="0.96"/>
</linearGradient>
<radialGradient id="paint13_radial_10511_277" cx="0" cy="0" r="1" gradientUnits="userSpaceOnUse" gradientTransform="translate(24.2704 11.2363) scale(6.99109 5.94243)">
<stop stop-color="#623C29"/>
<stop offset="0.02" stop-color="#684432" stop-opacity="0.98"/>
<stop offset="0.23" stop-color="#9E877B" stop-opacity="0.85"/>
<stop offset="0.43" stop-color="#C9BBB5" stop-opacity="0.74"/>
<stop offset="0.63" stop-color="#E7E1DE" stop-opacity="0.66"/>
<stop offset="0.82" stop-color="#F9F7F7" stop-opacity="0.62"/>
<stop offset="1" stop-color="white" stop-opacity="0.6"/>
</radialGradient>
<linearGradient id="paint14_linear_10511_277" x1="16.1152" y1="9.94677" x2="25.3654" y2="9.94677" gradientUnits="userSpaceOnUse">
<stop stop-color="#FEFDFD"/>
<stop offset="0.11" stop-color="#D8CEC9"/>
<stop offset="0.22" stop-color="#B6A59C"/>
<stop offset="0.33" stop-color="#9A8175"/>
<stop offset="0.45" stop-color="#836556"/>
<stop offset="0.57" stop-color="#714E3D"/>
<stop offset="0.7" stop-color="#643E2C"/>
<stop offset="0.84" stop-color="#5C3521"/>
<stop offset="1" stop-color="#5A321E"/>
</linearGradient>
<linearGradient id="paint15_linear_10511_277" x1="19.1398" y1="10.5152" x2="23.1133" y2="10.5152" gradientUnits="userSpaceOnUse">
<stop stop-color="white" stop-opacity="0"/>
<stop offset="0.16" stop-color="#DDD5D0" stop-opacity="0.21"/>
<stop offset="0.52" stop-color="#967C70" stop-opacity="0.64"/>
<stop offset="0.82" stop-color="#6A4634" stop-opacity="0.9"/>
<stop offset="1" stop-color="#5A321E"/>
</linearGradient>
<linearGradient id="paint16_linear_10511_277" x1="20.4805" y1="10.8932" x2="22.5893" y2="10.8932" gradientUnits="userSpaceOnUse">
<stop stop-color="white"/>
<stop offset="1" stop-color="#25130E"/>
</linearGradient>
<clipPath id="clip0_10511_277">
<rect width="227" height="40" fill="white"/>
</clipPath>
<clipPath id="clip1_10511_277">
<rect width="227" height="40" fill="white"/>
</clipPath>
<clipPath id="clip2_10511_277">
<rect width="226.198" height="40" fill="white"/>
</clipPath>
</defs>
</svg>
