<svg width="90" height="90" viewBox="0 0 90 90" fill="none" xmlns="http://www.w3.org/2000/svg">
<g clip-path="url(#clip0)">
<path d="M75.3065 30.2147C73.8376 28.7459 72.1378 27.5915 70.2586 26.7404C65.333 24.5097 61.4605 20.5165 59.2838 15.5668C55.2555 6.40636 46.1046 0.00809344 35.4576 7.50068e-06C21.516 -0.0105394 9.94063 11.1029 9.41592 25.0344C9.19145 30.9973 10.9728 36.5342 14.1392 41.0251C18.1605 46.7288 19.2054 53.9946 17.1311 60.6581C14.1843 70.1251 15.2118 79.0972 20.8178 84.7034C30.6419 94.5274 50.8036 90.2939 65.8503 75.2472C80.8968 60.2005 85.1305 40.0389 75.3065 30.2147V30.2147Z" fill="url(#paint0_linear)"/>
<g opacity="0.1">
<g opacity="0.1">
<g opacity="0.1">
<path opacity="0.1" d="M59.0102 71.2145C58.7854 71.2145 58.5604 71.1287 58.3888 70.9571C58.0455 70.614 58.0455 70.0575 58.3887 69.7142L75.3422 52.7582C75.6855 52.4149 76.2419 52.4147 76.5852 52.7582C76.9285 53.1013 76.9285 53.6578 76.5854 54.0011L59.6318 70.9571C59.4602 71.1287 59.2352 71.2145 59.0102 71.2145Z" fill="#0000CC"/>
</g>
<g opacity="0.1">
<path opacity="0.1" d="M62.6672 73.237C62.3369 73.237 62.0203 73.0499 61.8709 72.7309C61.6649 72.2914 61.8542 71.768 62.2936 71.5621L69.8589 68.0163C70.2984 67.8101 70.8217 67.9994 71.0277 68.439C71.2337 68.8785 71.0444 69.4019 70.6049 69.6078L63.0397 73.1536C62.9191 73.2102 62.7922 73.237 62.6672 73.237V73.237Z" fill="#0000CC"/>
</g>
<g opacity="0.1">
<path opacity="0.1" d="M74.2585 67.9913C73.9282 67.9913 73.6116 67.8043 73.4622 67.4852C73.2562 67.0458 73.4455 66.5223 73.885 66.3165L76.6468 65.0218C77.0858 64.816 77.6096 65.005 77.8156 65.4446C78.0216 65.8841 77.8323 66.4075 77.3928 66.6134L74.631 67.908C74.5104 67.9646 74.3835 67.9913 74.2585 67.9913V67.9913Z" fill="#0000CC"/>
</g>
</g>
<g opacity="0.1">
<g opacity="0.1">
<path opacity="0.1" d="M31.4741 71.2145C31.2492 71.2145 31.0241 71.1287 30.8525 70.957L13.8989 54.001C13.5558 53.6577 13.5558 53.1011 13.8991 52.758C14.2424 52.4149 14.7987 52.4147 15.142 52.758L32.0956 69.7141C32.4387 70.0574 32.4387 70.6139 32.0954 70.957C31.9239 71.1287 31.6989 71.2145 31.4741 71.2145Z" fill="#0000CC"/>
</g>
<g opacity="0.1">
<path opacity="0.1" d="M27.8164 73.2371C27.6914 73.2371 27.5645 73.2103 27.4439 73.1537L19.8786 69.6079C19.4392 69.4019 19.2498 68.8786 19.4559 68.4391C19.6619 67.9997 20.185 67.8102 20.6246 68.0164L28.1899 71.5622C28.6293 71.7682 28.8187 72.2915 28.6126 72.731C28.4632 73.0499 28.1466 73.2371 27.8164 73.2371V73.2371Z" fill="#0000CC"/>
</g>
<g opacity="0.1">
<path opacity="0.1" d="M16.2273 67.9914C16.1023 67.9914 15.9754 67.9647 15.8548 67.9081L13.093 66.6135C12.6535 66.4075 12.4642 65.8842 12.6702 65.4447C12.8764 65.0051 13.3992 64.8156 13.839 65.0219L16.6009 66.3166C17.0403 66.5226 17.2296 67.0459 17.0236 67.4853C16.874 67.8044 16.5576 67.9914 16.2273 67.9914V67.9914Z" fill="#0000CC"/>
</g>
</g>
</g>
<path opacity="0.2" d="M48.923 72.4904L81.8419 33.8351C82.2473 33.3591 82.0395 32.6257 81.4461 32.4292C70.0616 28.6612 57.8942 26.6152 45.2423 26.6152C32.5905 26.6152 20.4231 28.6612 9.03859 32.4292C8.44498 32.6257 8.23738 33.3591 8.64273 33.8351L41.5616 72.4904C35.6181 72.9245 31.2463 74.3824 31.2463 76.1152V82.6385C31.2463 84.7134 37.5125 86.3955 45.2423 86.3955C52.9721 86.3955 59.2384 84.7134 59.2384 82.6385V76.1152C59.2384 74.3824 54.8665 72.9243 48.923 72.4904Z" fill="#114D94"/>
<path d="M59.2387 77.8924C59.2387 79.9673 52.9724 81.6494 45.2426 81.6494C37.5128 81.6494 31.2466 79.9673 31.2466 77.8924V71.3691H59.2385V77.8924H59.2387Z" fill="#D2AD2B"/>
<path d="M45.2426 75.1261C52.9724 75.1261 59.2387 73.4441 59.2387 71.3692C59.2387 69.2942 52.9724 67.6122 45.2426 67.6122C37.5128 67.6122 31.2466 69.2942 31.2466 71.3692C31.2466 73.4441 37.5128 75.1261 45.2426 75.1261Z" fill="#E9D260"/>
<path d="M82.6841 28.1006L46.9604 70.0494C46.0595 71.1072 44.4258 71.1072 43.5249 70.0494L7.80127 28.1006C19.5399 24.0664 32.1312 21.8691 45.2427 21.8691C58.3542 21.8691 70.9454 24.0664 82.6841 28.1006V28.1006Z" fill="#E7EFF9" fill-opacity="0.75"/>
<g opacity="0.1">
<g opacity="0.1">
<path opacity="0.1" d="M49.5375 14.0702C49.3823 14.0702 49.225 14.0291 49.0826 13.9426C47.9261 13.2411 46.5984 12.8704 45.2426 12.8704C43.8868 12.8704 42.5592 13.2411 41.4027 13.9426C40.9877 14.1945 40.4471 14.0622 40.1954 13.647C39.9437 13.2319 40.0761 12.6914 40.4911 12.4397C41.9225 11.5715 43.5655 11.1125 45.2426 11.1125C46.9198 11.1125 48.563 11.5715 49.9942 12.4397C50.4092 12.6914 50.5416 13.2319 50.2898 13.647C50.1246 13.9196 49.8346 14.0702 49.5375 14.0702Z" fill="#0000CC"/>
</g>
<g opacity="0.1">
<path opacity="0.1" d="M47.0696 16.9244C46.9144 16.9244 46.7571 16.8833 46.6147 16.7968C45.7889 16.2958 44.6973 16.2958 43.8714 16.7968C43.4564 17.0487 42.9159 16.9163 42.6642 16.5011C42.4125 16.0859 42.5448 15.5456 42.9598 15.2939C43.6478 14.8766 44.4373 14.6561 45.2432 14.6561C46.0492 14.6561 46.8386 14.8767 47.5266 15.2939C47.9417 15.5456 48.074 16.0861 47.8223 16.5011C47.6565 16.7738 47.3667 16.9244 47.0696 16.9244Z" fill="#0000CC"/>
</g>
<g opacity="0.1">
<path opacity="0.1" d="M51.8211 11.0672C51.6659 11.0672 51.5085 11.026 51.3662 10.9395C49.522 9.82087 47.4046 9.22937 45.2428 9.22937C43.0811 9.22937 40.9636 9.8207 39.1195 10.9395C38.7043 11.1914 38.1638 11.0591 37.9122 10.6439C37.6605 10.2289 37.7929 9.68833 38.2079 9.43662C40.3269 8.15113 42.7597 7.47156 45.2428 7.47156C47.7259 7.47156 50.1587 8.15113 52.2778 9.43662C52.6928 9.68833 52.8251 10.2289 52.5734 10.6439C52.408 10.9165 52.118 11.0672 51.8211 11.0672V11.0672Z" fill="#0000CC"/>
</g>
</g>
<path d="M76.5862 48.012C76.2429 47.6687 75.6865 47.6687 75.3432 48.012L58.3896 64.968C58.0465 65.3113 58.0465 65.8678 58.3898 66.211C58.5616 66.3827 58.7864 66.4683 59.0112 66.4683C59.236 66.4683 59.4612 66.3825 59.6328 66.2108L76.5863 49.2548C76.9295 48.9116 76.9295 48.3551 76.5862 48.012V48.012Z" fill="#114D94"/>
<path d="M69.8597 63.2704L62.2946 66.8163C61.8552 67.0223 61.6659 67.5456 61.8719 67.985C62.0215 68.3039 62.3379 68.4911 62.6682 68.4911C62.7931 68.4911 62.92 68.4644 63.0406 68.4078L70.6057 64.8619C71.0452 64.6559 71.2345 64.1326 71.0285 63.6932C70.8225 63.2535 70.299 63.0642 69.8597 63.2704V63.2704Z" fill="#114D94"/>
<path d="M76.6463 60.2759L73.8845 61.5705C73.445 61.7765 73.2557 62.2998 73.4617 62.7393C73.6113 63.0581 73.9277 63.2453 74.258 63.2453C74.383 63.2453 74.5101 63.2186 74.6305 63.162L77.3924 61.8674C77.8318 61.6614 78.0211 61.1381 77.8151 60.6986C77.6091 60.259 77.0853 60.07 76.6463 60.2759V60.2759Z" fill="#114D94"/>
<path d="M30.8525 66.2109C31.0242 66.3827 31.2492 66.4684 31.4741 66.4684C31.6989 66.4684 31.9239 66.3827 32.0954 66.2111C32.4387 65.868 32.4387 65.3115 32.0956 64.9681L15.142 48.0121C14.7987 47.6688 14.2424 47.6688 13.8991 48.0121C13.5558 48.3554 13.5558 48.9118 13.8989 49.2551L30.8525 66.2109Z" fill="#114D94"/>
<path d="M28.1907 66.8162L20.6256 63.2704C20.1856 63.0642 19.6628 63.2537 19.4568 63.6931C19.2508 64.1326 19.4401 64.6561 19.8796 64.8619L27.4447 68.4078C27.5654 68.4644 27.6922 68.4911 27.8172 68.4911C28.1475 68.4911 28.464 68.3039 28.6134 67.985C28.8195 67.5456 28.6301 67.0223 28.1907 66.8162V66.8162Z" fill="#114D94"/>
<path d="M16.6009 61.5705L13.839 60.2759C13.399 60.0697 12.8762 60.259 12.6702 60.6987C12.4642 61.1381 12.6535 61.6616 13.093 61.8674L15.8548 63.162C15.9756 63.2187 16.1023 63.2454 16.2273 63.2454C16.5576 63.2454 16.8742 63.0583 17.0236 62.7393C17.2296 62.2998 17.0403 61.7765 16.6009 61.5705V61.5705Z" fill="#114D94"/>
<path d="M82.0148 27.5312C82.3298 27.1614 82.8842 27.1172 83.2539 27.4319C83.6234 27.7467 83.6678 28.3013 83.3535 28.6708L49.3042 68.6526L47.6293 70.6192C47.0329 71.3197 46.163 71.7215 45.2428 71.7215C44.3225 71.7215 43.4526 71.3199 42.8558 70.6192L39.7928 67.0224L7.13216 28.6708C6.81751 28.3013 6.86181 27.7467 7.2313 27.4319C7.60079 27.1172 8.15538 27.1614 8.47038 27.5312L30.2539 53.1112L43.3807 68.5244L44.1941 69.4796C44.4561 69.7874 44.8385 69.9639 45.2428 69.9639C45.6469 69.9639 46.029 69.7873 46.2911 69.4796L47.1045 68.5244L56.0364 58.0366L82.0148 27.5312Z" fill="#114D94"/>
<path d="M68.1743 81.3581C67.9495 81.3581 67.7243 81.2723 67.5529 81.1007L65.568 79.1158C65.2247 78.7725 65.2247 78.216 65.568 77.8729L67.5529 75.888C67.7178 75.7231 67.9412 75.6306 68.1743 75.6306C68.4074 75.6306 68.631 75.7233 68.7957 75.888L70.7806 77.8729C71.1239 78.2162 71.1239 78.7727 70.7806 79.1158L68.7957 81.1007C68.6243 81.2723 68.3992 81.3581 68.1743 81.3581ZM67.4324 78.4943L68.1743 79.2362L68.9163 78.4943L68.1743 77.7523L67.4324 78.4943Z" fill="#114D94"/>
<path d="M39.6026 12.2314C39.3777 12.2314 39.1526 12.1456 38.9812 11.974L36.9962 9.98912C36.6529 9.64582 36.6529 9.0893 36.9962 8.74617L38.9812 6.76125C39.1461 6.59637 39.3695 6.50391 39.6026 6.50391C39.8356 6.50391 40.0592 6.59654 40.2239 6.76125L42.209 8.74617C42.3739 8.91105 42.4666 9.13447 42.4666 9.36773C42.4666 9.601 42.3739 9.82441 42.209 9.9893L40.2239 11.9742C40.0526 12.1456 39.8274 12.2314 39.6026 12.2314ZM38.8606 9.36756L39.6026 10.1095L40.3447 9.36756L39.6026 8.62559L38.8606 9.36756Z" fill="#E7EFF9"/>
<path d="M17.1065 79.3731C16.8734 79.3731 16.6498 79.2805 16.4851 79.1158L14.5002 77.1308C14.1569 76.7875 14.1569 76.231 14.5002 75.8879L16.4851 73.903C16.65 73.7381 16.8734 73.6456 17.1065 73.6456C17.3395 73.6456 17.5631 73.7383 17.7278 73.903L19.7129 75.8879C19.8778 76.0528 19.9705 76.2762 19.9705 76.5095C19.9705 76.7427 19.878 76.9661 19.7129 77.131L17.7278 79.1159C17.563 79.2805 17.3395 79.3731 17.1065 79.3731ZM16.3645 76.5091L17.1065 77.2511L17.8486 76.5091L17.1065 75.7671L16.3645 76.5091Z" fill="#329B47"/>
<path d="M8.7627 47.4592C7.4809 47.4592 6.43799 46.4163 6.43799 45.1345C6.43799 43.8527 7.4809 42.8098 8.7627 42.8098C10.0445 42.8098 11.0874 43.8527 11.0874 45.1345C11.0872 46.4163 10.0445 47.4592 8.7627 47.4592ZM8.7627 44.5676C8.45016 44.5676 8.1958 44.822 8.1958 45.1345C8.1958 45.4471 8.44998 45.7014 8.7627 45.7014C9.07541 45.7014 9.32959 45.4471 9.32959 45.1345C9.32941 44.822 9.07523 44.5676 8.7627 44.5676V44.5676Z" fill="#114D94"/>
<path d="M66.4499 20.5272C65.1679 20.5272 64.125 19.4843 64.125 18.2025C64.125 16.9207 65.1679 15.8778 66.4499 15.8778C67.7317 15.8778 68.7746 16.9207 68.7746 18.2025C68.7746 19.4845 67.7317 20.5272 66.4499 20.5272ZM66.4499 17.6358C66.1373 17.6358 65.8828 17.8902 65.8828 18.2027C65.8828 18.5152 66.1372 18.7696 66.4499 18.7696C66.7626 18.7696 67.0168 18.5152 67.0168 18.2027C67.0168 17.89 66.7626 17.6358 66.4499 17.6358Z" fill="#329B47"/>
<path d="M47.6602 41.9153L54.0782 34.7382L44.0026 23.9035V38.1887L38.0677 32.2538L35.8593 34.3931L43.3125 41.9153L35.8593 49.3685L38.0677 51.5078L44.0026 45.5729L44.1406 59.237L54.4232 49.0234L47.6602 41.9153ZM50.4896 34.8072L47.0391 38.2577V31.2877L50.4896 34.8072ZM47.0391 45.5729L50.4896 49.0234L47.0391 52.4739V45.5729Z" fill="#114D94"/>
</g>
<defs>
<linearGradient id="paint0_linear" x1="9.38242" y1="45.0091" x2="80.6081" y2="45.0091" gradientUnits="userSpaceOnUse">
<stop offset="0.01" stop-color="#8AB4E0"/>
<stop offset="0.99" stop-color="#8AB4E0" stop-opacity="0"/>
</linearGradient>
<clipPath id="clip0">
<rect width="90" height="90" fill="white"/>
</clipPath>
</defs>
</svg>
