<svg width="90" height="90" viewBox="0 0 90 90" fill="none" xmlns="http://www.w3.org/2000/svg">
<g clip-path="url(#clip0)">
<g clip-path="url(#clip1)">
<path d="M30.3749 -1.49766e-05C18.4124 0.843735 6.78736 10.8187 10.7624 23.8125C13.9686 34.3125 25.6499 39.225 34.4436 44.1375C42.8624 48.8625 51.7686 54.7312 54.1311 64.7625C55.7624 71.6625 53.7749 79.7625 57.9936 85.3875C65.4936 95.3437 79.8186 87.7875 80.9061 77.0812C81.8249 68.1937 75.3749 60.4312 69.3374 53.85C63.2999 47.2687 56.9436 41.25 51.7686 34.3125C46.8749 27.9 44.4374 19.9125 50.8124 13.5375C52.2561 12.1125 53.9436 10.65 53.4374 8.32499C51.7124 0.693735 36.2436 -0.318765 30.3749 -1.49766e-05Z" fill="url(#paint0_linear)"/>
<path d="M65.0622 13.425V79.8563C65.0622 81.2536 64.5071 82.5937 63.519 83.5818C62.5309 84.5699 61.1908 85.125 59.7935 85.125H24.3747C22.9773 85.125 21.6372 84.5699 20.6491 83.5818C19.6611 82.5937 19.106 81.2536 19.106 79.8563V13.425C19.106 12.0276 19.6611 10.6875 20.6491 9.69943C21.6372 8.71135 22.9773 8.15625 24.3747 8.15625H59.7935C61.1908 8.15625 62.5309 8.71135 63.519 9.69943C64.5071 10.6875 65.0622 12.0276 65.0622 13.425V13.425Z" fill="#E7EFF9"/>
<path d="M59.7935 86.0625H24.3747C22.7287 86.0625 21.1501 85.4086 19.9862 84.2447C18.8223 83.0808 18.1685 81.5023 18.1685 79.8563V13.425C18.1685 11.779 18.8223 10.2004 19.9862 9.03652C21.1501 7.87262 22.7287 7.21875 24.3747 7.21875H59.7935C61.4395 7.21875 63.018 7.87262 64.1819 9.03652C65.3458 10.2004 65.9997 11.779 65.9997 13.425V79.8563C65.9997 81.5023 65.3458 83.0808 64.1819 84.2447C63.018 85.4086 61.4395 86.0625 59.7935 86.0625V86.0625ZM24.3747 9.09375C23.226 9.09375 22.1243 9.55008 21.3121 10.3623C20.4998 11.1746 20.0435 12.2763 20.0435 13.425V79.8563C20.041 80.4257 20.1513 80.9901 20.3681 81.5167C20.5849 82.0433 20.9038 82.5218 21.3065 82.9244C21.7092 83.3271 22.1877 83.6461 22.7143 83.8629C23.2409 84.0796 23.8052 84.19 24.3747 84.1875H59.7935C60.9422 84.1875 62.0438 83.7312 62.8561 82.9189C63.6684 82.1066 64.1247 81.005 64.1247 79.8563V13.425C64.1198 12.2778 63.6619 11.179 62.8507 10.3678C62.0395 9.5566 60.9406 9.09868 59.7935 9.09375H24.3747Z" fill="#114D94"/>
<path d="M51.8812 13.125L53.1562 9.09375H31.0874L32.3437 13.125C32.4701 13.4756 32.6981 13.7806 32.9987 14.0011C33.2993 14.2215 33.6587 14.3473 34.0312 14.3625H50.2124C50.5865 14.3625 50.9507 14.2422 51.2512 14.0194C51.5517 13.7966 51.7725 13.483 51.8812 13.125Z" fill="#3C80C2"/>
<path d="M51.4877 82.5001H32.7377C32.504 82.5001 32.2798 82.4072 32.1146 82.2419C31.9493 82.0767 31.8564 81.8525 31.8564 81.6188C31.8564 81.3851 31.9493 81.1609 32.1146 80.9957C32.2798 80.8304 32.504 80.7375 32.7377 80.7375H51.4877C51.7214 80.7375 51.9456 80.8304 52.1108 80.9957C52.2761 81.1609 52.369 81.3851 52.369 81.6188C52.369 81.8525 52.2761 82.0767 52.1108 82.2419C51.9456 82.4072 51.7214 82.5001 51.4877 82.5001V82.5001Z" fill="#3C80C2"/>
<path d="M71.25 24.1312C71.0163 24.1312 70.7921 24.0384 70.6269 23.8731C70.4616 23.7078 70.3687 23.4837 70.3687 23.25C70.3687 22.9715 70.2581 22.7044 70.0612 22.5075C69.8643 22.3106 69.5972 22.2 69.3188 22.2C69.085 22.2 68.8609 22.1071 68.6956 21.9419C68.5303 21.7766 68.4375 21.5524 68.4375 21.3187C68.4375 21.085 68.5303 20.8609 68.6956 20.6956C68.8609 20.5303 69.085 20.4375 69.3188 20.4375C69.5972 20.4375 69.8643 20.3269 70.0612 20.1299C70.2581 19.933 70.3687 19.666 70.3687 19.3875C70.3687 19.1538 70.4616 18.9296 70.6269 18.7643C70.7921 18.5991 71.0163 18.5062 71.25 18.5062C71.4837 18.5062 71.7079 18.5991 71.8731 18.7643C72.0384 18.9296 72.1313 19.1538 72.1313 19.3875C72.1313 19.666 72.2419 19.933 72.4388 20.1299C72.6357 20.3269 72.9028 20.4375 73.1812 20.4375C73.415 20.4375 73.6391 20.5303 73.8044 20.6956C73.9697 20.8609 74.0625 21.085 74.0625 21.3187C74.0625 21.5524 73.9697 21.7766 73.8044 21.9419C73.6391 22.1071 73.415 22.2 73.1812 22.2C72.9028 22.2 72.6357 22.3106 72.4388 22.5075C72.2419 22.7044 72.1313 22.9715 72.1313 23.25C72.1313 23.4837 72.0384 23.7078 71.8731 23.8731C71.7079 24.0384 71.4837 24.1312 71.25 24.1312V24.1312Z" fill="#55AD69"/>
<path d="M74.7378 15.9938C74.5041 15.9938 74.2799 15.9009 74.1147 15.7357C73.9494 15.5704 73.8565 15.3462 73.8565 15.1125C73.8565 14.834 73.7459 14.567 73.549 14.3701C73.3521 14.1731 73.085 14.0625 72.8065 14.0625C72.6908 14.0625 72.5762 14.0397 72.4693 13.9954C72.3624 13.9512 72.2652 13.8862 72.1834 13.8044C72.1016 13.7226 72.0367 13.6254 71.9924 13.5185C71.9481 13.4116 71.9253 13.297 71.9253 13.1813C71.9253 13.0655 71.9481 12.951 71.9924 12.844C72.0367 12.7371 72.1016 12.64 72.1834 12.5581C72.2652 12.4763 72.3624 12.4114 72.4693 12.3671C72.5762 12.3228 72.6908 12.3 72.8065 12.3C73.085 12.3 73.3521 12.1894 73.549 11.9925C73.7459 11.7956 73.8565 11.5285 73.8565 11.25C73.8565 11.0163 73.9494 10.7922 74.1147 10.6269C74.2799 10.4616 74.5041 10.3688 74.7378 10.3688C74.9715 10.3688 75.1957 10.4616 75.3609 10.6269C75.5262 10.7922 75.619 11.0163 75.619 11.25C75.619 11.5285 75.7297 11.7956 75.9266 11.9925C76.1235 12.1894 76.3906 12.3 76.669 12.3C76.9028 12.3 77.1269 12.3929 77.2922 12.5581C77.4574 12.7234 77.5503 12.9476 77.5503 13.1813C77.5503 13.415 77.4574 13.6391 77.2922 13.8044C77.1269 13.9697 76.9028 14.0625 76.669 14.0625C76.3906 14.0625 76.1235 14.1731 75.9266 14.3701C75.7297 14.567 75.619 14.834 75.619 15.1125C75.619 15.3462 75.5262 15.5704 75.3609 15.7357C75.1957 15.9009 74.9715 15.9938 74.7378 15.9938V15.9938Z" fill="#5A93CE"/>
<path d="M69.7875 79.6311C69.5547 79.6288 69.3323 79.5344 69.1688 79.3686L67.2938 77.4936C67.1312 77.3287 67.04 77.1064 67.04 76.8748C67.04 76.6432 67.1312 76.421 67.2938 76.2561L69.1688 74.3811C69.2478 74.2959 69.3435 74.2279 69.45 74.1814C69.5564 74.135 69.6714 74.111 69.7875 74.111C69.9037 74.111 70.0186 74.135 70.1251 74.1814C70.2316 74.2279 70.3273 74.2959 70.4063 74.3811L72.2813 76.2561C72.4439 76.421 72.535 76.6432 72.535 76.8748C72.535 77.1064 72.4439 77.3287 72.2813 77.4936L70.4063 79.3686C70.2428 79.5344 70.0204 79.6288 69.7875 79.6311V79.6311ZM69.0938 76.8748L69.7875 77.5686L70.4625 76.8748L69.7875 76.1811L69.0938 76.8748Z" fill="#55AD69"/>
<path d="M10.3874 52.3875C10.2733 52.3898 10.1598 52.3695 10.0536 52.3276C9.94737 52.2858 9.85052 52.2233 9.76865 52.1437L7.89365 50.2687C7.80845 50.1897 7.74049 50.094 7.69401 49.9875C7.64753 49.8811 7.62354 49.7662 7.62354 49.65C7.62354 49.5338 7.64753 49.4189 7.69401 49.3124C7.74049 49.2059 7.80845 49.1102 7.89365 49.0312L9.76865 47.1562C9.93354 46.9936 10.1558 46.9025 10.3874 46.9025C10.619 46.9025 10.8412 46.9936 11.0061 47.1562L12.8811 49.0312C13.0437 49.1961 13.1349 49.4184 13.1349 49.65C13.1349 49.8816 13.0437 50.1038 12.8811 50.2687L11.0061 52.1437C10.9243 52.2233 10.8274 52.2858 10.7212 52.3276C10.615 52.3695 10.5015 52.3898 10.3874 52.3875V52.3875ZM9.69365 49.575L10.3874 50.2687L11.0811 49.575L10.3874 48.9L9.69365 49.575Z" fill="#91BBE4"/>
<path d="M80.1937 24.7499C79.5285 24.694 78.9087 24.3902 78.4569 23.8988C78.0051 23.4075 77.7544 22.7643 77.7544 22.0968C77.7544 21.4293 78.0051 20.7862 78.4569 20.2948C78.9087 19.8034 79.5285 19.4997 80.1937 19.4437C80.5608 19.4128 80.9304 19.4585 81.279 19.5778C81.6276 19.6971 81.9477 19.8874 82.2189 20.1368C82.4902 20.3862 82.7067 20.6892 82.8548 21.0265C83.0029 21.3639 83.0794 21.7284 83.0794 22.0968C83.0794 22.4653 83.0029 22.8297 82.8548 23.1671C82.7067 23.5045 82.4902 23.8075 82.2189 24.0568C81.9477 24.3062 81.6276 24.4966 81.279 24.6159C80.9304 24.7352 80.5608 24.7808 80.1937 24.7499V24.7499ZM80.1937 21.4875C80.1133 21.4874 80.0337 21.5035 79.9596 21.5348C79.8856 21.5662 79.8186 21.612 79.7626 21.6698C79.7067 21.7275 79.6629 21.7959 79.6338 21.8708C79.6048 21.9458 79.5911 22.0258 79.5937 22.1062C79.5937 22.2653 79.6569 22.4179 79.7694 22.5305C79.8819 22.643 80.0345 22.7062 80.1937 22.7062C80.274 22.7087 80.3541 22.695 80.429 22.666C80.504 22.637 80.5724 22.5932 80.6301 22.5372C80.6878 22.4813 80.7337 22.4143 80.765 22.3402C80.7963 22.2662 80.8124 22.1866 80.8124 22.1062C80.8124 21.9421 80.7472 21.7847 80.6312 21.6687C80.5151 21.5526 80.3578 21.4875 80.1937 21.4875V21.4875Z" fill="#91BBE4"/>
<path d="M40.219 35.9062V34.7625C39.6188 34.4785 39.1117 34.0299 38.7565 33.4689C38.4014 32.908 38.2128 32.2577 38.2127 31.5937V28.7812V27.6937C38.2127 26.7638 38.5821 25.872 39.2397 25.2145C39.8972 24.5569 40.789 24.1875 41.7189 24.1875H42.5064C43.4381 24.1875 44.3319 24.5563 44.9924 25.2133C45.6529 25.8703 46.0265 26.7621 46.0314 27.6937V28.7437V31.5937C46.0359 32.2587 45.8492 32.9108 45.4935 33.4726C45.1378 34.0344 44.6281 34.4822 44.0252 34.7625V35.9062C44.0252 36.525 44.4752 36.8062 45.1502 37.0312L46.3127 37.2937C47.9644 36.3704 49.2632 34.9252 50.0055 33.1846C50.7478 31.444 50.8917 29.5062 50.4146 27.6751C49.9376 25.8439 48.8665 24.2227 47.3692 23.0656C45.872 21.9084 44.0331 21.2806 42.1408 21.2806C40.2485 21.2806 38.4097 21.9084 36.9124 23.0656C35.4152 24.2227 34.3441 25.8439 33.867 27.6751C33.3899 29.5062 33.5338 31.444 34.2761 33.1846C35.0184 34.9252 36.3172 36.3704 37.9689 37.2937L39.1315 37.0312C39.769 36.8062 40.219 36.525 40.219 35.9062Z" fill="#D2AD2B"/>
<path d="M46.2939 37.2937L45.1314 37.0312C44.4564 36.8062 44.0064 36.525 44.0064 35.9062V34.7625C44.6094 34.4822 45.1191 34.0344 45.4747 33.4726C45.8304 32.9109 46.0172 32.2587 46.0127 31.5937V28.7437H45.5439C45.0951 28.7463 44.6502 28.6598 44.235 28.4892C43.8198 28.3186 43.4426 28.0674 43.1252 27.75C41.9543 28.4195 40.6302 28.7748 39.2814 28.7812H38.2127V31.5937C38.2128 32.2577 38.4014 32.908 38.7565 33.4689C39.1117 34.0299 39.6188 34.4785 40.2189 34.7625V35.9062C40.2189 36.525 39.7689 36.8062 39.1127 37.0312L37.9502 37.2937C39.2252 38.0064 40.6614 38.3806 42.1221 38.3806C43.5827 38.3806 45.019 38.0064 46.2939 37.2937V37.2937Z" fill="#E7EFF9"/>
<path d="M41.7187 24.1875C40.7887 24.1875 39.8969 24.5569 39.2394 25.2145C38.5818 25.872 38.2124 26.7638 38.2124 27.6938V28.7813V27.6938C38.2124 26.7638 38.5818 25.872 39.2394 25.2145C39.8969 24.5569 40.7887 24.1875 41.7187 24.1875V24.1875Z" fill="#282D6A"/>
<path d="M46.0313 27.6938C46.0264 26.7622 45.6528 25.8704 44.9923 25.2134C44.3318 24.5563 43.438 24.1875 42.5063 24.1876V24.1876C42.9675 24.1851 43.4245 24.2741 43.8511 24.4494C44.2776 24.6247 44.6651 24.8829 44.9912 25.209C45.3173 25.535 45.5754 25.9226 45.7508 26.3491C45.9261 26.7756 46.0151 27.2327 46.0126 27.6938V28.7438L46.0313 27.6938Z" fill="#282D6A"/>
<path d="M42.5062 24.1876H41.7187C40.7887 24.1876 39.8969 24.557 39.2394 25.2145C38.5818 25.8721 38.2124 26.7639 38.2124 27.6938V28.7813H39.3749C40.6918 28.7589 41.9817 28.4042 43.1249 27.7501V27.7501C43.4423 28.0674 43.8195 28.3187 44.2347 28.4892C44.6499 28.6598 45.0948 28.7463 45.5437 28.7438H46.0124V27.6938C46.0149 27.2327 45.9259 26.7756 45.7506 26.3491C45.5752 25.9226 45.3171 25.535 44.991 25.209C44.6649 24.8829 44.2774 24.6247 43.8509 24.4494C43.4244 24.2741 42.9673 24.1851 42.5062 24.1876V24.1876Z" fill="#114D94"/>
<path d="M55.6313 51.8062H28.6126C28.3016 51.8087 27.9933 51.7493 27.7055 51.6315C27.4178 51.5137 27.1563 51.3397 26.9365 51.1199C26.7166 50.9 26.5427 50.6385 26.4248 50.3508C26.307 50.063 26.2476 49.7547 26.2501 49.4437V45.7875C26.2476 45.4766 26.307 45.1682 26.4248 44.8805C26.5427 44.5927 26.7166 44.3313 26.9365 44.1114C27.1563 43.8915 27.4178 43.7176 27.7055 43.5997C27.9933 43.4819 28.3016 43.4225 28.6126 43.425H55.6313C56.2579 43.425 56.8588 43.6739 57.3019 44.117C57.7449 44.56 57.9938 45.1609 57.9938 45.7875V49.4437C57.9938 50.0703 57.7449 50.6712 57.3019 51.1143C56.8588 51.5573 56.2579 51.8062 55.6313 51.8062V51.8062Z" fill="#91BBE4"/>
<path d="M46.2188 57.8812H28.1251C27.8118 57.8812 27.5114 57.7567 27.2898 57.5352C27.0683 57.3137 26.9438 57.0132 26.9438 56.6999C26.9438 56.3866 27.0683 56.0862 27.2898 55.8647C27.5114 55.6431 27.8118 55.5187 28.1251 55.5187H46.2564C46.5696 55.5187 46.8701 55.6431 47.0916 55.8647C47.3131 56.0862 47.4376 56.3866 47.4376 56.6999C47.4376 57.0132 47.3131 57.3137 47.0916 57.5352C46.8701 57.7567 46.5696 57.8812 46.2564 57.8812H46.2188Z" fill="#91BBE4"/>
<path d="M57.3939 62.7188H28.1251C27.97 62.7188 27.8164 62.6883 27.6731 62.6289C27.5297 62.5695 27.3995 62.4825 27.2898 62.3728C27.1801 62.2632 27.0931 62.1329 27.0338 61.9896C26.9744 61.8463 26.9438 61.6927 26.9438 61.5376C26.9438 61.3825 26.9744 61.2288 27.0338 61.0855C27.0931 60.9422 27.1801 60.812 27.2898 60.7023C27.3995 60.5926 27.5297 60.5056 27.6731 60.4462C27.8164 60.3869 27.97 60.3563 28.1251 60.3563H57.3939C57.549 60.3563 57.7026 60.3869 57.8459 60.4462C57.9892 60.5056 58.1194 60.5926 58.2291 60.7023C58.3388 60.812 58.4258 60.9422 58.4852 61.0855C58.5445 61.2288 58.5751 61.3825 58.5751 61.5376C58.5751 61.6927 58.5445 61.8463 58.4852 61.9896C58.4258 62.1329 58.3388 62.2632 58.2291 62.3728C58.1194 62.4825 57.9892 62.5695 57.8459 62.6289C57.7026 62.6883 57.549 62.7188 57.3939 62.7188Z" fill="#91BBE4"/>
<path d="M39.1126 71.25H28.1251C27.8118 71.25 27.5114 71.1255 27.2898 70.904C27.0683 70.6824 26.9438 70.382 26.9438 70.0687C26.9438 69.7554 27.0683 69.455 27.2898 69.2334C27.5114 69.0119 27.8118 68.8875 28.1251 68.8875H39.1501C39.4634 68.8875 39.7638 69.0119 39.9854 69.2334C40.2069 69.455 40.3314 69.7554 40.3314 70.0687C40.3314 70.382 40.2069 70.6824 39.9854 70.904C39.7638 71.1255 39.4634 71.25 39.1501 71.25H39.1126Z" fill="#91BBE4"/>
<path d="M56.6438 12.825C57.203 12.825 57.6564 12.3717 57.6564 11.8125C57.6564 11.2534 57.203 10.8 56.6438 10.8C56.0847 10.8 55.6313 11.2534 55.6313 11.8125C55.6313 12.3717 56.0847 12.825 56.6438 12.825Z" fill="#114D94"/>
<path d="M59.5877 12.825C60.1469 12.825 60.6002 12.3717 60.6002 11.8125C60.6002 11.2534 60.1469 10.8 59.5877 10.8C59.0285 10.8 58.5752 11.2534 58.5752 11.8125C58.5752 12.3717 59.0285 12.825 59.5877 12.825Z" fill="#114D94"/>
<path d="M12.5436 66.5437C12.2552 66.5436 11.9787 66.4289 11.7749 66.2249L10.3874 64.8374L8.99986 66.2249C8.79359 66.4243 8.51795 66.5357 8.23111 66.5357C7.94426 66.5357 7.66863 66.4243 7.46236 66.2249C7.26422 66.0218 7.15332 65.7493 7.15332 65.4656C7.15332 65.1818 7.26422 64.9093 7.46236 64.7062L9.61861 62.5499C9.71665 62.4473 9.83449 62.3656 9.96501 62.3097C10.0955 62.2539 10.236 62.2251 10.378 62.2251C10.5199 62.2251 10.6604 62.2539 10.791 62.3097C10.9215 62.3656 11.0393 62.4473 11.1374 62.5499L13.2936 64.7062C13.3963 64.8042 13.478 64.9221 13.5338 65.0526C13.5897 65.1831 13.6185 65.3236 13.6185 65.4656C13.6185 65.6075 13.5897 65.748 13.5338 65.8785C13.478 66.0091 13.3963 66.1269 13.2936 66.2249C13.0944 66.4244 12.8255 66.5387 12.5436 66.5437Z" fill="#114D94"/>
</g>
</g>
<defs>
<linearGradient id="paint0_linear" x1="84.2624" y1="78.8812" x2="16.4998" y2="1.5375" gradientUnits="userSpaceOnUse">
<stop offset="0.01" stop-color="#8AB4E0"/>
<stop offset="0.99" stop-color="#8AB4E0" stop-opacity="0"/>
</linearGradient>
<clipPath id="clip0">
<rect width="90" height="90" fill="white"/>
</clipPath>
<clipPath id="clip1">
<rect width="90" height="90" fill="white"/>
</clipPath>
</defs>
</svg>
