<svg width="90" height="90" viewBox="0 0 90 90" fill="none" xmlns="http://www.w3.org/2000/svg">
<g clip-path="url(#clip0)">
<g clip-path="url(#clip1)">
<path d="M71.0811 6.41245C53.9249 1.49995 40.0311 32.6624 26.6061 46.1812C19.9499 52.8749 8.38114 57.9749 6.16864 68.0437C3.69364 79.4249 13.4249 86.7937 22.2561 89.0062C44.1186 94.6312 61.6311 76.1624 71.0061 55.9874C76.7249 43.5562 91.8749 12.3562 71.0811 6.41245Z" fill="url(#paint0_linear)"/>
<path d="M74.9061 22.5563H12.9373C11.4979 22.5563 10.3311 23.7231 10.3311 25.1625V70.7063C10.3311 72.1457 11.4979 73.3125 12.9373 73.3125H74.9061C76.3455 73.3125 77.5123 72.1457 77.5123 70.7063V25.1625C77.5123 23.7231 76.3455 22.5563 74.9061 22.5563Z" fill="#E7EFF9"/>
<path d="M75 74.2688H13.125C12.6416 74.2943 12.1581 74.221 11.704 74.0534C11.2499 73.8858 10.8348 73.6274 10.4838 73.294C10.1329 72.9607 9.85359 72.5592 9.66295 72.1143C9.47231 71.6694 9.37433 71.1903 9.375 70.7063V25.1813C9.375 24.2364 9.75034 23.3303 10.4184 22.6622C11.0865 21.9941 11.9927 21.6188 12.9375 21.6188H75C75.9416 21.6237 76.8429 22.0013 77.507 22.6688C78.171 23.3364 78.5438 24.2397 78.5437 25.1813V70.7063C78.5438 71.6479 78.171 72.5512 77.507 73.2187C76.8429 73.8863 75.9416 74.2638 75 74.2688V74.2688ZM13.125 23.4938C12.6775 23.4938 12.2482 23.6716 11.9318 23.988C11.6153 24.3045 11.4375 24.7337 11.4375 25.1813V70.7063C11.4375 71.1538 11.6153 71.5831 11.9318 71.8995C12.2482 72.216 12.6775 72.3938 13.125 72.3938H75C75.2207 72.3938 75.4393 72.35 75.643 72.265C75.8467 72.18 76.0315 72.0554 76.1867 71.8984C76.3419 71.7415 76.4644 71.5553 76.5471 71.3506C76.6299 71.146 76.6712 70.927 76.6687 70.7063V25.1813C76.6712 24.9606 76.6299 24.7415 76.5471 24.5369C76.4644 24.3323 76.3419 24.1461 76.1867 23.9892C76.0315 23.8322 75.8467 23.7076 75.643 23.6226C75.4393 23.5375 75.2207 23.4938 75 23.4938H13.125Z" fill="#114D94"/>
<path d="M22.7441 43.3688H18.1691C17.9518 43.3713 17.7361 43.3304 17.5348 43.2483C17.3334 43.1663 17.1505 43.0449 16.9968 42.8911C16.8431 42.7374 16.7217 42.5545 16.6396 42.3532C16.5576 42.1519 16.5166 41.9362 16.5192 41.7188V37.1438C16.5191 36.928 16.5619 36.7143 16.6451 36.5152C16.7282 36.316 16.8501 36.1354 17.0035 35.9837C17.157 35.8319 17.3391 35.7122 17.5391 35.6313C17.7392 35.5504 17.9534 35.5101 18.1691 35.5126H22.7441C23.1768 35.5126 23.5917 35.6844 23.8976 35.9903C24.2035 36.2963 24.3754 36.7112 24.3754 37.1438V41.7188C24.3779 41.9346 24.3375 42.1487 24.2566 42.3488C24.1758 42.5489 24.056 42.7309 23.9043 42.8844C23.7526 43.0379 23.5719 43.1597 23.3728 43.2429C23.1736 43.326 22.96 43.3688 22.7441 43.3688V43.3688Z" fill="#1F61AD"/>
<path d="M34.481 43.3688H29.9997C29.7823 43.3713 29.5667 43.3304 29.3653 43.2483C29.164 43.1663 28.9811 43.0448 28.8274 42.8911C28.6737 42.7374 28.5522 42.5545 28.4702 42.3532C28.3882 42.1519 28.3472 41.9362 28.3497 41.7188V37.1438C28.3497 36.928 28.3925 36.7143 28.4757 36.5152C28.5588 36.316 28.6806 36.1354 28.8341 35.9837C28.9876 35.8319 29.1696 35.7122 29.3697 35.6313C29.5698 35.5504 29.7839 35.5101 29.9997 35.5126H34.5747C35.0074 35.5126 35.4223 35.6844 35.7282 35.9903C36.0341 36.2963 36.206 36.7112 36.206 37.1438V41.7188C36.2089 41.9427 36.1657 42.1648 36.0791 42.3713C35.9925 42.5778 35.8642 42.7643 35.7024 42.9191C35.5406 43.0739 35.3486 43.1937 35.1385 43.271C34.9283 43.3484 34.7045 43.3817 34.481 43.3688V43.3688Z" fill="#1F61AD"/>
<path d="M69.6751 43.3688H65.1189C64.9015 43.3713 64.6858 43.3304 64.4845 43.2483C64.2831 43.1663 64.1003 43.0449 63.9465 42.8911C63.7928 42.7374 63.6714 42.5545 63.5893 42.3532C63.5073 42.1519 63.4663 41.9362 63.4689 41.7188V37.1438C63.4688 36.928 63.5117 36.7143 63.5948 36.5152C63.6779 36.316 63.7998 36.1354 63.9533 35.9837C64.1067 35.8319 64.2888 35.7122 64.4888 35.6313C64.6889 35.5504 64.9031 35.5101 65.1189 35.5126H69.6751C69.8909 35.5101 70.105 35.5504 70.3051 35.6313C70.5052 35.7122 70.6873 35.8319 70.8407 35.9837C70.9942 36.1354 71.116 36.316 71.1992 36.5152C71.2823 36.7143 71.3251 36.928 71.3251 37.1438V41.7188C71.3276 41.9362 71.2867 42.1519 71.2046 42.3532C71.1226 42.5545 71.0012 42.7374 70.8474 42.8911C70.6937 43.0449 70.5108 43.1663 70.3095 43.2483C70.1082 43.3304 69.8925 43.3713 69.6751 43.3688V43.3688Z" fill="#1F61AD"/>
<path d="M57.9373 43.3688H53.3811C53.1637 43.3713 52.948 43.3304 52.7467 43.2483C52.5454 43.1663 52.3625 43.0449 52.2087 42.8911C52.055 42.7374 51.9336 42.5545 51.8515 42.3532C51.7695 42.1519 51.7286 41.9362 51.7311 41.7188V37.1438C51.7311 36.928 51.7739 36.7143 51.857 36.5152C51.9402 36.316 52.062 36.1354 52.2155 35.9837C52.3689 35.8319 52.551 35.7122 52.7511 35.6313C52.9511 35.5504 53.1653 35.5101 53.3811 35.5126H57.9373C58.1531 35.5101 58.3672 35.5504 58.5673 35.6313C58.7674 35.7122 58.9495 35.8319 59.1029 35.9837C59.2564 36.1354 59.3782 36.316 59.4614 36.5152C59.5445 36.7143 59.5873 36.928 59.5873 37.1438V41.7188C59.5898 41.9362 59.5489 42.1519 59.4668 42.3532C59.3848 42.5545 59.2634 42.7374 59.1096 42.8911C58.9559 43.0449 58.773 43.1663 58.5717 43.2483C58.3704 43.3304 58.1547 43.3713 57.9373 43.3688V43.3688Z" fill="#1F61AD"/>
<path d="M46.2 43.3688H41.6438C41.4264 43.3713 41.2107 43.3304 41.0094 43.2483C40.808 43.1663 40.6252 43.0449 40.4714 42.8911C40.3177 42.7374 40.1963 42.5545 40.1142 42.3532C40.0322 42.1519 39.9912 41.9362 39.9938 41.7188V37.1438C39.9937 36.928 40.0366 36.7143 40.1197 36.5152C40.2029 36.316 40.3247 36.1354 40.4782 35.9837C40.6316 35.8319 40.8137 35.7122 41.0137 35.6313C41.2138 35.5504 41.428 35.5101 41.6438 35.5126H46.2C46.4158 35.5101 46.6299 35.5504 46.83 35.6313C47.0301 35.7122 47.2122 35.8319 47.3656 35.9837C47.5191 36.1354 47.6409 36.316 47.7241 36.5152C47.8072 36.7143 47.85 36.928 47.85 37.1438V41.7188C47.8525 41.9362 47.8116 42.1519 47.7295 42.3532C47.6475 42.5545 47.5261 42.7374 47.3723 42.8911C47.2186 43.0449 47.0357 43.1663 46.8344 43.2483C46.6331 43.3304 46.4174 43.3713 46.2 43.3688V43.3688Z" fill="#1F61AD"/>
<path d="M22.7441 55.2375H18.1691C17.9534 55.2399 17.7392 55.1996 17.5391 55.1187C17.3391 55.0378 17.157 54.9181 17.0035 54.7664C16.8501 54.6146 16.7282 54.434 16.6451 54.2348C16.5619 54.0357 16.5191 53.822 16.5192 53.6062V49.0312C16.5166 48.8138 16.5576 48.5981 16.6396 48.3968C16.7217 48.1955 16.8431 48.0126 16.9968 47.8589C17.1505 47.7052 17.3334 47.5837 17.5348 47.5017C17.7361 47.4197 17.9518 47.3787 18.1691 47.3812H22.7441C22.96 47.3812 23.1736 47.424 23.3728 47.5072C23.5719 47.5903 23.7526 47.7121 23.9043 47.8656C24.056 48.0191 24.1758 48.2011 24.2566 48.4012C24.3375 48.6013 24.3779 48.8154 24.3754 49.0312V53.6062C24.3754 54.0388 24.2035 54.4538 23.8976 54.7597C23.5917 55.0656 23.1768 55.2375 22.7441 55.2375V55.2375Z" fill="#91BBE4"/>
<path d="M34.481 55.2375H29.9997C29.7839 55.2399 29.5698 55.1996 29.3697 55.1187C29.1696 55.0378 28.9876 54.9181 28.8341 54.7664C28.6806 54.6146 28.5588 54.434 28.4757 54.2348C28.3925 54.0357 28.3497 53.822 28.3497 53.6062V49.0312C28.3472 48.8138 28.3882 48.5981 28.4702 48.3968C28.5522 48.1955 28.6737 48.0126 28.8274 47.8589C28.9811 47.7052 29.164 47.5837 29.3653 47.5017C29.5667 47.4197 29.7823 47.3787 29.9997 47.3812H34.5747C34.7905 47.3812 35.0042 47.424 35.2033 47.5072C35.4025 47.5903 35.5831 47.7121 35.7349 47.8656C35.8866 48.0191 36.0064 48.2011 36.0872 48.4012C36.1681 48.6013 36.2084 48.8154 36.206 49.0312V53.6062C36.2063 53.8286 36.1612 54.0486 36.0735 54.2529C35.9857 54.4572 35.8571 54.6414 35.6955 54.7941C35.534 54.9469 35.3429 55.065 35.134 55.1413C34.9252 55.2175 34.7029 55.2502 34.481 55.2375V55.2375Z" fill="#91BBE4"/>
<path d="M69.6751 55.2375H65.1189C64.9031 55.2399 64.6889 55.1996 64.4888 55.1187C64.2888 55.0378 64.1067 54.9181 63.9533 54.7664C63.7998 54.6146 63.6779 54.434 63.5948 54.2348C63.5117 54.0357 63.4688 53.822 63.4689 53.6062V49.0312C63.4663 48.8138 63.5073 48.5981 63.5893 48.3968C63.6714 48.1955 63.7928 48.0126 63.9465 47.8589C64.1003 47.7052 64.2831 47.5837 64.4845 47.5017C64.6858 47.4197 64.9015 47.3787 65.1189 47.3812H69.6751C69.8925 47.3787 70.1082 47.4197 70.3095 47.5017C70.5108 47.5837 70.6937 47.7052 70.8474 47.8589C71.0012 48.0126 71.1226 48.1955 71.2046 48.3968C71.2867 48.5981 71.3276 48.8138 71.3251 49.0312V53.6062C71.3251 53.822 71.2823 54.0357 71.1992 54.2348C71.116 54.434 70.9942 54.6146 70.8407 54.7664C70.6873 54.9181 70.5052 55.0378 70.3051 55.1187C70.105 55.1996 69.8909 55.2399 69.6751 55.2375V55.2375Z" fill="#91BBE4"/>
<path d="M57.9373 55.2375H53.3811C53.1653 55.2399 52.9511 55.1996 52.7511 55.1187C52.551 55.0378 52.3689 54.9181 52.2155 54.7664C52.062 54.6146 51.9402 54.434 51.857 54.2348C51.7739 54.0357 51.7311 53.822 51.7311 53.6062V49.0312C51.7286 48.8138 51.7695 48.5981 51.8515 48.3968C51.9336 48.1955 52.055 48.0126 52.2087 47.8589C52.3625 47.7052 52.5454 47.5837 52.7467 47.5017C52.948 47.4197 53.1637 47.3787 53.3811 47.3812H57.9373C58.1547 47.3787 58.3704 47.4197 58.5717 47.5017C58.773 47.5837 58.9559 47.7052 59.1096 47.8589C59.2634 48.0126 59.3848 48.1955 59.4668 48.3968C59.5489 48.5981 59.5898 48.8138 59.5873 49.0312V53.6062C59.5873 53.822 59.5445 54.0357 59.4614 54.2348C59.3782 54.434 59.2564 54.6146 59.1029 54.7664C58.9495 54.9181 58.7674 55.0378 58.5673 55.1187C58.3672 55.1996 58.1531 55.2399 57.9373 55.2375V55.2375Z" fill="#91BBE4"/>
<path d="M46.2 55.2375H41.6438C41.428 55.2399 41.2138 55.1996 41.0137 55.1187C40.8137 55.0378 40.6316 54.9181 40.4782 54.7664C40.3247 54.6146 40.2029 54.434 40.1197 54.2348C40.0366 54.0357 39.9937 53.822 39.9938 53.6062V49.0312C39.9912 48.8138 40.0322 48.5981 40.1142 48.3968C40.1963 48.1955 40.3177 48.0126 40.4714 47.8589C40.6252 47.7052 40.808 47.5837 41.0094 47.5017C41.2107 47.4197 41.4264 47.3787 41.6438 47.3812H46.2C46.4174 47.3787 46.6331 47.4197 46.8344 47.5017C47.0357 47.5837 47.2186 47.7052 47.3723 47.8589C47.5261 48.0126 47.6475 48.1955 47.7295 48.3968C47.8116 48.5981 47.8525 48.8138 47.85 49.0312V53.6062C47.85 53.822 47.8072 54.0357 47.7241 54.2348C47.6409 54.434 47.5191 54.6146 47.3656 54.7664C47.2122 54.9181 47.0301 55.0378 46.83 55.1187C46.6299 55.1996 46.4158 55.2399 46.2 55.2375V55.2375Z" fill="#91BBE4"/>
<path d="M22.7441 67.1249H18.1691C17.9518 67.1274 17.7361 67.0865 17.5348 67.0044C17.3334 66.9224 17.1505 66.801 16.9968 66.6472C16.8431 66.4935 16.7217 66.3106 16.6396 66.1093C16.5576 65.908 16.5166 65.6923 16.5192 65.4749V60.8999C16.5191 60.6841 16.5619 60.4704 16.6451 60.2713C16.7282 60.0722 16.8501 59.8915 17.0035 59.7398C17.157 59.588 17.3391 59.4683 17.5391 59.3874C17.7392 59.3065 17.9534 59.2662 18.1691 59.2687H22.7441C23.1768 59.2687 23.5917 59.4405 23.8976 59.7464C24.2035 60.0524 24.3754 60.4673 24.3754 60.8999V65.4749C24.3779 65.6907 24.3375 65.9048 24.2566 66.1049C24.1758 66.305 24.056 66.487 23.9043 66.6405C23.7526 66.794 23.5719 66.9158 23.3728 66.999C23.1736 67.0821 22.96 67.1249 22.7441 67.1249V67.1249Z" fill="#91BBE4"/>
<path d="M34.481 67.1249H29.9997C29.7823 67.1274 29.5667 67.0864 29.3653 67.0044C29.164 66.9224 28.9811 66.8009 28.8274 66.6472C28.6737 66.4935 28.5522 66.3106 28.4702 66.1093C28.3882 65.908 28.3472 65.6923 28.3497 65.4749V60.8999C28.3497 60.6841 28.3925 60.4704 28.4757 60.2713C28.5588 60.0722 28.6806 59.8915 28.8341 59.7398C28.9876 59.588 29.1696 59.4683 29.3697 59.3874C29.5698 59.3065 29.7839 59.2662 29.9997 59.2687H34.5747C35.0074 59.2687 35.4223 59.4405 35.7282 59.7464C36.0341 60.0524 36.206 60.4673 36.206 60.8999V65.4749C36.2089 65.6988 36.1657 65.9209 36.0791 66.1274C35.9925 66.3339 35.8642 66.5204 35.7024 66.6752C35.5406 66.83 35.3486 66.9498 35.1385 67.0271C34.9283 67.1045 34.7045 67.1378 34.481 67.1249V67.1249Z" fill="#91BBE4"/>
<path d="M57.9373 67.1249H53.3811C53.1637 67.1274 52.948 67.0865 52.7467 67.0044C52.5454 66.9224 52.3625 66.801 52.2087 66.6472C52.055 66.4935 51.9336 66.3106 51.8515 66.1093C51.7695 65.908 51.7286 65.6923 51.7311 65.4749V60.8999C51.7311 60.6841 51.7739 60.4704 51.857 60.2713C51.9402 60.0722 52.062 59.8915 52.2155 59.7398C52.3689 59.588 52.551 59.4683 52.7511 59.3874C52.9511 59.3065 53.1653 59.2662 53.3811 59.2687H57.9373C58.1531 59.2662 58.3672 59.3065 58.5673 59.3874C58.7674 59.4683 58.9495 59.588 59.1029 59.7398C59.2564 59.8915 59.3782 60.0722 59.4614 60.2713C59.5445 60.4704 59.5873 60.6841 59.5873 60.8999V65.4749C59.5898 65.6923 59.5489 65.908 59.4668 66.1093C59.3848 66.3106 59.2634 66.4935 59.1096 66.6472C58.9559 66.801 58.773 66.9224 58.5717 67.0044C58.3704 67.0865 58.1547 67.1274 57.9373 67.1249Z" fill="#91BBE4"/>
<path d="M46.2 67.1249H41.6438C41.4264 67.1274 41.2107 67.0865 41.0094 67.0044C40.808 66.9224 40.6252 66.801 40.4714 66.6472C40.3177 66.4935 40.1963 66.3106 40.1142 66.1093C40.0322 65.908 39.9912 65.6923 39.9938 65.4749V60.8999C39.9937 60.6841 40.0366 60.4704 40.1197 60.2713C40.2029 60.0722 40.3247 59.8915 40.4782 59.7398C40.6316 59.588 40.8137 59.4683 41.0137 59.3874C41.2138 59.3065 41.428 59.2662 41.6438 59.2687H46.2C46.4158 59.2662 46.6299 59.3065 46.83 59.3874C47.0301 59.4683 47.2122 59.588 47.3656 59.7398C47.5191 59.8915 47.6409 60.0722 47.7241 60.2713C47.8072 60.4704 47.85 60.6841 47.85 60.8999V65.4749C47.8525 65.6923 47.8116 65.908 47.7295 66.1093C47.6475 66.3106 47.5261 66.4935 47.3723 66.6472C47.2186 66.801 47.0357 66.9224 46.8344 67.0044C46.6331 67.0865 46.4174 67.1274 46.2 67.1249V67.1249Z" fill="#91BBE4"/>
<path d="M77.5123 24.9187C77.5127 24.2435 77.2511 23.5944 76.7824 23.1082C76.3137 22.6221 75.6746 22.3368 74.9998 22.3125H12.9373C12.2461 22.3125 11.5832 22.5871 11.0944 23.0759C10.6056 23.5646 10.3311 24.2275 10.3311 24.9187V30.75H77.5123V24.9187Z" fill="#114D94"/>
<path d="M78.4313 31.6687H9.375V24.9187C9.37996 23.9821 9.7555 23.0855 10.4195 22.425C11.0836 21.7644 11.9821 21.3937 12.9188 21.3937H75C75.9349 21.3937 76.8315 21.7651 77.4926 22.4261C78.1536 23.0872 78.525 23.9838 78.525 24.9187L78.4313 31.6687ZM11.25 29.8312H76.5938V24.9187C76.5938 24.4711 76.416 24.0419 76.0995 23.7254C75.783 23.409 75.3538 23.2312 74.9063 23.2312H13.0313C12.8081 23.2287 12.5866 23.2705 12.3797 23.3542C12.1728 23.4379 11.9846 23.5618 11.8259 23.7188C11.6672 23.8757 11.5412 24.0626 11.4552 24.2685C11.3692 24.4745 11.325 24.6955 11.325 24.9187L11.25 29.8312Z" fill="#114D94"/>
<path d="M22.294 80.1374C22.1714 80.1367 22.0502 80.1115 21.9374 80.0632C21.8247 80.0149 21.7228 79.9445 21.6378 79.8562L20.4565 78.7499L19.2565 79.9312C19.1749 80.0295 19.0736 80.1097 18.9592 80.1667C18.8448 80.2237 18.7198 80.2562 18.5921 80.2621C18.4644 80.268 18.3369 80.2472 18.2177 80.2011C18.0986 80.1549 17.9903 80.0844 17.9 79.994C17.8096 79.9036 17.7391 79.7954 17.6929 79.6762C17.6467 79.557 17.6259 79.4295 17.6318 79.3018C17.6378 79.1742 17.6702 79.0491 17.7272 78.9347C17.7842 78.8203 17.8644 78.7191 17.9628 78.6374L19.8378 76.7624C20.0098 76.5918 20.2423 76.4961 20.4846 76.4961C20.7269 76.4961 20.9594 76.5918 21.1315 76.7624L23.0065 78.6374C23.0957 78.7199 23.1669 78.82 23.2155 78.9313C23.2642 79.0426 23.2893 79.1628 23.2893 79.2843C23.2893 79.4058 23.2642 79.526 23.2155 79.6373C23.1669 79.7486 23.0957 79.8487 23.0065 79.9312C22.9106 80.0164 22.7968 80.0791 22.6736 80.1148C22.5503 80.1505 22.4206 80.1582 22.294 80.1374V80.1374Z" fill="white"/>
<path d="M50.7938 5.88745C50.5501 5.88745 50.3164 5.79065 50.1441 5.61836C49.9718 5.44606 49.875 5.21237 49.875 4.9687C49.8776 4.82111 49.8502 4.67452 49.7943 4.53788C49.7385 4.40123 49.6554 4.27739 49.5502 4.17388C49.4449 4.07038 49.3197 3.9894 49.1821 3.93585C49.0446 3.88231 48.8975 3.85734 48.75 3.86245C48.5014 3.86245 48.2629 3.76368 48.0871 3.58786C47.9113 3.41205 47.8125 3.17359 47.8125 2.92495C47.8125 2.67631 47.9113 2.43785 48.0871 2.26204C48.2629 2.08622 48.5014 1.98745 48.75 1.98745C48.8944 1.99245 49.0383 1.96864 49.1734 1.9174C49.3084 1.86617 49.4319 1.78854 49.5367 1.68904C49.6414 1.58954 49.7253 1.47018 49.7833 1.33792C49.8414 1.20565 49.8726 1.06314 49.875 0.918701C49.875 0.670061 49.9738 0.431604 50.1496 0.255789C50.3254 0.0799732 50.5639 -0.0187988 50.8125 -0.0187988C51.0611 -0.0187988 51.2996 0.0799732 51.4754 0.255789C51.6512 0.431604 51.75 0.670061 51.75 0.918701C51.75 1.2121 51.8665 1.49348 52.074 1.70094C52.2815 1.9084 52.5629 2.02495 52.8563 2.02495C53.1049 2.02495 53.3433 2.12372 53.5192 2.29954C53.695 2.47535 53.7938 2.71381 53.7938 2.96245C53.7938 3.21109 53.695 3.44955 53.5192 3.62536C53.3433 3.80118 53.1049 3.89995 52.8563 3.89995C52.5629 3.89995 52.2815 4.0165 52.074 4.22396C51.8665 4.43143 51.75 4.71281 51.75 5.0062C51.7452 5.12689 51.7166 5.24543 51.6659 5.35506C51.6152 5.46469 51.5434 5.56325 51.4546 5.6451C51.3658 5.72696 51.2617 5.79049 51.1483 5.83208C51.0349 5.87366 50.9144 5.89248 50.7938 5.88745V5.88745Z" fill="#1F61AD"/>
<path d="M38.1941 14.1938C37.8778 14.1972 37.5641 14.1376 37.2711 14.0185C36.9782 13.8994 36.7119 13.7232 36.4878 13.5C36.0328 13.0475 35.7762 12.4327 35.7744 11.791C35.7727 11.1493 36.0259 10.5331 36.4784 10.0781C36.931 9.62312 37.5457 9.36651 38.1874 9.36476C38.8291 9.363 39.4453 9.61624 39.9003 10.0688C40.3526 10.5252 40.6063 11.1418 40.6063 11.7844C40.6063 12.427 40.3526 13.0436 39.9003 13.5V13.5C39.4453 13.9472 38.832 14.1966 38.1941 14.1938V14.1938ZM38.1941 11.025C38.0658 11.0221 37.9389 11.0513 37.8249 11.1099C37.7108 11.1686 37.6132 11.2548 37.5411 11.3608C37.4689 11.4668 37.4243 11.5892 37.4115 11.7168C37.3987 11.8444 37.418 11.9732 37.4677 12.0914C37.5174 12.2096 37.5959 12.3136 37.696 12.3937C37.7961 12.4739 37.9147 12.5277 38.041 12.5503C38.1672 12.5729 38.2971 12.5635 38.4188 12.5231C38.5405 12.4827 38.6502 12.4124 38.7378 12.3188V12.3188C38.8392 12.2104 38.907 12.0751 38.9331 11.929C38.9593 11.783 38.9426 11.6325 38.8851 11.4957C38.8276 11.3589 38.7318 11.2417 38.6092 11.1582C38.4866 11.0747 38.3424 11.0284 38.1941 11.025V11.025Z" fill="#55AD69"/>
<path d="M66.1503 84.6375C65.5291 84.6429 64.9254 84.4325 64.4421 84.0421C63.9589 83.6518 63.6263 83.1057 63.5009 82.4973C63.3756 81.8889 63.4654 81.2559 63.755 80.7063C64.0446 80.1568 64.5161 79.7249 65.0888 79.4843C65.6615 79.2438 66.3 79.2096 66.8951 79.3875C67.4903 79.5655 68.0052 79.9445 68.3518 80.4599C68.6985 80.9754 68.8555 81.5952 68.7959 82.2135C68.7364 82.8318 68.464 83.4103 68.0253 83.8501V83.8501C67.5291 84.3503 66.8548 84.6335 66.1503 84.6375V84.6375ZM66.1503 81.1125C66.0391 81.1117 65.9289 81.1327 65.8259 81.1746C65.723 81.2164 65.6293 81.2782 65.5503 81.3563C65.4243 81.5246 65.3627 81.7323 65.3764 81.942C65.3902 82.1518 65.4784 82.3497 65.6253 82.5C65.7037 82.579 65.7972 82.6414 65.9003 82.6833C66.0035 82.7252 66.114 82.7457 66.2253 82.7438C66.4249 82.7321 66.6125 82.645 66.7503 82.5V82.5C66.8296 82.4216 66.8926 82.3281 66.9356 82.2251C66.9786 82.1222 67.0008 82.0117 67.0008 81.9C67.0008 81.7884 66.9786 81.6779 66.9356 81.5749C66.8926 81.472 66.8296 81.3785 66.7503 81.3C66.5828 81.1608 66.3672 81.0934 66.1503 81.1125Z" fill="#55AD69"/>
<path d="M38.2876 81.9187C38.1792 81.9203 38.0716 81.8995 37.9715 81.8575C37.8715 81.8156 37.7812 81.7535 37.7064 81.675L35.8314 79.8C35.7507 79.7262 35.6862 79.6364 35.6421 79.5363C35.598 79.4363 35.5752 79.3281 35.5752 79.2187C35.5752 79.1094 35.598 79.0012 35.6421 78.9011C35.6862 78.8011 35.7507 78.7113 35.8314 78.6375L37.7064 76.7625C37.8609 76.6091 38.0699 76.5229 38.2876 76.5229C38.5054 76.5229 38.7143 76.6091 38.8689 76.7625L40.7439 78.6375C40.8246 78.7113 40.8891 78.8011 40.9332 78.9011C40.9773 79.0012 41 79.1094 41 79.2187C41 79.3281 40.9773 79.4363 40.9332 79.5363C40.8891 79.6364 40.8246 79.7262 40.7439 79.8L38.8689 81.675C38.794 81.7535 38.7037 81.8156 38.6037 81.8575C38.5037 81.8995 38.3961 81.9203 38.2876 81.9187ZM37.6314 79.275L38.2876 79.9312L38.9439 79.275L38.2876 78.6187L37.6314 79.275Z" fill="#E7EFF9"/>
<path d="M20.2876 18.0001H20.6251C21.2169 18.0001 21.7844 18.2352 22.2028 18.6536C22.6213 19.072 22.8563 19.6396 22.8563 20.2313V24.7501C22.8564 25.3436 22.6219 25.9131 22.204 26.3345C21.7861 26.7559 21.2186 26.9951 20.6251 27.0001H20.2876C19.6909 27.0001 19.1186 26.763 18.6966 26.3411C18.2747 25.9191 18.0376 25.3468 18.0376 24.7501V20.2313C18.0376 19.9367 18.0959 19.645 18.2092 19.3731C18.3225 19.1012 18.4885 18.8544 18.6977 18.6469C18.9069 18.4395 19.1551 18.2755 19.428 18.1645C19.7009 18.0535 19.993 17.9976 20.2876 18.0001V18.0001Z" fill="#D2AD2B"/>
<path d="M20.6249 18.7499C20.9964 18.7548 21.3512 18.9045 21.6139 19.1672C21.8766 19.4299 22.0263 19.7847 22.0312 20.1562V24.7499C22.0413 24.9417 22.0125 25.1335 21.9466 25.3139C21.8807 25.4943 21.7791 25.6595 21.6477 25.7996C21.5164 25.9397 21.3581 26.0519 21.1823 26.1292C21.0065 26.2066 20.8169 26.2477 20.6249 26.2499H20.2874C19.9095 26.2499 19.547 26.0998 19.2798 25.8326C19.0125 25.5653 18.8624 25.2029 18.8624 24.8249V20.2312C18.8673 19.8565 19.0196 19.4988 19.2863 19.2356C19.5531 18.9724 19.9127 18.8249 20.2874 18.8249H20.6249V18.7499ZM20.6249 17.1749H20.2874C19.4751 17.1749 18.6958 17.4963 18.1197 18.0689C17.5435 18.6416 17.2174 19.4189 17.2124 20.2312V24.7499C17.2124 25.5655 17.5364 26.3476 18.113 26.9243C18.6897 27.501 19.4719 27.8249 20.2874 27.8249H20.6249C21.0278 27.8249 21.4268 27.7453 21.7988 27.5905C22.1709 27.4357 22.5086 27.2089 22.7927 26.9231C23.0767 26.6374 23.3014 26.2982 23.4539 25.9253C23.6064 25.5523 23.6836 25.1529 23.6812 24.7499V20.2312C23.6812 19.4206 23.3592 18.6432 22.786 18.0701C22.2128 17.4969 21.4355 17.1749 20.6249 17.1749Z" fill="#114D94"/>
<path d="M32.3436 18H32.0249C30.7823 18 29.7749 19.0074 29.7749 20.25V24.75C29.7749 25.9926 30.7823 27 32.0249 27H32.3436C33.5863 27 34.5936 25.9926 34.5936 24.75V20.25C34.5936 19.0074 33.5863 18 32.3436 18Z" fill="#D2AD2B"/>
<path d="M32.3622 18.7499C32.7337 18.7548 33.0885 18.9045 33.3512 19.1672C33.6139 19.4299 33.7636 19.7847 33.7685 20.1562V24.7499C33.7685 25.1246 33.6209 25.4843 33.3577 25.751C33.0945 26.0177 32.7369 26.17 32.3622 26.1749H32.0247C31.6468 26.1749 31.2843 26.0248 31.0171 25.7576C30.7498 25.4903 30.5997 25.1279 30.5997 24.7499V20.2312C30.6046 19.8565 30.7569 19.4988 31.0237 19.2356C31.2904 18.9724 31.65 18.8249 32.0247 18.8249H32.3622V18.7499ZM32.3622 17.1749H32.0247C31.2124 17.1749 30.4331 17.4963 29.857 18.0689C29.2808 18.6416 28.9547 19.4189 28.9497 20.2312V24.7499C28.9497 25.5655 29.2737 26.3476 29.8504 26.9243C30.427 27.501 31.2092 27.8249 32.0247 27.8249H32.3622C32.7651 27.8249 33.1641 27.7453 33.5361 27.5905C33.9082 27.4357 34.2459 27.2089 34.53 26.9231C34.814 26.6374 35.0387 26.2982 35.1912 25.9253C35.3437 25.5523 35.4209 25.1529 35.4185 24.7499V20.2312C35.4185 19.4206 35.0965 18.6432 34.5233 18.0701C33.9501 17.4969 33.1728 17.1749 32.3622 17.1749V17.1749Z" fill="#114D94"/>
<path d="M43.8939 18H43.5752C42.3326 18 41.3252 19.0074 41.3252 20.25V24.75C41.3252 25.9926 42.3326 27 43.5752 27H43.8939C45.1366 27 46.1439 25.9926 46.1439 24.75V20.25C46.1439 19.0074 45.1366 18 43.8939 18Z" fill="#D2AD2B"/>
<path d="M43.8938 18.75C44.2685 18.75 44.6282 18.8975 44.8949 19.1607C45.1616 19.4239 45.3139 19.7816 45.3188 20.1562V24.75C45.3188 25.1279 45.1687 25.4904 44.9014 25.7576C44.6342 26.0248 44.2717 26.175 43.8938 26.175H43.5751C43.1971 26.175 42.8347 26.0248 42.5674 25.7576C42.3002 25.4904 42.1501 25.1279 42.1501 24.75V20.2312C42.155 19.8566 42.3073 19.4989 42.574 19.2357C42.8407 18.9725 43.2004 18.825 43.5751 18.825H43.8938V18.75ZM43.8938 17.175H43.5751C43.1721 17.1725 42.7727 17.2497 42.3997 17.4022C42.0268 17.5547 41.6876 17.7794 41.4018 18.0635C41.116 18.3475 40.8892 18.6853 40.7345 19.0573C40.5797 19.4293 40.5001 19.8283 40.5001 20.2312V24.75C40.4976 25.1545 40.5754 25.5555 40.7291 25.9297C40.8827 26.3039 41.1091 26.6438 41.3952 26.9299C41.6812 27.2159 42.0212 27.4423 42.3954 27.596C42.7696 27.7496 43.1705 27.8275 43.5751 27.825H43.8938C44.7093 27.825 45.4915 27.501 46.0682 26.9243C46.6448 26.3477 46.9688 25.5655 46.9688 24.75V20.2312C46.9639 19.4189 46.6377 18.6416 46.0616 18.069C45.4854 17.4964 44.7061 17.175 43.8938 17.175V17.175Z" fill="#114D94"/>
<path d="M55.8188 18H55.5C54.2574 18 53.25 19.0074 53.25 20.25V24.75C53.25 25.9926 54.2574 27 55.5 27H55.8188C57.0614 27 58.0687 25.9926 58.0687 24.75V20.25C58.0687 19.0074 57.0614 18 55.8188 18Z" fill="#D2AD2B"/>
<path d="M55.8187 18.75C56.1934 18.7499 56.5531 18.8975 56.8198 19.1607C57.0865 19.4239 57.2388 19.7816 57.2437 20.1562V24.75C57.2437 25.1279 57.0936 25.4904 56.8263 25.7576C56.5591 26.0248 56.1966 26.175 55.8187 26.175H55.5C55.122 26.175 54.7596 26.0248 54.4923 25.7576C54.2251 25.4904 54.075 25.1279 54.075 24.75V20.2312C54.0674 20.0394 54.0986 19.848 54.1668 19.6686C54.2351 19.4892 54.3388 19.3254 54.4719 19.187C54.605 19.0487 54.7647 18.9387 54.9413 18.8636C55.118 18.7885 55.308 18.7498 55.5 18.75H55.8187V18.75ZM55.8187 17.1H55.5C55.097 17.1073 54.6994 17.1942 54.3302 17.3558C53.9609 17.5173 53.6273 17.7503 53.3484 18.0414C53.0696 18.3324 52.8511 18.6757 52.7055 19.0516C52.5598 19.4274 52.49 19.8283 52.5 20.2312V24.75C52.4975 25.1545 52.5753 25.5555 52.729 25.9297C52.8826 26.3039 53.109 26.6438 53.3951 26.9299C53.6811 27.2159 54.0211 27.4423 54.3953 27.596C54.7695 27.7496 55.1704 27.8275 55.575 27.825H55.8937C56.2982 27.8275 56.6992 27.7496 57.0734 27.596C57.4476 27.4423 57.7876 27.2159 58.0736 26.9299C58.3596 26.6438 58.5861 26.3039 58.7397 25.9297C58.8934 25.5555 58.9712 25.1545 58.9687 24.75V20.2312C58.9687 19.8283 58.889 19.4293 58.7343 19.0573C58.5795 18.6853 58.3527 18.3475 58.0669 18.0635C57.7811 17.7794 57.442 17.5547 57.069 17.4022C56.6961 17.2497 56.2966 17.1725 55.8937 17.175L55.8187 17.1Z" fill="#114D94"/>
<path d="M67.5561 18H67.2373C65.9947 18 64.9873 19.0074 64.9873 20.25V24.75C64.9873 25.9926 65.9947 27 67.2373 27H67.5561C68.7987 27 69.8061 25.9926 69.8061 24.75V20.25C69.8061 19.0074 68.7987 18 67.5561 18Z" fill="#D2AD2B"/>
<path d="M67.4998 18.75C67.8745 18.75 68.2341 18.8975 68.5008 19.1607C68.7675 19.4239 68.9198 19.7816 68.9248 20.1562V24.75C68.935 24.9433 68.9056 25.1367 68.8386 25.3184C68.7716 25.5 68.6682 25.6661 68.5349 25.8065C68.4015 25.9468 68.241 26.0585 68.063 26.1348C67.885 26.2111 67.6934 26.2502 67.4998 26.25H67.181C66.8031 26.25 66.4406 26.0998 66.1734 25.8326C65.9061 25.5654 65.756 25.2029 65.756 24.825V20.2312C65.7609 19.8566 65.9133 19.4989 66.18 19.2357C66.4467 18.9725 66.8063 18.825 67.181 18.825H67.4998V18.75ZM67.4998 17.175H67.181C66.7781 17.1725 66.3787 17.2497 66.0057 17.4022C65.6327 17.5547 65.2936 17.7794 65.0078 18.0635C64.722 18.3475 64.4952 18.6853 64.3404 19.0573C64.1857 19.4293 64.106 19.8283 64.106 20.2312V24.75C64.1035 25.1545 64.1814 25.5555 64.335 25.9297C64.4887 26.3039 64.7151 26.6438 65.0011 26.9299C65.2872 27.2159 65.6271 27.4423 66.0013 27.596C66.3755 27.7496 66.7765 27.8275 67.181 27.825H67.4998C67.9043 27.8275 68.3053 27.7496 68.6795 27.596C69.0537 27.4423 69.3936 27.2159 69.6797 26.9299C69.9657 26.6438 70.1921 26.3039 70.3458 25.9297C70.4994 25.5555 70.5773 25.1545 70.5748 24.75V20.2312C70.5748 19.8283 70.4951 19.4293 70.3403 19.0573C70.1856 18.6853 69.9588 18.3475 69.673 18.0635C69.3872 17.7794 69.0481 17.5547 68.6751 17.4022C68.3021 17.2497 67.9027 17.1725 67.4998 17.175V17.175Z" fill="#114D94"/>
</g>
</g>
<defs>
<linearGradient id="paint0_linear" x1="5.77489" y1="47.9437" x2="81.6936" y2="47.9437" gradientUnits="userSpaceOnUse">
<stop offset="0.01" stop-color="#8AB4E0"/>
<stop offset="0.99" stop-color="#8AB4E0" stop-opacity="0"/>
</linearGradient>
<clipPath id="clip0">
<rect width="90" height="90" fill="white"/>
</clipPath>
<clipPath id="clip1">
<rect width="90" height="90" fill="white"/>
</clipPath>
</defs>
</svg>
